<svg height="292" width="606" xmlns="http://www.w3.org/2000/svg"><g fill="none" fill-rule="evenodd"><g fill="#526e84"><path d="m173.3 95 .2 3c0 1.8.3 3.8.2 5.7 0 1.6-.2 3.2-.5 4.8 0 .3-.6.7-1 1h-.6c-3.5-.1-6.9.7-10.4.2-3-.4-6.1-.5-9.2.2-1.2.2-2.5.1-3.8.2-.2.5-.5 1-.5 1.4v5.3c0 2 .8 2.8 2.8 3 3.6.4 7.2.5 10.8.2s7.2-.1 11-.1c.3.8.8 1.5 1 2.2.4 3.6.7 7 .1 10.6-.1.7-.4 1.3-1 1.6s-1.3.7-2 .8c-3.4.3-6.7.9-10.1.3h-10.6c-1 0-1.7.6-1.8 1.7-.2 2.1-.4 4.3-.3 6.4.1 2 1.3 3 3.3 2.6a21 21 0 0 1 7.2.2c.7.1 1.5 0 2.2-.1 2.1-.4 4.3-.4 6.5-.3h3.3c2.6 0 3.4.6 3.7 3.1v1.5l-.5 7.7c-.1 1-.5 2-.7 2.8l-.7.3c-3.5 0-6.9.7-10.4.2-2.4-.3-4.8 0-7.2-.1-1 0-1.9-.3-3-.4-.3.7-1 1-2 .9l-2.6-.2c-1 0-1.7-.2-2-1.3-.1-.2-.7-.3-1.1-.5l-.4 1.3-.7.2-4.8.3h-2.1l-6.3-.5c-2-.1-2.4-.6-2.4-2.5v-4.7l-.5-5.3a9 9 0 0 1 0-3.1c.2-1.4.3-2.9.1-4.3-.3-3 0-5.8.2-8.7.1-1.6-.2-3.2-.2-4.8l-.1-8 .1-9.1c.2-2.6 0-5.2 0-7.7-.1-2.4.2-4.7.5-7 .1-1.4.7-1.8 2-1.8l12.6-.4 4.8-.1c.6 0 1.2-.2 1.7 0 3.3.6 6.6 0 9.9 0h11.8c1.3 0 2.5.2 3.5 1.3zm-29.3 34.4c-.4.6-1 1-.3 1.5.1.1.6.2.8 0 .5-.5.2-1-.5-1.5zm-.2 17.2.8-.8c0-.4-.3-.7-.5-1-.2.2-.6.3-.6.5zm1.2 7.2c-.4-.4-.5-.7-.8-.8-.2 0-.7 0-.7.2-.2.4 0 .8.4.8l1-.2zm2.7 4.1.5-1-.4-.4c-.2.2-.5.5-.6.8zm-14.6-8.4-.7-.3-.6.6.5.4zm30.7-46.5.4-.2-.4-1-.4.2zm-15.8 47.6v-.2a14 14 0 0 0 -.8-.7l-.2.2.6.8zm-12.4-27 .9.4.5-.3-.5-.5-1 .4zm-7.4 6.8.8.4.3-.6-.5-.3c-.2 0-.3.3-.6.5zm32.3-28 .5-.3-.5-.7-.3.2c0 .3.2.5.3.8zm-13.1-.7-.4.3c0 .2.2.3.3.4l.3-.1zm299.5 53.2h-2.2c-1-.3-2-.8-2-2 0-.8-.6-1-1-1a3 3 0 0 0 -1.7.2c-.4.1-.7.6-1 1 0 0-.3 0-.4-.2-2-3.3-5-6.1-6.4-9.9l-.5-1-9-13c-.2-.4-.6-.7-1-1-1 .4-1.1 1.3-1.1 2.2l.3 7v.4c-.4 3-.4 5.8.1 8.7v.7c-1.2 1.4-.4 2.9-.2 4.3.2 1 .4 2.2 0 3.4-1.7-.6-.9-2-1.4-3-.4-.2-1-.5-1.4-.5-1.5 0-2-.7-2.3-2 0-.5-.2-1-.3-1.3-1-.5-2-.4-2.9.4l-.2 1.9c-1.4.5-2.8 1.1-3 3.3l1.6 1.1 3 1.5c.7.2 1.4.1 2.1 0l1.2-.3c1-.2 2.4.4 2.9 1.1.4.7.2 2.8-.4 3.3l-1.3.5c-3.2.3-6.3 1-9.6.5-1.2-.2-2.5.3-3.8.3-.8 0-1.8.6-2.1-.8 0 0-.4-.2-.5 0-1.1 1-1.6-.3-2.5-.6 0-2.4 0-4.7.3-7 .3-3 .1-5.8.1-8.7v-1.7c.2-3.7.1-7.4-.4-11.1l.1-2c.5-1.9.3-3.8.1-5.7-.2-2 0-4 0-6l.1-2v-2.8c.7-4.5 0-9 0-13.5l-.3-3.3c0-1.4.6-2 1.8-2.2h.3c3.5-.3 7-.5 10.6-.6 2.2 0 4.3.3 6.5.4 1.2 0 2.2.5 2.8 1.5 2.3 3.5 5 6.6 6.8 10.3.4 1 1 1.6 1.6 2.4l3.5 5.2-.9 1.5.4.4c1.8 0 2.8 1.2 3.7 2.7l4.1 7c.4.6.8 1.4 1.6 1.3 1-.1 1-1 1.2-1.9l.1-2.6.3-4.6v-2.4c-.7-2.6-.4-5.3-.2-8 .3-2.3.3-4.6 0-7a18 18 0 0 1 0-3.3c0-1.5.5-2.1 2-2.5.7-.2 1.5-.3 2.2-.3a1132.2 1132.2 0 0 1 14.5 0c1 .3 1.4.8 1.5 2 0 2.7.7 5.4.3 8.1-.2 2 0 4 0 6l-.2 3.6v1.7a11 11 0 0 1 0 4.8v1.4c.5 2.1.4 4.2.3 6.3 0 4.2-.4 8.5.4 12.8a4 4 0 0 1 -.1 2.1 7.8 7.8 0 0 0 -.3 4.4c.2 1.6 0 3.2 0 4.8 0 1-.1 1-1.2 2.2l1 .4v2c.3 2 0 3.5-2.1 4.4-.6.3-1 .7-1.7.7h-2.3l-.7-1.8c-1-.4-2-.6-2.9-1.1-1-.6-.6-1.9-.8-2.9-1-.2-1.8-.2-2.6-.5-1.1-.4-1.4-1-1.2-2.1l.5-.8c0-.2.2-.3.3-.3h1.3l1-2.6-1.7-1.5c-1 .4-.7 1.4-1 2l-1 2.1c-1.7-.3-1.7-.3-3 .1l.2 3zm-33.9-13.1 3-1.2c-1.2-1-2.5-.5-3.8-1.2l.3 1.6c0 .2.3.4.5.8zm47.6 15-.4-.4-.6-.1c-.9-.1-1.2.1-1.2.8 0 .8.6.8 1.2.8.8 0 1.1-.4 1-1.2zm-16-8.7c-1.4 1.2-1.4 1.2-1.3 3.5l.6-.3.6-3.2zm12 4-1.5.6c-.2.1-.2.4-.4.8h2v-1.3zm-31-33h-.6l.1 1.7h.4l.2-1.6zm1.5-4.6c-1.1 0-1.1 0-1.4 1.1zm22.2 31.8.3-.5-.8-.6-.4.7 1 .4zm-38.2-16-.3-.3-.3.3.4.4.2-.3zm45.6-15.3.3-.2-.1-.4-.5.2zm-39 29.3.3.3.1-.2-.2-.4zm-11.9-4.7v-.1h-.2v.2h.2z" fill-rule="nonzero"/><path d="m446.8 155 1.2-.4c1.6-.1 2.6.9 2.6 2.4 0 .9-.5 1.4-1.2 1.7-.8.3-1.6.1-2.2-.5-1-1-1-2.1-.3-3.3zm-31.3-.3h-1.8c-.8-.2-1.5-.7-1.6-1.6 0-.9.6-1.3 1.3-1.5l.9-.3c1.6.6 1.5 1.8 1.2 3.4zm38.9 6.3h-3.9c.2-1.8.7-2.5 2-2.5 1 0 1.7.8 1.9 2.6zm-12.7-2.5-1.6-3.6c1-.6 1.6-.2 2 .5.4.4.6 1 .6 1.6 0 .5-.3 1-.5 1.5zm4.3 2.7-3.6-1.7 2.7-1.1c.7.7 1.6 1.3.9 2.8z"/><path d="m197 103.2c.4-2.7 1.1-5.3 2.6-7.6.6-1 1.4-1.5 2.6-1.6 3-.2 6-.3 9.1 0 3.6.2 7.2.2 10.9-.3 2.3-.2 4.6 0 7 0 1 .1 1.7.7 2 1.8.8 2.5 1.7 5 2.3 7.6.5 2 1 4 2 6l.7 2c-1.4.3-1.5 1.3-1.4 2.4-1.4-.3-2.8.1-4 .8 0 1 .2 1.7.3 2.7l2.4-.6 1.3-3 2-.2c0 .4.2.7.3 1.1.3 1 .3 2 .7 2.8 1 2 1.5 4 2 6.1 1.2 3.9 2.5 7.7 3.9 11.5 1 2.7 2 5.4 2.3 8.3.2 1.6 1 3 1.4 4.6l1.3 3.7c-.2 1.4-1.4 1.6-2.2 2.3.9 1.7 3.5 1.8 3.4 4.6-.5 1.3-2.6 1.7-3.9 3-.2.3-.9.2-1.4.2l-4-.5-1 .1c-1 .6-2.1.5-3.2.4-1.7-.1-3.4-.2-5-.6-1.3-.2-2.5-1.9-2.1-3 .3-1 0-1.4-.4-2l-1-1.4c-.7-2-.6-2.2 1-3.7l-.4-.9c0-.2-.2-.3-.5-.7l-1.5 1.4-3.6-.5-.5-1.5c-.8-.5-1.5 0-2.5 1.6h-3.4c-2.8 0-5.5.3-8.2-.3l-2.4-.8c-.4.3-.2 1.3-1.3 1.4s-2 .7-2.6 1.8c-.6 1.2-1.7 2-2.9 3.3l-1.4.3c-.2 2.5-2.4 3-4.4 3.8l-.3 1.8-.6.3-5.8-.2-1.4.1c-1.7.3-3.3.2-4.8-.2-1.1-.3-1.4-.6-1.3-1.7 0-.9.1-1.8.4-2.6 1-3.4 1.8-6.8 3-10.2 1.2-4 2.7-8 4-12 .3-1 1-1.2 1.9-1.2-.4.8 0 1.4.9 1.6h1.8c.5-.8.2-1.6-.2-2.4-.5 0-1 .2-1.3.3l-1.3.5c-.6-.6-.8-1.4-.2-2.2 1-1.3 1-2.8 1.2-4.3.9-.3 1.8.6 2.5-.5l-.8-.7-1-.7c-.4-1-.2-2 .2-3 .2-.7.6-1.1 1.4-1.1.6 0 1 .4 1 1 .1 1.3 1.5 1.1 2 2 1.2-1.7 1.1-2.4-.6-3-.8-.2-1.2-.6-1.6-1.2-.6-1-.2-2.2.8-2.6l2.3-.8c.2-1.6-1.3-2-2-3.2.2-.4.4-1 .5-1.7l2.4-7.3c.1-.4.4-.8.7-1.3-.1.7.3 1.2 1 1.2.4 0 1-.1 1.4-.4.6-.5.3-1-1-1.6-.5.2-.6 1.2-1.5 1zm.8 25c.3 0 .7.3 1 .4 0-.4-.2-.5-.4-.5h-.7l.8-1.5c-1 .4-1.3.8-.7 1.5zm-6.2 13.3-1.5.9c-.1-.7-.1-1.2-.3-1.6 0-.1-.4-.3-.5-.2-.2 0-.5.3-.5.4 0 .7 1 2.1 1.6 2.3l1.6-.4.2-.2-.6-1.2c1-.2 1-.2.8-.9zm8.4-28.1-1.4-1 .7-1.2-1.5-1.2-1.2.8.5 2.2 3 .4c0 .2-.1.6 0 .8l1.7 2.3c.5-.1 1.3 0 1.6-.5.5-.7.5-1.7.2-2.6zm14.6-.1c-1.1.6-1.3 1.8-1.6 2.8l-3.6 12.8-1.3 5.8c-.2 1.4.2 2 1.5 2.3l1.2.1c1.7 0 3.4.2 5.1 0 1.6 0 3.2-.4 4.7-.8 1.1-.3 1.3-1 1.2-2l-.2-1-2-7.9c-.9-3.3-1.7-6.5-3.1-9.6-.5-1-.9-2-2-2.5zm15.3 4c-2.2.2-3.4-1-4.1-2.8l-.5-.8c-.4-.4-1-.4-1.3 0-1 1.2-.7 2.9.8 3.2 1 .2 1.7.7 2.3 1.5.8 1 1.8 1.5 3 1.7.6-1 0-1.6-.2-2.7zm-37 30.3c1.3-.3 2.6 0 3.5-1.1l-.7-1.7c-.5-.8-2-.8-2.4 0s-.7 1.6-.4 2.8zm6.7 2.3c-1.3-.9-2.5-1.5-4-1.2l1.1 2c.4.6 1 .7 1.6.3.4-.2.8-.6 1.3-1.1zm-5-20.6c-.9 0-1.4.4-1.4 1.2 0 1 .5 1.5 1.4 1.4.7 0 1.1-.5 1.2-1.4 0-.8-.4-1.2-1.1-1.2zm-1 25.9c1.1-.4 1.5-1.2 1.7-2 .1-.8-.3-1.4-.9-1.4-.7 0-1.3.3-1.2 1 0 .8.2 1.5.4 2.4zm-5.3-7.6c0-1.3-.4-2.2-1.5-2.7l-1.7 2.4zm46.6-4.7c1.3.3 2-.4 2.8-.8l-.5-1.8c-1 .5-2.2 1-2.3 2.6zm-25.7-42.5c2 0 2.3-.1 2.1-2.4l-2 .5zm5.5-4.8-1.3.7-1.3.5c.5.5.8 1 1.1 1 .7.2 1.5 0 2-.6zm17 41.2c-.4 1.6-.3 1.8 1.3 2.6.7-1.7.6-1.7-1.4-2.6zm-35.2-18.5c.4.5.6.9.9 1 .3.3.9.5 1 .4.3-.3.5-.8.5-1.2 0-.2-.5-.7-.7-.7-.5 0-1 .3-1.7.5zm48.8 41 .4-.3-1-1.8-1-.1c0 .4-.2.9 0 1 .4.5 1 .9 1.6 1.3zm-15.1-31.8c-.5-.8-1-1.4-2-1.6 0 .6-.3 1.3 0 1.6.4.6 1.1.6 2 0zm1.3 24.6c-.5.5-.7 1-.3 1.6.5.5 1 .5 1.7-.2-.3-.5-.4-1.2-1.4-1.4zm6-34.1c-2.4 0-2.5.2-2 2zm-20.3-17.4c.2-.2.7-.4.8-.8.3-.4-.4-1-1-1-.5 0-1 .2-1 .8-.2.5.4 1 1.2 1zm13.8 28.4.4 2 2-1.5c-.7-.8-1.3-.9-2.4-.5zm-39.8 27c-.6.5-1 .7-1.2 1-.2.2-.3.7-.2 1 .1.2.6.4.8.3.4 0 .7-.4.8-.7s0-.7-.2-1.6zm18.4-40.2v-1.6c-1.3.5-1.3.5-1.2 1.7zm23.4 31.2 1.5-.9c-1.2-1-1.2-.9-1.5 1zm-41 2h-1.5c0 .6 0 1.1.2 2l1.4-2zm10-19.9c-.2 1-.4 1.5-.2 1.7.4.5 1 .2 1.5-.3zm-.3 17.7c.7 0 1.2-.2 1.1-1 0-.2-.2-.4-.4-.5l-.8 1v.5zm43.2 3.2v-.5l-1-.4-.2.6 1 .4zm-57.7 4.2.3-1c0-.2-.4-.3-.5-.4-.2.3-.4.6-.4 1zm38.8-31.4-.7-.4-.6.7.4.4zm-33 28.5h.2v-.3l-.2.1zm1-12.8v-.2h-.4v.2zm-2.2 9.1h.2v-.3l-.2.1zm6.1-5.3-.3-.1-.1.1.4.2zm-3.2.5-.2-.4-.3.3.2.4zm31.7-29.3-.2.6.4.1.2-.5zm-3.8-13.7-.2.3v.2h.3v-.5zm-1.5-3.1c-.1 0-.3-.2-.4-.1l-.2.3c.1 0 .3.1.4 0zm-15.8-1.8.1.5.4-.2-.1-.4zm35.4 43.1-.2-.2-.1.2v.2zm-53-1-.1-.3h-.4v.2h.4zm47-9.6v.2l.1-.2h-.2zm-29.6-5.2h-.1v.2z" fill-rule="nonzero"/><path d="m249.6 161.1c.2-1 .4-1.8 1.5-2 0 1-.2 1.7-1.5 2z"/><path d="m29.4 161.8c-2.3 0-4.4-.5-6.4-1.7l-2.4-1.2c-1.4-.7-2.4-2-4-2.4-.2 0-.4-.3-.6-.4-1-.8-1.5-2-2.8-2.7-1.2-.6-2-1.9-2.9-2.9l-.4-.6c-1.7-3.6-4.5-6.7-5.5-10.7-.7-3.2-1.5-6.4-1.2-9.8v-3.4c-.1-2.7.2-5.4 1-8 .3-.8.6-1.6.5-2.4 0-1.6.5-3 1.3-4.3l5-7.7 1.4-1.6c5.1-4.7 11-8 17.9-9.1 1.4-.3 2.9-.2 4.3-.3 1.2-.1 2.4 0 3.6-.4 3.2-.7 6.2 0 9.3.4 4.2.7 8.2 1.9 12 3.6 1.3.6 2.4 1.4 3.3 2.4.8.9 1.8 1.6 2.7 2.5 1 1 2 1.9 2.7 3 1.3 2 2.3 4.2 3.5 6.3 1 1.7 1 3.6.8 5.4 0 .8-.5 1.4-1.3 1.5-1.2.2-2.4.5-3.6.5-2.2 0-4.3-.3-6.5-.4l-2.8.2-4.1.2c-1.8 0-3.1-.8-3.8-2.6-1.2-3.2-4-4.8-6.8-6a12.4 12.4 0 0 0 -11.4.7l-1.9 1.1a5.7 5.7 0 0 0 -2.6 3.4l-1 2.6-2.3 1v1.8c-2.5 1.3-2.5 1.3-3.1 3.4 1 1.9 3.4 1.4 4.5 3v1c-1 3.4.1 6.8.5 10.2a14 14 0 0 0 2 5.2c.3.5.7 1 1.1 1.2 2.1 1.3 4.2 2.5 6.7 2.6h7a5 5 0 0 0 2.5-.8 11 11 0 0 0 4-4l1.1-1.7a3.6 3.6 0 0 1 3-1.8l5.5-.7 1.5 1.6c.9.6 1.6 1.2 1.6 2.4 0 1 .9 1.8 1.9 2 1.3.4 2.5 1 3.4 2.2.3.4 1 .5 1.4.9l1.6 1.4-.7 1.4-3.7 4.7-3 2.8c-5 3-10.3 5-16 6.2-1 .2-2 .3-3.1.1-1.4-.2-2.7 0-4 0-3.7.3-7.3 0-10.7-1.3.6.3 1.2.2 1.8-.5-.3-.4-.4-.9-.8-1-.3-.2-.9-.2-1.2 0-.5.2-.4.7 0 1.2l.2.3zm-5.4-52.1c0-.1.2-.3.1-.4 0-.2-.3-.2-.4-.3v.4l.4.2.8 2 3.2-1a5.3 5.3 0 0 0 -4.1-.9zm36.2 5.9.8.4.5-.4-.7-.6zm-11.2-16.8-.2.3v.4l.3-.3v-.4zm-23 57.7-.6.6c0 .3.2.5.4.7l.5-.6-.4-.7zm27-50.5c0 .3-.2.5-.3.7l.1.4.5-.4-.2-.7zm-31.3 48.8c.2-.2.4-.4.3-.6l-.4-.3a1 1 0 0 0 -.4.5zm41.2-7c0-.2 0-.3-.2-.4h-.1v.4zm-43.8.7-.1-.4h-.4l.2.6zm34.6 2.5c.1 0 .3 0 .3-.2v-.4l-.5.2zm-35.6-40-.2-.4-.1.1v.4l.3-.2zm16 43.8.3.3.1-.2-.2-.4z" fill-rule="nonzero"/><path d="m69 142.1c-.4.7-.4 1.7-1.3 1.6-1 0-.8-1.1-1-1.9l.2-.4c.9-.6 1.5 0 2 .7zm1.2-4.2c1.3-.2 2.2 0 2.8 1.1-1.8 1.5-2.1 1.4-2.8-1.1zm-44.7-16.5v2.7c-1 .2-1.3-.2-1.4-1-.2-1 .5-1.4 1.4-1.7zm39 18c-.6-.4-.8-.9-.3-1.4 0-.1.6-.1.8 0 .3.3.1.6-.5 1.4zm6.3 6.7c0-.3-.2-.7-.1-1 0-.2.4-.3.6-.5 0 .2.3.4.3.5 0 .4-.2.7-.3 1z"/><path d="m85.3 101.2-1.4.4c-.8.1-2.2-.3-2.5-1-.4-1.6-1.2-3.1-.9-4.9.2-1.3.5-1.6 2-1.7l6.2-.4 8.2-.2h1.4c0 .2.2.3.2.3-.5.6-.3 1.2.2 1.7l1.4.9-.5-1.5c0-.2.1-.5.3-.5.1-.1.4 0 .6.1l.3.6c.3 2 .7 4 .7 6 0 2.5-.4 5-.6 7.4v1.2c.2 1.6.4 3.2.3 4.8l.3 8.4c.2 2.2.3 4.4-.2 6.7-.5 1.9 0 4 .2 6 .1 1.4.2 2.8-.1 4.3-.6 3 0 3.8 3 4l4.2.1v.8c0 1.8 0 1.8 1.6 2.4.9.4 1.8.7 2.3 1.7s1.6 1 2.6 1.4c.5-1 .3-1.7-.1-2.5-2.4 0-3.6-1.4-4.2-3.7 1.6-.2 3 0 4.5 0 .7 1 1.2 1.9.6 3l1.3.3.4 11.1-1.3.8-.3 1.6c-.2.1-.4.3-.7.3h-4.6l-5 .5-2.2.1-6.8-.1c-1.2 0-2.3-.3-3.5-.3h-4.7c-.4-.6-.4-1.6-1.6-1.5l-.7 1.5c-1.2 0-2.5 0-3.8-.3-1.4-.2-1.8-.8-1.8-2.1 0-4.2-.5-8.4 0-12.6v-2.3l3.8-.7 2 2.6c.8 1.1 1.8 1 2.5-.3l1-2 .7-.5c.8 0 1.6.2 2.3.3l2 .2c-.5.4-1 .7-1.3 1.1l-.5 1.2c3.1 1 3.6 1 4.1.3l-.3-1.5-2-1-2-.2c.5-1.1-.4-2-.7-3 0-.2-.6-.3-1-.5-.1.3-.4.6-.3.7.2.9-.2 1.3-1 1.7-2 1.3-2.7 1.2-4.1-.8-1.2-1.7-1.7-1.8-3.8-1.1-.4.7-.1 1.8-1.3 2.2-.6-2 .5-3.5.8-5.4-1-.8-1-2-1-3.2-.2-2 .3-4 0-6.1-.3-2 0-4 0-6 .2-2.1.2-4.2.5-6.3.2-1.6.8-3 2.9-3l1-2-.5-.5-1.4-.4c-1-.2-1.8-1-1.8-1.7-.1-1.9-1-3.6-.5-5.5.8.4.8.4 1.5 1.6 1.5-.6 2.8-1.3 3-3 1-.3 2-.4 2.8-.8.3-.1.5-.7.7-1-1.5-.8-1.5-.8-2.8-.4zm-3.2 32.6.8 1c.2.2.4.5.6.5.4 0 1 .1 1.3-.1.4-.2.8-.6.4-1.2v-.9c-.2-.8-1.2-1.3-1.9-.8zm13.5-34.3c-2.6-.6-3-.3-3.8 3.2 1.2-.7 2.3-1.2 3.3-2 .3-.2.3-.8.5-1.2zm-10.2 16.5c.8.3 1.7.3 2.5 0 .6-.3 1-1.3.7-1.9s-.9-.5-1.5-.4c-1 .4-1.8 1-1.7 2.3zm14.9 31.1-1.9.1-.5 2c1.4.8 1.4.8 1.8.5.9-.6.7-1.5.6-2.6zm-6.3-25.6-.1 2.2c.8-.3 1.5-.5 2-.9.3-.1.3-.8.2-1.2 0-.3-.5-.6-.9-.6-.3 0-.7.3-1.2.5zm-1-6.9-1-1.7-1.6.7c.6 2 1 2.2 2.6 1zm4.6 11.9c-.2.9 0 1.4.7 1.4l2.2-.1-.6-1.9zm-.9 2c-2-.4-2.4 0-2 2 1.7-.2 1.7-.2 2-2zm18.8 27.5c-2 0-2 0-2.4 1.8.7 0 1.3 0 2 .2zm-26.5-18.2c-1.1-1.3-1.6-1.6-2-1.1-.8.8-.1 1.4.4 2.1zm-7.3 11 1.7 1.4c.4-.8 1-1.5.2-2-.7-.6-1.3-.4-2 .7zm17.1-31.6c-.8 1.8-.8 1.8.3 2.7l1-1.6zm-7.5-6.6-1.4.6c-.8.6-.7 1 .6 1.7zm1.3 22.6-1-.4c-.5 0-1 .3-.9.9 0 .2.5.5.7.4zm18.4 19.6-.5-.5-1 .8.5.6 1-1zm-19.4-3 .7-1.3c0-.1-.4-.5-.6-.5-.5 0-.9.4-.8 1 0 .2.4.4.7.8zm-4-27.8-1.6.8 1.5 1v-1.8zm2.7-3.3v.4c.3.1.5.4.8.4l.5-.3-.6-.5zm12.5 35c.5-.7.9-1 .8-1.3-.1-.7-.7-.6-1.4-.3zm4 3.7.6-1c0-.1-.5-.6-.6-.5-.3.2-.6.5-.7.8zm-2.6-12c-.7-.3-1-.5-1.3-.5-.2 0-.5.4-.6.6l.5.6zm-12.9-50.4c0 .1 0 .2-.2.3l.4.6c.2.2.5.2.8.3 0-.3 0-.6-.2-.8zm-7.8 62h-.2l-.6.9.2.1.7-.8v-.1zm24.3-8.2-1-.4s-.3.4-.2.5c0 .2.3.3.5.3zm-10.3-36.9.4-.3-.7-.9-.3.3.6 1zm-5.4 13.7-.4.3.4.4.3-.2c0-.2-.2-.3-.3-.5zm-8.8.3-.3.2v.4l.5-.2zm4.7 27.1-.2-.4h-.8l.3.6.6-.2zm11-19.6.3.3h.4l-.3-.5zm-8.5-8.6-.3.3c0 .2.2.3.3.4l.4-.1zm4.1-10.7-.3.5.6.5.3-.3zm-2 16 .1-.4-.3-.2-.2.5zm10.2 30.9.5-.6-.4-.6z" fill-rule="nonzero"/><path d="m80.6 110.4c-.1.6 1 1.1.1 2.1-.5-.8-.3-1.5 0-2.1z"/><path d="m301.7 98.4c.6-.2 1.3-.3 1.8-.6 1-.7 1.8-.5 2.6.2 3.3 2.6 5.1 6.1 5.8 10.2v2c-.3.9-.7 1.8.4 2.5.2 0 .2.4.2.7v4.3c0 .3-.5.5-.9.8.2.4.7.8.7 1.4s-.2 1.2-.4 1.8l-1.5 3.6a14 14 0 0 1 -5.1 5.7l-2.1 1.2c-1.8 1.1-2.1 2-1.2 3.8.5 1 1.3 2 2 3 .4.6 1.1 1.2 1.5 1.9 1.2 2.8 3.3 5 5 7.6l.1.2c2.7 2.2 4.3 5.3 6.2 8 .8 1.2 1.7 2.4 1.3 4-.6.9-1.6 1-2.6 1l-3.1-.1-5.8-.3h-1.2c-2-.6-4-.5-6-.1s-3.8-.4-5-2.1l-5.5-8c-.5-.8-1-1.7-1.7-2.4-1.9-1.8-3.2-4-4.3-6.4a10 10 0 0 0 -2.8-3.8l-1.1-.7c-1.4 2.6-1.3 5.4-1.4 7.9-.8.3-1.5.4-2 .8-1.8 1-3 .9-4.3-.9l-.3-.4c-1.4.4-1.4.4-2.5-.8l-3.7 3.1c-.8-.7-1.9-1.3-2-2.8-.1-.3-.8-.6-1.5-1.1l.2 1.8-4.2.8c.4-1.5.5-2.7 2.1-3.2l-2-1.3c-.6-2-1-4-.1-6 2.1 1 2.1 1 2.1 3 1.5.3 2.1 1.9 3.8 2.2 1.4.3 2.8 1 4.5 1l1-1.8c.6-.3 1.2-.2 1.7.3l1.2 1.4 1 1.6c.8-.4.8-1.1.7-1.9 0-.5-.1-1-.8-1.3-.9-.4-1-1.4-1.2-2.2v-1.8c-1-.3-2.3-.2-2.4-1.6-1.1-.6-1.8-1.6-2.9-2.2-.8-.5-2.2.4-2.6 1.5-.6 1.7-.6 1.7-2.4 2-.7-1.6-.7-1.6-.6-3.9l2.4-.9c1-1.1.4-2.2.2-3.3h.5l.3-.3v-.2c-.2 0-.4 0-.6.2l-.1.4-3.2-.8c-.6-2-.6-2-2.8-2.2l-.2-.5c.7-2.6.2-5.2.3-7.9.1-2 .4-4 .4-6s-.4-4.1-.5-6.2v-3.1l.2-3.4v-2c.2-1 .7-1.7 1.9-1.9 2.6-.5 5.3-.4 8-.3 3 .2 6.2.2 9.3.1 3-.1 5.8-.5 8.7 0h1c3.1-1 6.1.5 9.3.5.2 0 .4.2.6.4-1.5 1.6-2.5 3.8-5.2 3.7-.2 1.3-.2 2.6-1.4 3.3-2.3 0-2.3 0-3-2.2l1.1-1.9 2-.6c-.4-1-1.3-1.2-2-1.5-.9 1.2-1.4 2.6-3.1 3.2-1 .3-1 1.6.2 2.1 1.8.8 3.3 2 4 4.2l1.8-2.5-1-.8c.7 0 1.5.2 2.3 0 1 0 1.8.3 2.5 1 1.1 1.3 2.4 1.3 3.7 0 .9-.9 1-.9 3-.9.4-.5-.4-1.3.4-1.9.5-.3.7-.9.3-1.5zm-23.2 22.6 2.7.4c2.6.2 4.8-1.2 7-2.2.4-.2.6-.7.8-1.2.6-1.5.8-3 .8-4.7 0-1.6-.6-3-2-3.8-2.3-1.2-4.6-2-7.2-1.7-2.3.3-2.7.7-2.6 3l.1 7.6c0 .8.3 1.6.4 2.6zm12.8-7.1c-.7.4-1 1-1.1 1.8-.1.4.6 5 .8 5.3.6.6.7 1.4.6 2.2l.1 1.3c2-.4 2.3-.6 2.5-2.3.1-1 .6-1.5 1.4-1.8l2-.4 1.7-3.4c1 .1 1.9.2 2.6-.4l.5-1c0-.5-.4-.8-1-.8h-.9c-1.5-.3-1.5-.3-2.2 1.2 0 .2-.1.6-.3.7-1.6.9-2.5 2.4-3.6 3.8-.6.9-1.2 1-2.3.4-1-.4-1.1-.7-1-1.9l.7-3c.1-.7.2-1.3-.5-1.7zm3.2 12c.7.8 1 1.3 1.5 1.7.3.2.8 0 1.3 0l-.1-2 2.5-.7-.3-1.2zm-3.8 1.6 2.2 2.6c.8-1.2.8-1.2-.2-2.8zm11.2-25.5c1 2 2.3 1.3 3.7 1.5-.9-1.5-2.1-1.4-3.7-1.5zm4.5 11.2.4-.3-1-1.4c-.4-.2-1-.1-1.4 0-.2.1-.3.6-.4 1zm-33-17.2-.4-.3-2.2 1.5c1.2 0 1.8 0 2.4-.2.2 0 .2-.7.3-1zm34 17.4c0 1.5 0 1.7.8 1.6.3 0 .6-.4 1.1-.8l-1.8-.8zm-11-3.4-.8 1.7 2-.3zm-18-10.6c-.6-.8-1-1.1-1.5-.7-.2.2-.3.6-.2.8.4.8 1 .5 1.5 0h.1zm2.5 3c-.2.5-.5.9-.4 1l1 .5s.3-.4.2-.5c-.1-.3-.4-.6-.8-1zm19.3 26.5c-.3 1-.7 1.5.2 1.7.2.1.5 0 1-.1zm-19.6-33.9c0 .5-.5 1 .3 1.3.2 0 .6-.2.7-.4.2-.9-.3-1-1-.9zm35.7 64.3c-1.2.3-1.2.3-.4 1.4zm-23.9-52.3.6.4.5-1-.4-.2zm16.9 45.6c-.3-.2-.4-.5-.6-.5s-.3.3-.5.4c.2.2.3.4.5.4zm-17.4-12.2.4.1.1-.3-.4-.2zm15.4-18.6c.1 0 .3 0 .3-.2v-.4l-.6.3zm-18.7 8.7.2-.4h-.4v.2zm-23-5.1v.8l.3-.5zm46.9 31-.1-.3-.2.3.2.1v-.2zm-8.2-.2.6.3c.1-.1.3-.3.2-.4l-.5-.3zm-31.6-23.8.4-.5-.3-.2-.5.4zm-15.2 18.6 2.6 1.1c0 1.1.4 2.4-1.1 3 .6.7 1 1.4 2.2 1s1.6 1.2 2.8 1l-.2.6c-.3.1-.6.5-.9.5-1.2-.1-1.5.7-1.7 1.9.4.1.8.4 1.3.7l-.2.3-1.9.2c-2.2.1-3.1-.6-3.4-2.7v-1.6l.2-5.3.3-.8zm.6 5.6-1 1.1c1.1.2 1.1.2 1-1z" fill-rule="nonzero"/><path d="m301.7 98.3-3.5-.1c-.5.9.7 1.7-.2 2.3l-2 1c-1.8-1.4-2-2.7-.3-3.8 1.3-.8 2-2 3-3.2l4.5 1.6-1.5 2.3zm-23.9 55.3c.4 3.8.3 4.6-1.4 7.4l-2.5.1h-2.4c0-1.4.7-2.3 1.8-2.6.9-.3 1.4-.8 1.7-1.6.5-1.4 1.7-2.2 2.8-3.3zm-16.4-6.4 2 .8c.6.4.6 1.1.4 1.7-.3.7-1 1-1.6.8-.4-.2-.9-.6-1-1zm-3.4-18.7c1 0 1.6.9 1.6 1.9 0 .6-.5 1.4-1.1 1.5a1 1 0 0 1 -.8-.3c-.7-.8-.6-1.8-.3-2.7 0-.2.5-.4.6-.4zm9.2 23.4c.5 1 0 1.7-.6 2.4-1.3.2-1.8-.7-2.4-1.6.8-1.3 1.9-1.3 3-.8zm.5 9.1c-.5.2-.8.3-1.1.2-.7 0-1.4 0-2.2-.2-.3-.7-.4-1.4.3-1.9.7-.4 1.5-.1 2 .3.4.4.6 1 1 1.7zm1.5-9.8c-.3-.6-.6-1-.7-1.5-.2-.6 0-1.2.7-1.3a2 2 0 0 1 1.4.3c.2.2.1 1 0 1.3-.3.4-.8.7-1.4 1.2zm8.6-4.1.2 2.9c-1-.4-2.1-.2-2.2-1.5 0-1 .8-1.3 2-1.4zm-10.5-8.1c-.3-.4-.7-.8-.6-1 0-.3.4-.5.7-.8.2.3.6.5.7.8 0 .3-.5.6-.8 1zm-.8-3.5.3.6c0 .2-.4.4-.5.4l-.5-.6zm3.6 22.4-.5-.5.4-.4.6.3z"/><path d="m392 157.6h-1.3l-.2 1.3c-.3.2-.6 0-.9.1l-.7.5a1 1 0 0 1 -.7 0c-.5-.2-.9-.6-1.5-.5l-.3-.2-1.5-1.5-.4-.5c.2-.8 1-1.2 1.4-1.8-.5-.5-1.3.2-1.6-.7-.3.5-.8.5-1.3.5h-1c-.4.4-1 .4-1.2.7-.3.4-.7.2-1.1.2-.2.1-.4.3-.3.5l.1.4c.9-.1.7.7 1 1l.3-.6c0-.3-.1-.7.2-.8h1c.2.5.8.3 1 .7 0 1 0 1-.8 1.4.2.4 1.1.1 1 1l.3.2c.1 0 .4 0 .4-.2.3-.3.7-.3 1-.3l.4.2c0 .8.7 1.3.6 2 0 .3-.2.6-.3.6-.6 0-1 .3-1.5.4-.4.2-1 .1-1.6 0-.5 0-1 .2-1.5-.3h-4a4 4 0 0 1 -2.5-.6c-1.1-.5-1-.6-1.8-1.7-.2-.4-.2-.9-.6-1.2s0-1-.4-1.3 0-.9-.2-1.3l-.6-1.8a16 16 0 0 0 -1-2c-.1-.2-.4-.3-.7-.5-.6-.3-.6-.3-.3-1l.2-.2c-.5-.2-.9-.3-1.3 0-.8.6-1.7.9-2.7.8h-2c-.5 0-1.1.2-1.6-.4-.2-.2-.8 0-1.2-.1h-1l.5-1-.2-.4-.2.2c-1.3.7-1.3.7-2.5.7-.5 0-1.1-.2-1.5.4l-.2.1h-2.3c-.5.8-1.3.4-2 .5h-3c-.3 0-.5 0-.8.2l-.7.4c0 .6-.8 1-.6 1.6 0 .5 0 1-.5 1.2.3.7-.7.9-.5 1.5.3.6-.7.8-.4 1.4l-1 2.4c-.8.6-1.2 1.5-2.2 1.7-.2.3-.6.3-1 .3-.6 0-1.3-.2-1.8.2-.5.3-.7.4-1.2 0-.1-.2-.5-.2-.8-.2h-14.4c-.2-.1-.1-1.1 0-2.1 0-1 .5-1.4.6-1.6 0-.3.3-1 .5-1.4.2-.5 0-1 .3-1.6l.4-1c.8-.8.1-.7.5-1.5l1.4-2.6c.2-.6-.3-1.2.2-1.8.4-.4.1-1 .2-1.5.8-.3.2-1.3.7-1.6.5-.4 0-1.1.5-1.5.3-.3.1-.7.2-1 .2-.4.6-.7.5-1.2 0-.4.3-.7.4-1v-.5c0-.5.1-.8.5-1.2.2-.3-.2-1 .3-1.3s0-.9.4-1.2c.2-.3.2-.7.5-1s.2-.9.6-1.1c-.1-.9.8-1.5.5-2.4-.2-.6.7-.8.6-1.4-.2-.5-.1-1 .4-1.5-.3-.8.8-1.4.5-2.3v-.5c.7-.3.2-1.1.7-1.6.3-.4.5-.9.6-1.3.1-.5 0-1 .5-1.2v-.3c.1-.5-.1-1 .4-1.5.3-.3 0-.9.1-1.3.3-.5.6-1 .5-1.7.7-.3.2-1 .5-1.4.4-.4.2-.9.4-1.2.3-.5.6-1 .5-1.5.5-.3.5-.9.4-1.4v-.5c.8-.3.4-1 .7-1.6.4-.7.7-1.4.9-2.2.2-.7.9-1.3.8-2.2 0-.3.5-.4.5-.8s.3-.3.6-.5c.3-.1.6-.4.7-.7.2-.3-.3-.6-.3-.8-.1-.5 0-1 0-1.6.5-.3.3-.8.4-1.2v-.6c.8-.4.1-1.3.7-1.7.2-.1.2-.5.4-.7l1.3-1.4c.2-.1.6-.1.8-.3.2-.3.5-.3.8-.3h8.7c.4 0 .7.2 1 .4.4.2 1 0 1.5 0 .3-.5.8-.4 1.3-.4h9.1c.6 0 1 .4 1.5.5h3.2l.6.3 1.4.6c.6.3 1 .7.9 1.4v.2c.8.4 0 1.4.8 1.8 0 .6 0 1.3.2 1.8l.5 1.7.8 1.5c-.2.6.4 1 .5 1.4 0 .4.4.5.4.8v.7l-.7-.5-1 1.2.8 1v.8l.7.7c.2-.2.3-.4.5-.4l.6.1v.7l.1.7c.7.4.2 1.2.6 1.6.6.5 0 1.4.8 1.8-.3.7.5 1.1.4 1.7 0 .7.8 1 .5 1.7 0 .3.4.5.4.7 0 .6.7 1 .6 1.7 0 .5.6.8.5 1.4 0 .3.3.6.4 1v2c.8.4.2 1.4.8 1.9.4.3.4 1 .7 1.5.3.4.4.7.4 1 0 .5.1.9.4 1.3.2.3-.1 1 0 1.3.4.4.5.8.7 1.2.3.4.6.8.7 1.3s0 1 .5 1.2v.3c.1.5-.2 1 .3 1.5.4.3.1.9.2 1.3 0 .5.6.7.5 1.2-.1.4-.2 1 .3 1.3l.1.4c-.2 1 .8 1.8.5 2.8l1 2.1c.2.3.4.5.4.9s-.2.8.3 1.2c.4.4 0 1 .1 1.4v.2c1 1 1 2.5 1.7 3.5.3.4.4 1 0 1.3-.4.4-.2 1-.2 1.5-.2 0-.4.1-.5.3v.6zm-27.1-21.6c0-.8-.2-1.5 0-2 .1-.7-.5-1.1-.5-1.7s0-1.2-.5-1.7c.2-.7-.5-1.2-.6-1.9 0-.2-.3-.4-.3-.5.2-.8-.8-1.3-.5-2.2-.6-.3-.5-.9-.4-1.4 0-.6-.7-.8-.5-1.5v-1.3c0-.6-.7-.9-.5-1.5 0-.3-.4-.6-.4-1s0-.9-.5-1.2c.2-.6-.8-.8-.5-1.4-.5-.2-.4-.8-.7-1.1l-.7-1.4c-.3-.6-.6-.7-1-.2-.5.4-.4 1-.9 1.4.1.5-.2 1-.4 1.4-.1.5-.2 1-.5 1.4.2.9-.7 1.5-.5 2.4v.4c-.6.4-.5.9-.4 1.3.1.6-.5.7-.5 1.2 0 .4.2 1-.2 1.3-.5.5-.2 1-.3 1.5v.3c-.5.3-.6.7-.4 1.2.2.6-.6.9-.5 1.4.1 1-.8 1.8-.5 2.9-.7.4-.2 1.3-.7 1.8-.3.2-.4.7-.6 1.1-.3.5.5.8.5 1.4 0 .4.4.7.6 1.1h9.8c1 0 1.6-.4 2.3-.8zm14.1-3.6 1.3-1.2v-1.4c0-.5-.2-1 .2-1.7h2.6v-1.4c-.3-.5-.6-1-.5-1.6l-.6-.2c-.4.4-.7.5-1.2.5a5 5 0 0 0 -1 0l-.4.2v1.3l-.3.3h-1l-.9 1c-.3.4-.3 1-1 1-.1.6-.5 1-1 1.5v.1l.2.6c.3 0 .5.2.8.3.2.2.6.1.8.2l1 .5zm-6.3 1.9c-.5.2-1 .4-1.3.7-.4.4-1-.2-1.4.5.2 0 .4 0 .6.2.2 0 .4.2.1.4l-.1.2c-.2.3-.1.6.1.7s.6 0 .7-.3l.3-.7.3 1c.5.2 1.2-.2 1.7.3 0 .3 0 .6.4.7.3 0 .6-.1.6-.5s0-.7.3-1 .2-.6 0-.8l-.6-.5h-.9zm-25.6 6.8v-1.1l-.3-.6c-.6.1-.8-.4-1-.7a1 1 0 0 0 -1.3-.2c-.4.2-.9.5-.7 1.1.1.5-.2.7-.5 1l1.2 1.1c.5 0 1 .2 1.4 0 .3-.3.7-.4 1.2-.6zm-18.5 6.2c.4-.6.5-1.4 1.5-1.5l.1-.3.2-.4c.2-.1.5 0 .6-.2.3-.4-.2-.4-.3-.7-.2-.5-.5-.7-.9-.6l-.4.1c-.3.5-.8.3-1.3.4-.6 1-1 2-.6 3l.2.2h1zm6.2-5.6.1.6v.7l.7.1c.4-.8 1-1.5.7-2.5-.1-.3-.5-.5-.8-.7-.1 0-.5 0-.6.2-.5.6-.8-.2-1.3-.1-.1 1.5-.1 1.5.1 1.7h1zm2.9 2 .1.7c.3.4.7.6 1.2.7l.1.4c0 .3-.1.4-.4.4l-.6.2c.9.5 1.7 1 2.8.7l.5-.6c.1-.2.2-.6-.2-.7l-.5.5c-.2.2-.4.5-.8.4-.5-.2-.3-.6-.3-1l.2-.4h.9l.2-.3-.1-.2c-.5 0-.5 0-1.5-1h-1.1l-.5.1zm30.9-35c.2-.6 0-1.2-.7-1.5-.4-.2-.7.1-1 .4h-.1c-.8-.1-1.3.5-2 .7.5.4.7.8 1.3.7.6 0 1.3-.2 1.8.4l.7-.6zm5 38.6.4-.5.2-.6c0-.2-.2-.3-.5-.3h-1.1c-.5-.7-1.3-.4-2-.4v.3l.1.1c.4.1.8-.1 1 .1.3.5 0 1 .4 1.3h1.4zm11.8-2c-.5-.3-.6-.4-.7-.2-.5.5-1.1.7-1.7.8-.7 0-1 .4-1.3.8.5.4 1.3-.2 1.6.6l2-2zm-6.3-6h-.4c-.7.1-.8.3-.7.9v.2l.7 1.3h.4c.7 0 .8-.2.7-.8v-.2l-.7-1.3zm-41.3-3s0 .3.2.3c.4-.1.6.2 1 .4.2.2.5 0 .6-.3.1-.8-.5-1.3-.7-2h-.5c-.3.4-.8.7-.6 1.5zm13.8-32.5.3.9c.5 0 .3-.4.3-.6 0-.4.2-.7.5-1-.4-.1-.7-.2-1-.5-.2 0-.2-.2-.3 0-.2.5-.9.2-1 .5-.1.5-.9 0-1 .7zm30.2 32.6c.8.2.8.2 2.2-.6-.5-.4-1-.8-1-1.6-.7.6-.7.7-.8 1.4zm-46-6.5-.2-.3c-.2-.1-.5 0-.6-.2-.3-.4-.7-.3-1-.3-.2 0-.4 0-.4.2v.6c0 .2.3.3.5.5s.5.2.7 0c.2-.3.5-.4.8-.4zm38-26.2c-.3-.5-1-.7-1-1.5l-.3-.2c-.4 0-.8-.1-1.1.3l1 .4c0 .4-.2.7.2 1.2.3-.2.7.2 1.1-.2zm-22.2 43.6c.2-.6.2-1.2 0-1.8-.9.1-.6 1-1.1 1.5-.2 0-.2.2 0 .3zm-10.6-21v-1c0-.2 0-.5-.4-.3l-.5.3c-.5 0-.5.3-.5.6 0 .5.4.4.7.4zm3.3-14.7v-.3c0-.2-.2-.4-.4-.4-.3 0-.6 0-.6.5v.6l.4.3.6-.3zm10.3-6v1.3l.3.2.1-.2c0-.5 0-1 .5-1.4 0 0 .1-.5-.3-.6l-.6.6zm-10 8.6-.7 1c-.2.3-.2.6.1.8l1.2-1.1-.7-.7zm-1.6 1.8c-.5 0-1 .4-1 1v.3c.3.2.8.1.8-.1 0-.3 0-.6.4-.8.2-.1.2-.2 0-.3h-.2zm1.5 16.8.6-.5c.2-.3.2-.7 0-.8h-.7l-.6.6zm13.3-24.4c0-.3-.4-.4-.5-.6l-.2-.2h-.4a1 1 0 0 0 -.3.6l.3.3c.3 0 .7.2 1 0zm30.2 46.6c.5-.5 0-1.3.6-1.6 0-.2 0-.4-.1-.3l-.6.1c-.2.6-.2 1.2.1 1.8zm-48.2-25.3-.7.8.1.4.4.2c.3 0 .4-.1.4-.4s.2-.7-.2-1zm1.2-9.6.5.5.2.2h.4l.3-.6-.2-.3c-.4 0-.8-.2-1.2.2zm5.7-14 .7 1.2c.2-1.8.2-1.8-.2-1.9l-.5.6zm15.4-2.6-.3-.4h-1v.2c.1.3.3.5.6.7.2.1.6-.1.7-.5zm-14.1 16.5c.6.3.7.3 1 0 .2-.3.7-.6.3-1l-.2-.1-1.1 1zm-8.2 3c-.4.4-.2.9-.1 1.3 0 0 .4.2.6.1.2 0 .2-.2 0-.4zm1.4-1.4c-.4.4-.2.9-.1 1.3l.6.1s.2-.2.1-.3l-.6-1zm6.3 6.2c0-.4-.2-.6-.5-.6s-.4.2-.4.5c0 .4.2.6.6.5zm22.3 3.2c-.4.3-.3.8-.2 1.2l.6.2.2-.3zm-24.1-7.3c.7.7 1-.1 1.4-.4-.8-.7-1 .1-1.4.4zm30.4 16.9-.3-.2-.6.6v.6l.4-.1c.3-.3.6-.5.5-1zm-42 14.2c.4-.4 1.2-.7.6-1.4-.3.4-1.1.7-.5 1.4zm49-1.2c-.3-.2-.4-.5-.8-.6-.1.9-.1.9.2 1.3zm-45.8 0-1-.4c-.2-.2-.4-.2-.4 0l.1.6c.4 0 .9.3 1.3-.2zm5.7-34.8c.4-.2.7-.5.8-1l-.2-.3h-.1c-.2.3-.7.4-.6.9zm28.7 36.7c.8.3 1.4.3 2.2 0-.8-.3-1.4-.3-2.2 0zm-32.1-4.2c.8.6 1-.2 1.4-.5-.8-.5-1 .2-1.4.5zm32.5-37.6c-.4.5-.4 1 0 1.4.4-.5.4-1 0-1.4zm-2.1-.3.6.7.3-.2c.1-.3 0-.7-.3-.7zm2.9 6.6c-.2 0-.2-.2-.3-.2h-.6l-.1.7.3.1zm-22.5-11.2-.2-.2h-.6c-.2.2-.2.4-.2.6l.3.2zm-8.7 39-.2.2-.3.3-.1.3.4.1.3-.1c.2-.3.2-.6-.1-.8zm8.2-40.4-.2-.2-.3-.3-.3-.1-.1.4.1.3c.3.2.6.1.8-.1zm-3.7 43.5-.2-.2h-.6c-.2.1-.2.4-.2.6l.3.1zm28.9-8.5.7.6.3-.1c0-.4 0-.7-.4-.7zm-30.6-.2-.1.1-.5.5.1.3.6-.1c.2-.3.2-.6 0-.8zm19.2-20.6-.6.7.1.3c.4 0 .7 0 .7-.4zm-34.7 35.3-.2-.6h-.2c-.2.2-.2 1 0 1.2h.2zm13.7-19.9c-.4.5-.4 1 0 1.5.4-.5.4-1 0-1.5zm23.9-18.7h.1l.4-.4c.2-.2.2-.4 0-.5-.2 0-.5 0-.6.2-.2.2-.2.5 0 .7zm11.9 17 .7.7.2-.1c.2-.4 0-.7-.3-.7l-.6.2z" fill-rule="nonzero"/><path d="m392.5 156.7c.8 0 .9 0 .9.6 0 .7.7 1 .5 1.9-.2.6 0 1.3 0 2-1 .2-1 .1-1-.3.3-.7-.6-1-.4-1.6-.7-.4-.5-1.1-.5-1.7h.6c.2 0 .4-.2.2-.4-.2-.1-.2-.4-.3-.5z"/><path d="m520.5 161.8h-1.8c-1 .8-2 .3-3 .5-.7 0-1.4-.3-1.8.4h-1.8c-.7.8-1.6.4-2.4.5h-2.2l-.9-.5c-.5-.1-1.2.3-1.7-.2-.5-.4-1-.2-1.6-.2h-1.8l-1-.5h-.9c-.6-.7-1.6-.1-2-.6-.6-.5-1.5 0-1.9-.8-.7.4-1.2-.5-1.9-.5-.6 0-1.2-.5-1.7-.8l-1.8-.8-1.7-.9c-1-.4-1.9-.8-2.7-1.3-1-.7-1.7-1.6-2.5-2.4-.7-.8-1.4-1.6-2.2-2.2-.5-.4-.5-1-1-1.4-.4-.4-.5-1-.8-1.3-.5-.8-.7-1.7-1.4-2.5-.6-.6-.8-1.5-1.3-2.2-.7-.8-1-2-1.5-2.9l-.2-.4c0-.5.1-1-.3-1.5-.3-.3 0-1-.2-1.5l-.8-1.3c-.2-.4-.2-.8.2-1.3.4-.4.3-.9-.1-1.4-.3-.3-.4-.8-.6-1.1-.2-.5-.1-1.1 0-1.6 0-.5.5-.9.4-1.5v-1.8-1.7-.4c.6-.5 1.3-1 .8-2h-1l-.2-.5c0-.5-.1-1 0-1.6 0-.6-.3-1.2.2-1.7.4-.5.1-1 .2-1.6.8-.3.2-1.2.7-1.6s0-1 .5-1.4c.4-.3.1-.7.2-1s.5-.6.4-.8c0-.6.4-1 .5-1.4.3-.6.7-1 .5-1.7.6-.3.5-1 1-1.5 0-.2 0-.7.4-.6.3 0 .5.3.8.5 0-.2.2-.5.1-.7-.1-.3-.4-.5-.5-1 0-.5.6-.7.5-1.1l.2-.4 3-3c.4-1.4 1.8-2 2.6-3 .8-1.1 2-1.3 3-2 .2-.1.6 0 .6.5 0 .4.3.5.5.4l1.4-.7c.3-.3.5-.6 1-.7.5 0 .7-.7 1-1l1.4-.8 1-1c.6 0 1.3 0 1.9-.4.4-.3 1.2.3 1.7-.4h1.8c.5 0 .8-.4 1.2-.5s1 0 1.3-.2l1-.3h2.4c.6-.1 1-.6 1.7-.5h6c.7-.2 1.1.3 1.7.5h1.6c.5.8 1.3.3 2 .5.4 0 1-.3 1.5.2.4.4 1 .1 1.5.2l.2.1c.2.5.8.3 1.1.6.4.5 1 0 1.5.5.2.3.8.3 1 .7.6-.2.8.6 1.3.4.5 0 .8.5 1.2.5.8-.1 1.2.4 1.8.6.6.3 1.3.5 1.7 1.1 1.2.3 1.7 1.5 2.6 2.2.1 1 1 1.4 1.6 2 .6 0 1 .6 1.3 1 .3.2.7.4.8.7.1.7.6 1 1 1.5-.2.5.4.7.5 1.2.2.6.4 1.2 1 1.7.4.2.3.6.4 1 0 .5.7 1 .5 1.6.5.4.6 1 .4 1.5-.3.7.5 1.2.5 1.9v2.7c-.5.5-1.2 0-1.6.3-.5.3-.9.4-1.4.4h-12.8c-1 0-2 .4-2.6-.5h-1.9l-1.8-1.8c-.4-.4-1-.8-1.2-1.4-.2-.5-.8-.7-.9-1.2-.1-.8-.8-1-1.2-1.6-.4-.7-1.2-1-1.8-1.3-.6-.2-1.1-.8-1.9-.6-.4-.6-1-.4-1.6-.4-.5 0-.8-.7-1.5-.5h-4.9c-.2 0-.4 0-.6.2-.3.1-.7.2-1 .5s-.7.1-1 .2c-.6.3-.9 1-1.7 1-.7.9-1.6 1.5-2.2 2.4-.4.5-.8 1-1 1.5s-.5.9-.9 1.2c-.3.3 0 .8-.5 1l-.1.6c-.2.7.2 1.5-.3 2.2-.5.6-.2 1.5-.2 2.3v6.7c.1 1.1-.4 2.3.4 3.3.2.2 0 .6 0 1 0 1.3.2 2.7 0 4.1 0 1 .3 1.6.7 2.3l.3 1 .1.5c.6.4.7 1.1 1.2 1.6.7.7 1.3 1.5 2.1 2.1.7.4 1.4.8 2.2 1l.7.5c.2.2.2.4 0 .5h-.5l-.7.7c.4.3.7.3 1 0 .2-.3.5-.4.8-.1.5.5 1 .4 1.6 0l.6-.1h3c.8 0 1.6.2 2.2-.5h2c.9-.3 1.6-.7 2.3-1.2l1.3-.9c.5-.2.8-.8 1.2-1 .6-.5.9-1.1 1.1-1.7.3-.9 1-1.3 1.5-2 .5-.5 1-1.1 1.8-1.3.3-.4.7-.3 1-.3h8.7c.6 0 1.4.3 1.9-.5h1.8c.7 0 1.4-.1 2 .5.6 0 1.4-.2 2 0 .9.4 1.8.8 2.3 1.7l-.1 1c-.1.2-.4.3-.4.7v1.9c-.5.4-.4 1-.5 1.6 0 .4-.3.7-.4 1l-.7 1.4c-.2.5-.7 1-.7 1.5 0 .6-.6.9-.5 1.4-.6.8-.8 2-2 2.3-.3 0-.6.4-.8.7l-2.9 2.8c-.4.5-.8 1.1-1.6 1.1-.4.6-1 1-1.6 1.2-.5.2-1 .4-1.3.8a3 3 0 0 1 -1.3.7c-.4.2-.8 0-1.3.4-.3.3-1 0-1.4.6-.8-.3-1.4.8-2.3.5-.3.6-.7.2-1 0-.2-.2-.5 0-.6.4zm-20.9-12c.2.3.6.6.6 1 0 .3.6.4.8.2v-.6c-.3-.5-.7-.9-1.3-.5 0-.6.4-.8.6-1 .8 0 .7-.6 1-1 .2-.4.2-.5-.1-.5-.4 0-.7 0-1.1.2-.6.4-1.2.8-2 .7l-.2.3.1.1c.8 0 1 .7 1.6 1zm10.5-55c-.2.3 0 .8-.5 1-.3.3 0 .7-.1 1.1.4.3.5.7.5 1.2 0 .2.1.4.3.5l1.3 1.4.2.6c-.1.5.3.9.6 1 .4.3.9.4 1.3 0l-1-.5c.2-.7-.7-1-.5-1.7.2-.3 0-.7 0-1.1-.7-.5-.2-1.3-.3-1.6zm-22 46h2.2c0-.8.6-1 1-1.5l-1-.7a1 1 0 0 0 -.7 0c-.4 0-.8.4-1.2.4-.4-.1-.7-.6-1.2-.5l-.5.3c-.1.3 0 .6.4.7.7 0 1 .6 1 1.4zm-.7 9.4.6.6c0 .6.3.9.7 1.1.6.5.8-.6 1.4-.3l.8-.8c.2-.3.8.1.8-.5l-.2-.1h-4zm45.8-41.3c-.3-.3-.7 0-1-.1-.5 0-.8 0-.9.5 0 .3-.4.6-.6.9-.4.4-.4.5.2 1 0 .2.2.2.3.3.4-.5 1.2-.4 1.5-1l-.4-.8c0-.7.6-.3.8-.6v-.2zm-56.2 19.1c-.5 1 .4 1.4.4 2 0 .4.8.4.8 0 .1-.4.2-.6.7-.7.4 0 .4-.5.1-.8l-.5-.5zm50.4-13.6c.3-.3.3-.6 0-.9-.4-.3-.3-.7 0-1 .2 0 .3-.2.1-.3a1 1 0 0 0 -.4 0c-.3 0-.6.7-1 0l-.3.2-.5.4c.2.3 1.3 1 1.6 1.2.2 0 .3.3.5.4zm-41.7-12.8-.5-.5c-.2 0-.5-.2-.6-.1-.2 0-.2.4-.3.6 0 .3 0 .6.3.8s0 .3 0 .5c-.3.3-.7.4-1 .5l-.2.5c0 .2.5.4.5.3.7-.5 1.5-.9 1.4-1.9zm-6.5 38.2c0-.6-.1-.7-.6-.7h-.6c-.3.5-.9.3-1.1.7v.4l1 .7.7-.4c.6 0 .6-.3.6-.7zm58-25.8c.4-.2 0-1.2 1-1 .3-.3.2-.8.6-1.1.1-.1.1-.5-.3-.7l-1 1c-.3.3-.8.6-.9 1-.2.6-1 0-1 .6l.2.2zm-15.2-17c-.4-.4-.9-.2-1.3-.2-.5-.1-.7.6-1.2.5-.2 0-.2.3 0 .4l.5.5c.8-.3 1.6-.5 2-1.2zm-4.6 7c0-.4-.1-.7-.3-.7l-.6.2c-.6.3-.6.9-.5 1.4 0 .1.4.3.5.2.5-.2 1-.5.9-1.1zm21.2 42.6c0-.2.2-.3.3-.4.5-.6.5-.7 0-1.2-.2-.3-.5-.4-.8-.3-.2 0-.2.4 0 1zm-47.5-28-.7.7c-.2.3 0 .7.5.7.2 0 .6.2.8-.1.2-.4 0-.7-.3-1zm-6.3 4.7c0-.1 0-.3-.2-.4l-.7-.3c-.2-.2-.4-.3-.5 0v.4l.8.7c.1.1.3 0 .4 0zm29.8-20.2-.7-.8-.2.2c-.2.3-.7.6-.4 1l.1.2c.6.2.8-.3 1.2-.6zm-31.2 9.3c1.2.3 1.2.3 2.3 0-1.1-.3-1.1-.3-2.3 0zm1.4 32c-.3-.3-.6-.3-1 0-.2.3-.7.6-.3 1.1h.2l1-1zm-.3-19.3 1.3-.7c-1.8-.2-1.8-.2-1.9.1zm4.8-7.8h-.2l-1 1c.3.4.6.4.9.1s.7-.5.3-1zm-3.1 20.3c0-.1-.2-.3-.4-.3-.3-.1-.5 0-.6.4 0 .3.2.4.4.5.4 0 .6-.1.6-.6zm4.2-10.8c-.8-.7-1 .2-1.4.4.7.7 1-.1 1.4-.4zm8.1-26.3c.3-.4 1.2-.7.5-1.4-.3.4-1.1.7-.5 1.4zm2.7 53.5s.3-.2.3-.4c.1-.3 0-.5-.4-.5-.3 0-.4 0-.5.3 0 .4.1.6.6.6zm-1.3 1c-.5-.1-.7 0-.7.4 0 .3.2.4.4.4.3.1.6 0 .5-.4l-.2-.5zm32.9-4.1c0-.5-.2-.7-.6-.6-.2 0-.4.1-.4.4 0 .4.2.6.6.5.2 0 .3-.3.4-.3zm-50.3-21.3.1.1h.6l.2-.6-.3-.2zm6-3.7-.2-.2h-.6l-.1.6s.2.2.3.1l.7-.5zm28.4-25.6v-.5l-.3-.2-.1.2v.9l.3.2.1-.2zm-30.7 27-.2-.2h-.6l-.1.6.2.2zm12.8 24.7.1-.1.4-.3.1-.4c-.1 0-.3-.1-.4 0h-.4c-.1.3 0 .6.2.8zm24.2-45h-.1l-.4.4-.1.3.4.1.4-.1c.1-.3 0-.6-.2-.8zm-14.7 47.6-.1-.2-.3-.3-.3-.1-.2.4s0 .3.2.3c.3.2.5.2.7-.1zm8-4.2.6.6s.3 0 .3-.2c.1-.3 0-.6-.4-.6-.2 0-.4 0-.6.2z" fill-rule="nonzero"/><path d="m552.2 161.8a4.6 4.6 0 0 1 -1.2-2.4c0-.4 0-.7-.3-1-.2-.2-.2-.8-.1-1 .6-.7.4-1.5.4-2.4v-3c0-1.2.4-2.4-.4-3.4.2-1-.5-2.2.4-3.1v-3.8c-.8-.6-.4-1.4-.4-2.2v-2.3c0-.2 0-.4.2-.4.4-.4.1-1 .3-1.3.5-.3 1-.4 1.5 0 .3.4.4.4.7 0 .4-.3 1-.1 1.3-.2.4-.5.3-.9 0-1.4h-3.4c-.3-.6-.1-1.2-.2-1.7v-1.6-1.7c0-.6.1-1.1-.4-1.5v-4.7l.3-.3c0-.4.2-.9 0-1.1-.1-.4-.4-.6-.3-1v-5.3c.5-.3 1-.2 1.4-.2h1.2c.8-1.1.9-2.4.6-3.8h-2l-1.1-1-.1-.2v-2.8c.8-.4.3-1.3.5-1.9.5-.3 1 0 1.6-.1l2.1-2.1v-1.9c.5-.7 1-.9 1.7-.8l.9-.9h2.5l.8.9c.3.4.8.4 1.2.7l1 1c.8 1 .9 1 1.8.1v-.1c-.4-.7-1.2-1-1.3-1.8 0-.2-.4-.2-.6-.4-.6-.4-1.4-.4-1.8-1.2.1-.2.7-.3.2-.6a6 6 0 0 1 -.5-.5c-.3-.4-.3-.7.1-1l.2-.2c.2-.4 1.2 0 1-1 .4-.2.5-.7.5-1.1h2.3c.2 0 .3.2.5.3.5.2.6.2.8 0l.8-.8h3.4c.6 0 .8.7 1.5.5.4-.1.9 0 1.3.3.2.2.9.2 1 0 .4-.4.9-.3 1.2-.6s.6-.3.8 0l.7.6h.6c.2 0 .1-.4.2-.6l.2-.2h14.2c.8 0 1.7-.4 2.4.4l.3-.2c.5-.3.5-.3.8 0l.4.2c.5 0 1 0 1.5.5l.8 1.4c.2.2.3.5.3.8v3.3c0 .7-.7 1-.5 1.7v5.7c0 .5-.3.8-.4 1.2-.3.8-.7 1.1-1.5 1.1h-16.2c-.7 0-1.5-.2-2.1.5-.4 0-.8.1-1.1-.3l-.4-.1c-1 .8-2 .1-3.2.4l-.6 1c-.3.5.1 1-.3 1.4-.5.3-.2.8-.3 1.3l-.3.6c-.3.3 0 .7-.2 1 .8.7.4 1.7.5 2.5.6.5 1 1.2 1.8 1.3.5.7 1.4 0 1.8.8h4.5c.8-.7 1.8-.4 2.7-.4h2.6c.5 0 1-.2 1.5.3.2.2.8.1 1.1.1h7.4l.6.1c.4.7 1 .2 1.5.5l.6.6v11.3c0 .7-.8 1.1-.5 1.9l-.2.3c-.3.4-1.7 1-2 1h-9.9c-.3-.4.1-.5.2-.7 0 0 0-.2-.2-.3l-.9-1c-.6.4-.7 1-.9 1.4-1.2.3-2.5-.3-3.6.6h-3.6c-.3-.3-.6-.9-1-1-.5 0-.7-.4-1.1-.7l1-1c-.3-.2-.6-.3-1 0 0 0-.3.3-.5.3-.5 0-.9 0-1.2.5-.3.3-.1.7-.2 1l1 1.1c-.4.5-.9.7-1.5.9v6.3c0 .6.5 1.2.6 1.9 0 .2.4.6 1 .6h1.8c.5 0 1-.2 1.5.4.2.2.8 0 1.2 0h14.2c.6 0 1.3-.2 1.7.5h1.4c.4 0 .8 0 1.1.2.6.2 1 .6 1.6 1v4.2c0 .7-.3 1.4.4 2v.6l.1 3.1c0 .6-.5.8-.5 1.3v1.2l-.8.8c-.2.1-.4.4-.6.3-.8-.2-1.3.8-2.2.5h-1.4c-.5-.1-.7.6-1.2.5-1.2-.2-2.5.4-3.6-.5h-9.2c-.6 0-1.2-.2-1.5.4h-2.6c-.4-.6-1-.4-1.5-.4h-12c-.6 0-1.2-.1-1.6.5-.4 0-.9.2-1.2-.3-.2-.3-.6-.3-.7-.2-.3.5-.7.5-1.2.5-.4 0-.8 0-1-.4h-3.5zm19.2-66.1-1-.5c-.2-.2-.5-.3-.7 0-.4.4-1.2.2-1.2 1 0 .4-.7.2-1 .5-.4.4-.4.9-.3 1.3s.5.8 1 .8h1c.8-.5 1-1.3 2-1.4.2 0 .3-.3.2-.5zm-5.7 39-1.6-1.8c-.3.4-.7.4-1 .6l-1 .5c-.3.1-.7.4-.6.8 0 .4.6.9 1.1 1h.5l1 .9c.8-.6.8-1.7 1.6-2zm25.3-37.9 1-1c.6.3.8-.7 1.4-.4.3-.3.3-.5.1-.8l-.2-.2h-3.2l-1.2 1.2c.3.4.7.3 1 .2.9-.1.8.6 1.1 1zm-14 55.6h-.7c-1 0-1.4 0-2-.3-.6-.4-1.1-.2-1.6-.2-.1 0-.3.3-.3.5l.2.4h1.2l1 .5c.3 0 .7 0 1 .3.2.3.8 0 1 .5h.4c-.2-.6.1-1.1-.2-1.7zm-9.3-45.5c0 .6-.5 1.4.7 1.4l.2.3c0 .6.4.8.7 1 .3-.1.5-.4.7-.6v-2l-.3-.1zm-9.2 2.7c.3-.7.6-1.5 1.7-1.3l.2-.1c0-.2.2-.5.1-.6 0-.3-.3-.2-.5 0-.3.3-.6.3-1 0l-.6-.8-1 1.2c.3.5.3 1.3 1 1.6zm26.8 15-1.1-.9c.4-.4.8-.7.3-1.2-.4.4-.9.7-.7 1.3l-.3.6c-.2.3-.3.6 0 .8l.6.1c.6.1.7-.4 1.2-.8zm-6.5-17.2c-.3.3-.7.4-.7 1 0 .4-.4.4-.7.4l-.2.1.2.3c.5 0 1 .2 1.6-.1v-1.6zm-16.4 4.9c.7 1 1.5.8 2.5.5-.6-.3-1.2-.5-1.5-1l-.4-.1zm28.2 38.7.5 1 .6-.7c.2-.3.2-.7 0-.8h-.6zm-38-26.6.6-.1c.2-.1.3-.5.2-.6-.2-.4-1.2-.4-1.4 0 0 .1 0 .4.2.6l.5.1zm14.6-19.2v-.2c0-.3-.2-.5-.4-.5-.3 0-.6.1-.6.5v.7l.4.2.6-.3zm2.1 15c.6 0 .8-.4 1.1-.7v-.2l-.2-.1h-.4c-.3.4-.8.4-1.1.6v.2l.1.1h.5zm-12.8 34.5c-.3.5-.3 1-.7 1.2.7.6 1-.2 1.4-.5zm27.3-53.3v-.2l-.2-.4-.3.1-.5.6v.4l.6.2.4-.3zm-11.4-1.4c0-.5-.1-.7-.5-.7-.3 0-.4.1-.5.3 0 .4.2.6.5.6zm17.3 55.6h.1l.5-.6-.1-.3c-.2 0-.5 0-.6.2-.2.2-.2.5 0 .7zm-26.8-36.6.2.2.3.3.3.2.1-.4-.1-.4c-.3-.2-.6-.1-.8.1zm.7 25.8-.2.2v.6c.2.2.5.2.7.2l.1-.3zm-1.6-38c-.5-.5-1-.5-1.5 0 .5.3 1 .3 1.5 0z" fill-rule="nonzero"/><path d="m555.5 94.6c-.3.5-.1 1-.2 1.4 0 .5.3.8.4 1.2.2.3.3 1-.1 1-.7.1-.8.4-.8 1v.4c-.4.2-.9.3-1.2.6h-1l-.4-.4c-.3.1-.2.4-.2.7 0 .6 0 .6-.6.7h-.7l-.1-.3v-5.6l1.1-1.2c.4-.1.8.1 1.2-.2.1-.2.4-.3.6-.3h5l.1.2c-.4.5-1.3 0-1.6.7h-1.5zm-5 8.7.2-.6h.2c.2.2.2 1 0 1.2h-.2z"/><g fill-rule="nonzero"><g><path d="m578.8 60.1 1.1 1.5 1 1.6a3.7 3.7 0 0 0 3.3 1.8c1.3 0 2.5 0 3.9.2.8.2 1.8-.3 2.7-.3h4.2c1.6 0 3.1.2 4.7.4h.5c1 0 1.5-.8 1-1.7-.2-.4-.6-.8-1-1.1-1-1-1.9-2.3-2.8-3.5l-7-9.8-5.2-7.3a5 5 0 0 1 -.2-.3c-1-1.7-.7-2.8 1.2-3.5l2.1-.7c1.6-.7 3-1.6 4.1-3l.8-.7.5-1c1.4-2.2 2-4.8 2.2-7.4l.2-4c.1-2.2-.3-4.5-1-6.7a13.3 13.3 0 0 0 -8.6-9.4c-1.7-.6-3.5-1-5.4-1.2-1.7 0-3.5-.4-5.2-.5h-4.7c-2 .3-4 0-6 0h-3.1c-.8 0-1.7.1-2.2-.7-.5.3-1 .7-1.4.8-.5.1-1 0-1.6 0-.3 0-.6-.1-.8-.3-.3-.3-.4-.2-.6 0-1.8.5-2 .4-3.7-.4-.6.5-1.4.6-2.2.5h-1.6c-1 0-1.5.4-1.6 1.5 0 .6 0 1.1-.3 1.7v.4c.5.8.3 1.7.3 2.5 0 1.1.1 2.3-.2 3.3.4 1 .1 2.2.3 3.3v20.9 6l-.2 1.2-1-.8-.8.7 1.8 1.5v1.3l.2 4.5c0 .6 0 1.3-.3 2-1.2-.1-.7-1.2-1.1-1.8l-1.4.6v-1.9c.7-.6 1.5 0 2.3-.4l-1.2-2 1-.7c-.3-1-.3-1-1-.6-.4.2-.7.5-1.2.2-.4-1.7 0-3.5 0-5.2 0-.1.1-.4.3-.5.8-.3.6-.8.2-1.2-.5-.5-.5-1-.5-1.6l-.1-5.3v-.7l1-.5c0-.7-.6-.4-.8-1-.2-1.2-.1-2.7 0-4.2h.4c.2.2.5.2.6-.1l-.2-.5-1-.4v-2l1-.4c.1-.7-.5-.4-.9-.6-.3-.8-.2-1.4.4-1.9-.2-.7-.4-1.3-.4-1.8 0-3.7-.3-7.4 0-11v-4.4c0-.4-.2-.7-.1-1 0-1 .4-1.4 1.4-1.7l.7-.2c2.4 0 4.7-.4 7-.1 2.7.3 5.4.2 8.1 0 1-.2 1.9-.3 2.8 0l.8 2.3h.7c.3-.1.5-.4.6-.6l.4-1.6h4.7c.2 0 .4.4.5.4.2 0 .4-.4.6-.4 1-.1 2-.3 3.1-.2l6.9.6c3.7.4 7 1.5 10 3.6 2.8 1.9 4.7 4.4 5.7 7.5a31 31 0 0 1 1.4 5.6 35 35 0 0 1 -.5 11.1c-.6 3.1-2.2 5.7-4.2 8a8 8 0 0 1 -3.8 2.6l-.6.1c-1.5.6-2 1.5-.6 3.1l.5.6 5.7 7.6v2.2l1.4-.4 1 1.5 3.2 4.6c1 1.4 1.7 2.8 2.6 4.3l-1 .2.5.2h.4v-.4c.6.6 1.3 1.2 1.8 1.9.6.7.6 1.4.2 2-.5.7-1.2 1-2.2.6-.3-.1-.5-.2-.8 0-1.6.7-3.3.4-5 .3-.3 0-.6-.2-1-.5-.8-.6-1.2-.7-2 0l-1 .4-3 .1c-.4-.1 0-1-.6-.9-.6 0-.6.5-.7 1h-1.7c0-.4.2-.9-.3-1-.7-.1-.6.4-.7.8h-4.5c-1 0-1.8-.4-2.3-1.2-.4-.7-1-1.3-1.2-2s-.7-1.2-1.2-1.7l.5-1c-.5-.5-.5-.5-1.4-.4l-3.5-5.2c-.6-.8-1.3-1.5-1.3-2.6l-.1-.1c-.7-.3-.6-.8-.3-1.4l-.4-.5c-.8.4-1-.2-1.3-.7l-.2-.6h.7l.1-.3-.3-.1-.4.5c-.8-.8-.8-.8-.4-2.4h-1.2c-.3-.6.4-.6.5-.9s0-.8-.3-.7c-1.2.5-2.5 0-3.7.4l.2-.3c0-.4-.2-.6-.6-.5l-.4.3c0 .3.3.3.5.4h.4c0 .4-.1.8.3.8.5-.1.7 0 .8.5l.5 4c0 .7-.2 1.2-.7 1.6.5.3.8.7.7 1.3v1.9c0 1 0 2-1 2.7l1 1c0 .5-.8 1 0 1.3.1 1 .3 2-.8 2.6l-.1.4.7.6c.3.2.3.5.2.7 0 .2-.4.3-.6.4h-.5l-.3-.4-.4.2.4.2h.3l.3 1c-.8.6-1.8.4-2.6.3-2-.3-4-.2-6 0a24 24 0 0 1 -5.4 0c-1.8-.2-3.5-.2-5.2 0-2.3.1-2.7-.7-2.6-2.6l-.1-4.7c0-2.3-.2-4.6.3-7a3 3 0 0 1 2.5 1.6v6l-.9.6c-.2.8.8.5.9 1l-.5.5v.3h.1c1.4 1.5 1.4 1.5 3.4 1.5h3.2l3.7-.2c1.4 0 2.8-.2 4.3.1.5.2 1 .3 1.6.3.9 0 1.5-.6 1.5-1.4 0-.9.1-1.8-.2-2.6l-.1-.5c-.2-.8.1-1.6 0-2.4-.2-.7 0-1.5 0-2.2v-2.5c0-1.4.2-2.8 0-4.2 0-.6.3-1 .5-1.5v-.2c-.7-.6-.6-1.3-.5-2 .3-1.3.2-2.6.2-4l.1-.7c.2-.7 1-1.1 1.8-.9.5.2.9.5 1.1 1l1 1.6 2.3 4c.9.5 1.3 1.4 1.8 2.2.8 1.4 1.9 2.5 2.7 3.8l4.2 6.6c-.3-.2-.6-.5-1-.6l-.6.1c-.2.2-.2.5 0 .7l.6.2c.4 0 .5-.6 1-.4l.5.9-.8.1c-.5.3-.3.6.2.8l.5-1zm18-47h-1.2l-.2.2.2.3c.4.2.8.3 1.2 0v-.6zm-20.9 45v-.2c-.2-.3-.4-.5-.8-.3l-.2.4c.2.3.5.4.8.3l.2-.3zm-11.1-13.4.4-.7s-.3-.3-.4-.2l-.4.4zm8 7-.4.7c0 .4.1.7.4.7l.4-.3c0-.3-.2-.5-.5-1.2zm-7.5-1.8-.6-.5h-.4l.2.4c.2.1.4 0 .8 0zm-2.9 16.8-.5-.2-.3.3c0 .4.2.4.5.3zm-14.3-.3c0-.1-.1-.3-.2-.2l-.4.1.2.3zm7.7-.6-.3.5.2.5.3-.4zm-.6 0v-.3c-.2 0-.4 0-.5.2l.1.2h.4zm9.9-24-.2-.3-.2.1.2.4zm9 14.5c-.3.3-.3.5 0 .7h.3c.1-.3 0-.6-.3-.7zm-28.8-43.5-.5-.2-.2.2.4.3zm19.6 45.6c0-.2.2-.3.3-.4 0 0-.1-.1-.2 0l-.4.1zm32.8-40.4v.3l.2.1v-.3zm-13.6 48.2-.2-.3c-.2 0-.3 0-.5.2l.3.3zm-39.8-1.9v.1l.2.1v-.2zm21-11.8-.3-.2-.1.1.1.3.2-.2zm-14.6-50.2v.2h.2v-.2zm2.4 64.4-.3-.2-.1.2zm44.9-44.5h-.1v.1h.1zm-53 8.6-.2-.1-.1.1v.2l.4-.2zm55.7 35v.2h.2v-.2zm-4.9-10.3.1-.1v-.4l-.2.3h.1z"/><path d="m572 29.3-.9.5a18 18 0 0 1 -5.3.5c-1.8 0-2.5-.7-2.6-2.5l-.1-5.2.3-4.3-.1-1.6v-1.5c.2-.9.9-1.4 1.8-1.4a23.6 23.6 0 0 1 6.4.8c1.5.1 2.8.6 3.8 1.7a7.3 7.3 0 0 1 2.2 5.4 11 11 0 0 1 -.8 3.8c-.8 2-2.3 3.2-4.2 3.9h-.6l-.7-.5v.1c-.1 0 0 .2 0 .2l.7.1zm-6-8.3v4.8c0 1.4.6 2 2 1.8l3.9-1c.9-.3 1.5-1 1.9-1.8.7-1.2.8-2.4.7-3.8-.1-1.5-.8-2.5-2.2-3.2l-2-.9c-.2-1-.3-1-1-.6-.6.5-.6.5-1.3 0l-.4-.3c-1.3.7-1.8 1.7-1.6 3.1v.7c-1 .8-1 .8 0 1.2zm-1.6-2c-.1.3-.3.6-.2.7 0 .2.4.2.6.3v-.6zm1 2.9c-.3-.3-.4-.6-.6-.6-.2-.1-.5 0-.5.2s.2.4.3.4h.9zm-.3 2.5s0-.2-.2-.2h-.2l.1.3h.3zm7.6-8.2-.1-.1h-.4l.2.2h.3zm-5.8-.9v.1z"/></g><g><path d="m267.8 3.3v1.4c-.4 0-.7 0-1 .2-.4.1-.3.5-.3 1l1.1-.2.4 2v.4c0 .8-.4 1.6-.1 2.5.2.7-.1 1.6-.2 2.3l-1.1.3c-.1 1 1 .2 1.2 1.3-.2.7.5 1.8 0 3 .3 1 .3 2.2 0 3.3.4 1.1 0 2.3 0 3.6l-1.2-.3-.4.7c.4.6 1 .5 1.4.3l.2.4c.3 1.5 0 3 0 4.6.1.2-.1.4-.2.6.1-.2.3-.6 0-.8l-.9-.2-.3.4c0 .2.2.4.3.4l.9.2c.3.8.5 1.5-.6 2 .3.4.6.7.7 1.1v1.2h.1l-1.2.3-.2.2c0 .2 0 .4.2.5.3.2.7.2 1 .3-.7 1-1.4 1.1-2.1.5-.5-.4-.8-1-1.2-1.5l-2.4-4.2c.3-1.2.3-1.3-1-1.4l-3.4-5c-.3-.3-.7-.7-.6-1.2l.5.2c.2.1.4 0 .5-.3l-.1-.4c-.2-.3-.5-.3-.6 0-.2 0-.2.3-.3.5-.2-.2-.6-.5-.7-.8-.3-1-1-1.8-1.6-2.6l-1.9-2.7c-.7-1.2-1.4-2.3-1.9-3.6 0-.2-.2-.4-.3-.4-.8-.4-1-1.2-1.5-1.9-1-1.3-1.8-2.7-2.7-4-.3-.6-.8-1-.7-1.7 0-.2-.2-.4-.4-.6l-.7-.6c-.7-1.1-1.7-1.4-3-1.1-1.4.3-2.9.2-4.4 0l-.1-.5c0-.4-.2-.8-.7-.7-.4 0-.6.4-.5.8l-.1.3h-8c-.7 0-1.3.1-1.7.7l-.8.7c-.4.3-.6 1 0 1.1.8.1 1 .5 1 1v4.8c-.7.3-1.4.1-2 .1-.3.5-.1.9.3 1.1.4.4 1 .6 1 1.3l.5.3c0 3.1.4 6.3.1 9.3-.1.5-.7.3-.8.8 0 .6.6.4.8.8l-.1 1.9-.8-.1-.2.2v.3l1 .6.1 1.2-.3.2c-.4.1-.5.5-.3.7 1 .7.7 1.6.7 2.6l-1-.3c-.6.9-.5 1 1 1.3v23l-1.5 1 1.5.6-.1 2.3-.2 2.4c0 1.1.7 1.6 1.7 1.7h1.7l.4.3c.8 1 1 1 1.7-.2l1-.1c2 0 3.8 0 5.8-.2.6-.1 1.3 0 1.8.1 1.1.4 2 .2 3-.4 0-.5.1-1 0-1.6v-7.5-7.4-2.6c.2-.8-.4-1.7.3-2.4v-.3c-.5-2.2-.2-4.4-.2-6.5l-.1-2.6v-1.5c0-.6.4-1 1-1.2.7-.1 1.3 0 1.7.5l.6 1 1.4 2.9-.3.4c-.3.6-.1.9.6.9h.8c.6 1 1.3 1.9 1.8 3 1 .9 1.6 2.2 2.4 3.3v.4c-.5 1-.5 1 .5 1.1.3 0 .5 0 .5.4 0 .2-.2.6-.3.5-.8 0-1 .5-1.2 1.2-.9-.3-1.1-1-1.5-1.6l.2-1-1.3-.6-1.3-2.2-.8-1.7c-.4-.5-.8-1.1-1.4-1.5-.4-.2-1 0-1.6-.1l-.5.9h.8c.5 1.3.7 2.3.7 4.7h-.8c-.5.2-.8.6-.7.8.2.4.5.6 1 .4h.3l.2.3c0 2.3.2 4.5 0 6.7l-.1.4c.6 2.3 0 4.6.1 6.9 0 2 0 4 .2 6v1.4c-.1.6-.5 1-1 1.3-.6.2-1 0-1.4-.4l-.4-.2c-.3.2-.7.5-1.1.5s-.7-.3-1.1-.5c-.3.4-.6.7-1.2.7-1 0-2-.2-3 .2-.2.1-.7 0-1-.1-.4-.3-.8-.3-1.2 0-.2.1-.7.2-.9 0-1-.6-2.2 0-3.3-.1l-3.6.1-1.5.2c-1 0-1.6-.6-1.8-1.5-.2-.6-.3-1.3-.3-1.9l.1-9.5v-4.1-7.5-4-7.5-4-7.6l-.1-5v-5.2l.4-.2c.5-.3.6-.5.3-.8-.7-.6-.8-1.2-.1-1.9l-.2-.8h.4-.3l-.4-.5-.2-3.2c0-1.4.7-2 2-2.1h1c.5 0 .7.4 1 .7.4-.5.8-.7 1.4-.7.7 0 .8.5 1.2.7.4 0 .3-.7.8-.8.7-.2 1.3.5 2 .1.5-.4 1-.2 1.7-.1l5 .1h3.7l.3 1c.8 0 .4-.7.7-1l.3-.2c1.4.5 2.1 1.5 2.3 2.8l-1.3.6-.1-.9h-.5l.5 1c.2 0 .3.2.4.3.6.4.8.4 1.1-.2l.1-.5c.2 0 .4 0 .5.2l.8 1-.5.5c-.1.2-.2.4-.1.6 0 .4.4.5.7.3.3-.1.6-.3.6.2 2.7 3.1 4.7 6.8 7 10.2l1.9 3-.7 1 2.5 2 .2 1c1.3.6 1.7 1.9 2.4 3-.2.1-.5.2-.6.4l.1.5h.5l.4-.1c0 .2.2.4.1.5 0 .3-.3.6-.5 1.1l1.4.2c.4.4.3 1.3 1 1.6.6 0 .9-.4 1-.9a28.1 28.1 0 0 0 .5-1.5c-.8-.8-.7-1.4.2-2 .3-.2.1-.8-.2-.9-.9-.2-1-.7-.7-1.4l.3-.2c.4-.1.7-.2.7-.7 0-.4-.3-.5-.6-.6l-.4-.2c-.2-.5-.3-1.2 0-1.8s-.3-1.2 0-1.9l1-.8c0-.8-.8-.6-1-1 0-.7 0-.7 1-1.7-.1-.8-1.6-.8-1-2.1l1-.6-.6-.9c-.7-.5-.7-1 .1-1.6.1 0 .2 0 .3-.2l.2-.4-.7-.5c-.5-.5-.6-1 0-1.5l.7-.8-1.2-1.6 1-.4.4-.7c0-.2-.4-.4-.7-.5l-.5-.1c-.4-1 .2-1.6.5-2.3.3-.5 1.4-.7 2-.5.7.2.3.8.5 1.2l.3.2.3-.1.1-.6c.1-.3.3-.5.7-.5.3 0 .7-.1.9.4 0 .4.3.7.7.6.5 0 .6-.4.7-.8 1.2-.7 1.3.7 2 1l1-1.2c2.1 0 4.2-.4 6.3 0 1 .2 2 0 3 0h1.3c1.3.2 1.8.7 2 2v5.3c0 .9 0 .9-.7 1.7l.5 1.2c0 3.1.3 6.2.1 9.3v18.3c0 1.9.2 3.7 0 5.6-.2 2 0 4 0 6 0 1.9.2 3.8 0 5.7-.2 2.2 0 4.3 0 6.4l.1 1.3-1 .7c-.5-.3-.4-.6-.3-1 .2-.3.2-.6-.3-.7l-.4.8-.9-1 1-.9-1-.5c0-1 0-1 .7-1.9 0-.2 0-.4-.2-.5-.4-.2-.7-.5-.6-1s.6-.4.9-.6l.1-.3-1-.3v-4.6c.3-.2.6-.3.8-.6v-.6c-1-.3-.8-1-.8-1.7l.5-.2c.4 0 .7-.3.6-.7 0-.5-.5-.6-.8-.5l-.2-.1c-.1-.7-.3-1.3.2-2v-.3c-.6-1-.2-2.3-.3-3.4v-3.6l.5-.3c.3-.2.4-.7.1-.8-.6-.2-.6-.7-.6-1.2v-4.5-20.5c0-1.3-.2-2.6.3-3.9v-.7c-.2-.5-.2-1 .3-1.5.5-.7.3-1-.7-1l-.5-.2v-1.8l-.4-.2c-.8 0-1 .3-.7.9l.7 1-1.7.1c0-.2-.2-.3-.3-.5l-.4-1.6-.8 2h-1.4v-.2c0-.4-.2-.7-.6-.8-.4 0-.7.2-.7.7l-.2.4-4.3.2.2-1.3-.9-.2c-.7 0-.8 0-.6.9v.4h-1.2l-.3-1.2-1 .3c0 .9-.7.6-1.2.8h-.4c-.2-.3.2-.8-.4-1-.4 0-.7.2-.7.9h1.2zm-22 30c-.4-.4-.6-.7-1-.7-.3-.1-.6.4-.5.7 0 .3.5.7.8.6l.7-.7zm21.2-14.8c-.4 0-.7.3-.7.6s.4.6.7.6c.4 0 .6-.1.7-.5 0-.4-.2-.7-.7-.7zm.7 3.3c0-.4-.4-.7-.8-.6-.3 0-.4.4-.4.7s.1.6.5.6.7-.4.7-.7zm-.1-5.1-.5-1.2-.9.6c.5.9.5.9 1.4.6zm-.3 10.4s0-.2-.2-.3c-.3-.1-.8.1-.8.5 0 .2.2.4.4.5.3.2.6-.1.6-.7zm19.5 27.9c0-.5-.4-.7-.7-.6-.1 0-.4.3-.4.5 0 .3.2.6.5.5.3 0 .4-.3.6-.4zm-62.4-50.4.4-.5c0-.1-.1-.4-.3-.4-.3-.1-.7.1-.6.3 0 .2.2.4.5.6zm43.2 6.2c-.1-.1-.3-.4-.5-.4s-.5.1-.6.3c0 .2 0 .5.3.7s.7-.1.8-.6zm-12.3 8.4c.1.4.3.7.7.5.5-.2.6-.5.2-1zm20.4-17.2-.4-.2-.4.8c-.2.2 0 .5.2.5.1 0 .4 0 .4-.2l.2-1zm-8.4 5.7-.2-.3h-.3l-.3.8.4.2c.2-.1.2-.4.3-.6v-.1zm-7.7 17-1-.4c-.2-.1-.4-.2-.5.1l.3.6 1.2-.2zm-14.6 36.6v-1c-.5-.1-.8.1-.8.4 0 .4.2.7.8.6zm21.1-29.8-.6-.3-.1.2.4.3zm19.9 12.3-.1.2c0 .2.2.4.4.6l.2-.2c0-.2-.2-.4-.3-.5zm-.2 14.3c1 .3 1 .2 1-.6zm1.1-41.7-.3-.3-.3.1c-.1.2.2.5.4.5zm-27.2 9.4c0 .2-.2.2-.2.3 0 .4.3.4.5.4l.2-.2zm7.5-8.3-.3.3.4.3.1-.2zm-42.8 19.8-.1-.3-.3.1.2.4zm28.6-24-.2.7.2.2.1-.1-.1-.7zm-27.3 27.7-.4-.2-.2.2.4.3zm-.8 25.4.2.1v-.2h-.2zm61-25.5h-.1v.4l.2-.1v-.3zm-33.8-26.1c-.1 0-.2-.2-.3-.1l-.2.2h.3zm34.1 32.5h-.3l.2.1h.1zm-60.4-39-.1-.2h-.1v.3h.2zm40.2 12.2h.1l-.1-.2zm20.7 1.2v-.1h-.2l.2.2zm-.8-4 .2.1v-.2h-.2zm-31-.1-.2.1v.2l.4-.1zm-30.1 43h-.2v.1h.1zm20.7-10.4s-.1-.1-.2 0h-.3l.2.1h.3zm-.2 2.6-.3-.1-.1.1v.1h.4z"/><path d="m278.2 67.5c-.8.3-1.3 0-1.7-.6-.2.3-.4.7-.7.7-1.3 0-2.6.1-4 .4l-.5-1.3c-.8 0-.9.6-1 1.2-1.2.2-2.3 0-3.4-.2-1-.1-1.6-.6-2-1.6-.5-1-1.3-1.7-1.9-2.5l-.5-1c.4-.8.4-1-.2-1-.4 0-.6-.1-.8-.3-.6-.8-1.4-1.4-1.4-2.6l-.3-.4-2.6-3.4.8-1.4-1.6-.3v-1.2c-1.7-1-2.4-2.6-3.4-4l.7-1.7h1.4c.2.4.3 1 .5 1.2 1.2.5 1.5 1.6 2.1 2.5l-1 1h.3l.9-.2c.3 0 .6.3.5.7 0 .2-.2.3-.3.5-.2.5.1.8.8.8h.6c.2.3.1.5-.1.7-.3.3-.2.6.1.7l.6-.2 3 4.6 2.9 4.4c.8 1.4.8 1.4 2.4 2.3l1.2-.2 1.6.2c.6 0 1-.3 1.6-.5l.3.2c.1.6-.4.4-.7.5-.3 0-.6.2-.4.6.5 0 1.6-.5 1.8-.8.1-.4.4-.6.8-.6h1l7.4.5.2 1.1c.2 0 .4.1.4 0 .4-.6.9-1 1.8-1l1.3-.2.3.8c0 .4-.1.8-.3 1.1-.1.4-.5.7-1 .4-.5-.2-1-.2-1.6-.2-.4 0-.7.1-1 .5h-.4l-.5-.3c-.5.2-.9.7-1.5.5l-1.4-.3-.1-.3c.1-.3.3-.5 0-.8-.3-.2-.7 0-1 .4zm-23.7-20c-.1.1-.4.4-.4.6 0 .4.3.6.6.6.3-.1.5-.5.5-.7.1-.3-.3-.6-.7-.5zm26 19.5 1-.7v-.3c-.1-.4-.5-.4-1.2-.2zm-10.7-.2.4-.7c0-.2-.1-.5-.3-.6-.1 0-.4 0-.6.2-.3.4-.3.5.5 1.1zm-13.4-17c0-.5-.4-1-.6-.8a1 1 0 0 0 -.5.7c0 .3.2.5.5.5s.5-.3.6-.4zm9.3 14.4c-.3.3-.8.5-.4 1 .2.2.4 0 .6-.1.4-.3.4-.4-.2-1zm-5.8-7.9-.3-.3-.3.3c-.1.2.2.5.3.4.2 0 .2-.2.3-.4zm-.9-.7.2-.7-.3-.3-.3.6zm15.5 10.3c.4.4.7.3 1.2.2-.4-.5-.8-.5-1.2-.2zm-.9 1.2.3-.3-.2-.2-.3.3zm-5.1 0-.3-.2h-.1c0 .2.1.3.2.3l.2-.2zm-5.8-7.5h.1v-.1z"/></g><path d="m462.9 1.8v-1.5l1.5-.2 15.2.1c1.4 0 2.7 0 4-.2 1.2 0 2.1.2 2.8 1.3-.3.7-1.7 0-1.3 1.2.1.3.7.4 1.2.7v3.4c0 .4-.7.8-1.2 1.3l1.5.6-1.1 2.3c.1.2.8.6.8 1.2 0 .4-.6.9-1 1.4 1.6.8 1.3 2.2.9 3.5s-1.6 1.3-2.7 1.4c-1.1 0-2.2 0-3.3.2-.8.1-1.5-.6-2.5-.1-.6.3-1.8-.1-2.8-.2-.6 0-1.1-.6-1.7-1-2 1.9-8.7 1.8-11.2-.1-.6 1-.8 2-.9 3.2v3.2c.3 1.3 1.1 1.6 2.3 1.6l20.1-.3c2 0 2.6.6 2.6 2.6v12.6c0 2-.9 2.9-2.9 2.9l-8.7-.1-6 .1c-1.7 0-3.4-.1-5-.3-1.8-.1-2.3.3-2.4 2v3.4c.1 1.4.4 1.7 2 1.8h8.4l12.2-.1c2.3 0 2.6.5 2.5 2.8-.1 3.6.4 7.2.2 10.8v1.7c-.2 2-.8 2.6-2.8 2.6h-42.7c-2-.2-2.7-1-2.7-2.9l.2-29.8c0-.4.3-.8.4-1.3l.8 1.1c.1.1.5-.1.8-.2l-.3-.7-1.4-.1.1-1.5c0-.4-.4-1-.2-1.2.5-.8.4-1.2 0-2-.5-.9 0-2 0-3a29 29 0 0 1 -.1-8.5c.2-1.4-.7-3 .6-4.2-.7-.8-.4-1.7-.6-2.6-.3-1.4.1-2.4 1-3.2l.4-.3.3-1-.6-.2-.1 1 .1.5c-.5-.2-1.6-.5-1.2-1 .9-1.2.2-2 0-3-.5-2.6.7-3.7 3.4-3.5 1.2.1 2.5.2 3.7.1 1.2 0 2.2 0 2.6 1.8l.9-1.8h12.4l1.6 1.5-.3 1.5h-6c-.6-.1-1.1-.7-1.8-1-.2.1-.7.8-1 .8-.6-.1-1-.7-1.5-1-.6.4-1.1 1-1.5 1-.5-.1-1-.8-1.5-1.3l-.8 1.5c-1.6-.5-3.6.9-4.6-1-.5.2-.9.6-1.4.7-1.4.4-2.1 1.5-1.7 3 0 .3.3.5.3.8v11c.1 1.8 0 3.7.2 5.6.1 1.8-.8 3.6-.1 5.5l-.2.6c-.1 1.3-.6 2.8-.2 3.9.6 1.5.4 3 .5 4.5v6.6l-.2 17.9c0 2.4.4 2.8 2.8 2.7a788 788 0 0 1 18.8-.3l18.4.2c2 0 2.4-.6 2.5-2.5.2-2.6 0-5.3-.1-8 0-1.4-.5-1.8-1.8-1.8h-21.1c-1.9 0-2.4-.6-2.4-2.4v-7c0-2.9.7-3.5 3.5-3.4l6 .3h13.7c1 0 1.8-.5 1.7-1.7v-9.2c0-1-.6-1.5-1.7-1.5l-8 .2h-11.9c-.7 0-1.1-.5-2-.3-.8.2-1.2-1-1.3-2v-8c0-1 .3-2.1 1.7-2.2l.8 1.3.6-1.4h9l5.3.2c1 0 1.5.4 1.7 1 .7-.4 1.7-1.1 2-1 .9.8 1.6 0 2.4 0 1.6-.3 1.7-.5 1.8-2.2v-3.2l2-.8-2-.8v-1.1l1.8-.7-1.7-1c0-2.2-.4-2.7-2-2.6l-4.3.1h-8.5c-1.2.2-2.5-.6-3.8 0-.2 0-.7-.6-1.1-.8zm-22.1 13-.8-.6-.8.7.4.5 1.2-.5zm-.9 17.6c.2-.5.5-.8.4-1 0-.2-.4-.5-.5-.4-.3 0-.5.4-.5.6s.3.4.6.8zm1.1-3.7c-.6-.3-.9-.5-1.2-.5-.2 0-.6.3-.6.5s.3.6.5.6zm-.3-2.7c-.5-.3-.7-.5-1-.5l-.4.6s.3.4.5.4zm-93.6-25.2c.8-.2 1.3-.5 1.9-.5h8l18-.2c2.7 0 5.4 0 8 .2 1.3 0 1.8.6 2 1.9l-.1 1.2a59 59 0 0 0 0 8.1c.3 2 0 3.9-.1 5.8-.2 2-.9 2.5-2.8 2.5-1.6 0-3.3 0-5-.2-2-.2-2.6.4-2.5 2.5l.2 9.6.1 5.8v3.7l-2 .7 1.9 1v12c-.1 4 .7 8.1-.3 12-.9.3-1.8-.8-2.1.6-.1.2-.8.3-1.3.3h-16.4c-2.4 0-2.9-.5-2.9-2.9v-31.4-11.2c.1-2.7-.2-3-3-2.7l-4.4.3c-2 0-2.8-.9-2.8-3 0-1.5.4-3.1.4-4.7 0-1.3-.3-2.6-.3-3.8v-6.1c0-1.4.6-2 2-2 1.3-.1 2.7-.5 3.5.5zm7.7 46.3v5.6l-.1 10.3c0 1.7.3 2 1.8 2h13.3c1.7 0 2.1-.4 2.1-2l-.2-5.2.2-20.6-.2-16.4c0-.5-.1-1 0-1.6a2.7 2.7 0 0 1 2.7-2.5c1.7 0 3.3.2 5 .3 2.2 0 2.6-.3 2.6-2.6v-9.3c-.1-1.9-.4-2.2-2.3-2.2l-4.4-.2-.6.1c-1.3 1-2.8.5-4.2.4h-6l-3.2.1h-13.3c-3.6-.6-3.8-.4-3.6 3.2 0 2.7.6 5.4-.1 8.1-.5 1.6 1.2 2.8 2.8 2.6 1.9-.3 3.7-.4 5.6-.5 1.3 0 2 .7 2 2v20.7c.1 2 .3 3.9-1.5 5.3-.9.7-.4 1.3.3 1.9zm-1.7 5 .4-1.2-.5-.4-.4.7z"/></g><path d="m145 59.2c-.8-.8-1.5-1.3-2-2-.4-.5-.6-1.2-.6-1.9v-19.9l.2-17.3v-15.3c0-2 .5-2.6 2.4-2.6h18c2 0 2.6.6 2.6 2.5v20.4l-.2 19.2v2.4l.2 2.8v14.3l-1 .3c-.1.2-.2.4-.1.5 1.6 1 1 2.4.7 3.7-.3 1.4-1.5 1.3-2.6 1.3h-13.9l-3.5.2c-2 0-2.7-.6-2.7-2.6l.2-4.4 2.6.9c.3 3.3.3 3.2 3.7 3h10.4c.5 0 1 .1 1.6 0 1.2 0 1.7-.5 1.7-1.7l-.2-19.3v-29.5l.2-9.4c0-1.4-.6-2-2-2l-13 .2c-2 0-2.3.2-2.3 2.4v16.2l.1 17-.1 19.2c0 .4-.2.9-.4 1.4z"/><path d="m30.2 27.4c-1-4.6.5-8.9 1.5-13.2l2.3-10.8c.1-.5.1-1.1.4-1.5.4-.6 1-1.1 1.5-1.3.4 0 1 .5 1.5.8.5-.2 1-.7 1.7-.9l1 1c.6-1 1.7-1 2.9-1.1 1.1 0 2.2.5 3.4 0 1.1-.3 2.5 0 3.8 0l.3.1.7 1.4.8-1.4c1.3 0 2.1 1.3 1.8 2.1-.5 1.5.5 2.1.8 3.2l1.1 4.3 3.3 14.3c-2.1 1-2.5.9-3-1l-4-15.9c-.3-1.2-.3-2.3-.4-3.5-.2-1-2.3.4-1.7-1.6-3.5 1.4-7 1.2-10.4 1-2.1 0-2.6.2-3 2.3-.9 4.5-1.9 9-3.2 13.5-1.4 4.7-2 9.6-3 14.4-.2.9-.5 1.7-1.6 1.7-1 0-1.5-.7-1.7-1.6l-.7-5.2c0-.4-.4-.7-.5-1.1-.2-.5-.5-1.4-.4-1.5 1.2-.6-.9-1 0-2 .8-.8-.6-1-1-1.6l-.4-1.3-3.6-15.4c-.4-1.7-1-2.3-2.5-2.3h-12.6c-1.7 0-2.2.6-1.8 2.1.4 1.2 1 2.4 1.3 3.6 2 7.3 3.8 14.6 5.7 22l8 29.9.4 2.5c.2 1.2.9 1.8 2.1 1.8h10.3c2.8 0 3.2-.2 3.7-3 .5-2.5.9-5 1.5-7.4.6-2.1 1.5-4.2 2.2-6.3l.5-.8c1.6-1.5 1.7-1.5-.2-3l-.2-.4 2.9-10.8 1-4.8c.1-.3 0-.7.2-.9.4-.5.8-1.1 1.3-1.4.3-.2 1.2.3 1.3.7.2.5 0 1.2 0 2 0 .3.7.7.8 1.3 1 4.8 2.2 9.5 3.4 14.3.7 2.7 1.1 5.5 1.7 8.3l.6 2.3c0 .7-1.8 0-1 1.2 0 .2.7 0 1.3 0-.7 1.3 2.2 2.7-.2 4 1.2 1 1.2 1 1.8 4.2 1.7 1 3.7.4 5.5.5h7.2l2.4-.2 2.2.3.7-1 .3.4c-.2.7-.2 1.4-.6 2-.5.5-1.7 1.5-1.9 1.3-1.4-1-2.8.4-4.2-.2-1-.5-2.4 0-3.6 0-1.8 0-3.6 1-5.3-.4 0 0-.7.6-.9.5-.9-.3-1.7-.3-2.6-.2-1.3 0-1.8-1.6-1.1-2.7-.4-.7-1-1.2-1.1-1.8a560 560 0 0 1 -3.4-14.2l-2.1-11.3c-.4-1.8-.5-2.1-2.6-3.6 0 .5 0 .8.2 1 0 .5.4.9.4 1.3l-.9 5.3c-.8 3.6-1.5 7.3-2.5 11.1-.2.8.3 2.4-1.7 2.2.4.5 1 .8.9 1.1l-2.4 10.7c-.3 1-1.1 1.3-2 1.3h-15.5c-1.9-.1-2.4-.6-2.9-2.5l-6.6-25c-1.6-6-3-12.2-4.7-18.3l-4.8-18.4-.3-1.3c0-1.3.4-2 1.7-2 2-.3 4.3-.8 6.3-.3 1.8.5 3.4-.3 5.2 0 1.7.3 3.6 0 5.4 0 2.8-.2 3.2 0 3.9 2.7a3430.6 3430.6 0 0 1 5 21.5c0 1.6.4 2.8 2.7 2.8z"/><path d="m66.5.8 1.6.8c.4-1 1-1.3 2.2-1.3 5 .2 9.8.2 14.8.2 2.7 0 3.3 1 2.5 3.6-1.1 4.2-2 8.4-3.2 12.7l-2.8 11.1c-.2.8-.2 1.8-1.6 1.9.8 1.3.6 2.6-.3 4l-2.3-2 1.9-3.2c-.4-.3-.7-1-.4-2l4.5-17.7 1.7-5.1c-.7-.8-1.7-.7-2.7-.7-1.7.1-3.4.4-5.2.4-1.7 0-3.5 0-5.3-.2-2.8-.4-3.2-.1-3.5 2.6v.7l-2.9 11.3-1.3 6-.7 3-2.4-.3c.8-8.8 3.8-17 5.4-25.8zm12.8 36.1-2.3 9.1-2.2.6-.1 1.4-.7-.6 1.3-5.6.2-.7c-.2-1.8.8-3.2 1.7-4.8l2.2.5zm-5.7 22.2c0-1.4-.5-2.2-2.3-1.7.2-1.3.3-2.3.6-3.4.2-.5.7-1.3 1-1.3 1.5-.1 2.3-.9 2.9-2.2l-2.3 8.6zm-14.9-28.2 3.3-1.4c.4 1.7 0 3.4-.5 5-.1.3-1.1.8-1.4.7-.7-.3-1.4-1-1.5-1.6-.2-1 0-2 .1-2.7z"/><path d="m73.5 59-.2 1.5-3.3.8.9-3.3c.8 1 1.6 1.7 2.7 1.1z"/></g><g fill="#d92632"><path d="m427 246c.7-.4.7-.4.3-1.3l-.6-.1v-1.2c.3-.6 0-1.1.3-1.6.2-.5 0-1 .2-1.5 0-.6.2-1.2.5-1.7l1.2-3a6 6 0 0 1 1-1.7 56.5 56.5 0 0 1 3.8-3.7c1.2-.5 2.3-1.2 3.6-1.3.6-.5 1.4-.3 2-.7.4-.3 1-.3 1.4-.5.5-.2 1-.1 1.4 0 .3 0 .5-.3.9-.2l.7-.2-.1 1 1.2-.7.5-.1h.8l.6.1 4.8 1.3c.8.2 1.4.7 2 1.1.8.5 1.6 1 2.2 1.7 1.5 1.8 3 3.6 4 5.7.4.7.6 1.5.8 2.3l.5 2.9.1 1.9c.1 1.1-.3 2.2-.5 3.2l-.4 1.8c-.1.9-.2 1.8-.8 2.7l-.9 2c-.7 1.2-1.8 2.3-2.9 3.3l-.9.5-.5.7c-1.6.8-3 2-5 2.2l-1 .2-1.3.2c-.4 0-.8-.2-1.2.2h-.2c-1.2-.1-2.4.2-3.6.3-.7 0-1.3-.3-2-.3-1-.5-2.2-.7-3.3-1-.8-.3-1.4-.7-2-1.2-1.2-.7-2-1.7-3-2.7l-1-1a11.6 11.6 0 0 1 -3.2-6.5c-.2-.8-.1-1.7-.4-2.5v-.5zm22.7-2v-2.1c0-.3.2-.6-.1-.8-.1-1.1-.7-2-1-3.1-.1-.6-.5-1-1-1.3-1.1-.6-2.2-1.2-3.5-1-.2 0-.4-.4-.7 0h-.7l-.8.2-1 .4c-.7.3-1.2.7-1.7 1.3-.4.6-.8 1.3-1 2a10 10 0 0 0 -.5 3l.2 3.3c0 1 0 2 .3 2.9 0 .5.1 1.1.5 1.6l.8 1.4c.3.4.7 1 1.3 1.1.8.3 1.6.4 2.4.5.6 0 1.2-.1 1.7.2h.3c.3-.3.7-.2 1-.2.4 0 .7-.2 1-.4l.4-.4c.9-.4 1.3-1.1 1.6-2 .4-1 .4-2 .7-3l-.1-.2c.3-.1 0-.4 0-.6.2-.2 0-.6 0-.9v-2zm6.4 1c0 .6.5.6.9.5.5-.1.6-.6.6-1-.5-.3-.7.9-1 .3zm-26.5 2.6.2-.2-.2-.3h-.2c.1.6-.4.7-.6 1.1l.5.4.6-.6zm2.2-3c-.4-.3-.6 0-.6.2 0 .3.2.5.4.7.1.1.5 0 .6-.2l.2-.4h-.9l.3-.4zm5.4-10.2c-.3 0-.7-.2-1 .2v.6c.7.2.8-.4 1-.8zm38.8-6.2.1.4c.3 0 .5-.2.8 0 .9-.4 1.8-.1 2.7-.1.5 0 1 .2 1.6.4.4 0 .5.4.6.7.1.6.5 1.2.3 1.8-.3.7-.1 1.5-.2 2.2l-.5 1.9-.2.1c-.5.3-1 .4-1.7.5h-1.8c-.8 0-1.6.2-2.4.4-.5.1-1 .4-1.3.8v1c0 .7.2 1 .4 1.5l.3.2c.6.3 1.2.8 1.9.9 1 0 1.8.3 2.7.2.7 0 .8 0 1.6.4.4.2.6.5.8.8.9 1.3.9 2.7.8 4.2 0 .2-.1.6-.3.8l-1 .4h-.7c-.2 0-.2.3-.4.4l-.4.2c-.9 0-1.8.4-2.7.3s-1.7.2-2.5.4c-.2 0-.4.2-.5.4-.2.8-.7 1.5-.7 2.4.1.8-.1 1.5.2 2.3.1.2 0 .5 0 .8l-.2.3c0 1 0 1.9-.2 2.8l-.2 1.7c-.1.2-.5.6-1 .6-.8.2-1.8.2-2.7.3l.4-1.2-.7-.3-.5.3c-.3-.2-.4.2-.6.2.4.3.7.6.3 1.2h-2.6c-.4 0-.9-.2-1.2-.4-.5-.3-.6-.8-.6-1.3 0-.9-.3-1.8-.2-2.7v-2.6-3.7l.6.3v-.8l-.5.2-.1-.1c0-.5 0-1-.2-1.4v-.5c.4-1.2.1-2.4.2-3.6 0-1.1-.2-2.2 0-3.3.2-1 .2-2.1.2-3.2v-3.2c0-.7-.3-1.5-.2-2.3 0-.8.2-1.6.5-2.4s1-1.2 1.7-1.3c.3-.1.7-.3 1.1-.1s.8-.2 1.2.2h2.4c.3-.3.8-.2 1.2-.2 1.4.2 2.8-.4 4.3-.2zm1.3 3.1c-.8 0-1.3 0-1.8-.4-.2-.3-.4-.4-.2-.7-.4-.5 0-.9.2-1.2-1-.6-2-.4-3 0 .3.5.1 1.2.7 1.6.3-.3.6-.2 1 0 0 0 .2-.2.3 0 .2.1.6.3.7.5.2.5.7.8 1.1 1zm-6.6 21 1 .5v-1.1c-.5-.2-.7.2-1 .5zm-2.8-22.2h1l.5-.6c-.4 0-.7.4-1 0-.2 0-.6.2-.5.6zm2.6 1.7.5.5h.2l.3-.1.3-.1c-.7-.7-.7-.7-1.3-.3zm25.8-3.6.2.4c.3 0 .5-.2.8 0 .9-.4 1.8-.1 2.7-.1.5 0 1 .2 1.6.4.4 0 .5.4.6.7.1.6.5 1.2.3 1.8-.3.7-.1 1.5-.2 2.2l-.5 1.9-.2.1c-.5.3-1 .4-1.7.5h-1.8c-.8 0-1.6.2-2.4.4-.5.1-1 .4-1.3.8v1c0 .7.2 1 .4 1.5l.3.2c.6.3 1.2.8 1.9.9.9 0 1.8.3 2.7.2.7 0 .8 0 1.6.4.4.2.6.5.8.8.9 1.3.9 2.7.8 4.2 0 .2-.1.6-.3.8l-1 .4h-.7c-.2 0-.2.3-.4.4l-.4.2c-1 0-1.8.4-2.7.3s-1.7.2-2.5.4c-.2 0-.4.2-.5.4-.2.8-.7 1.5-.7 2.4.1.8-.1 1.5.2 2.3.1.2 0 .5 0 .8l-.2.3c0 1 0 1.9-.2 2.8l-.2 1.7c-.1.2-.5.6-1 .6-.8.2-1.8.2-2.7.3l.4-1.2-.7-.3-.5.3c-.3-.2-.4.2-.6.2.4.3.7.6.3 1.2h-2.5c-.4 0-.9-.2-1.2-.4-.5-.3-.6-.8-.6-1.3 0-.9-.3-1.8-.2-2.7v-2.6-3.7l.6.3v-.8l-.5.2-.1-.1c0-.5 0-1-.2-1.4v-.5c.4-1.2.1-2.4.2-3.6 0-1.1-.2-2.2 0-3.3.2-1 .2-2.1.2-3.2v-3.2c0-.7-.3-1.5-.2-2.3 0-.8.2-1.6.5-2.4s1-1.2 1.7-1.3c.3-.1.7-.3 1.1-.1s.8-.2 1.1.2h2.4c.4-.3.9-.2 1.3-.2 1.4.2 2.8-.4 4.3-.2zm1.4 3.1c-.8 0-1.3 0-1.8-.4-.2-.3-.4-.4-.2-.7-.4-.5 0-.9.2-1.2-1-.6-2-.4-3 0 .3.5.1 1.2.7 1.6.3-.3.6-.2 1 0 0 0 .2-.2.3 0 .2.1.6.3.7.5.2.5.7.8 1.1 1zm-6.6 21 1 .5v-1.1c-.5-.2-.7.2-1 .5zm-2.8-22.2h1l.5-.6c-.4 0-.7.4-1 0-.2 0-.6.2-.5.6zm2.6 1.7.5.5h.2l.3-.1.3-.1c-.7-.7-.7-.7-1.3-.3zm-319.2-82.4-.8-.9h3.4c0 .2.5.5.7.5l-.3-.5h3.8c2 .1 3.8.8 5.8.6 1 .6 2 .4 3 1 0 .7-.2 1.5-.4 2.3 0 .2-.4.4 0 .5l1.1.5c.5.5.7-.2 1.2-.2l.6.6.6.6c0 .9-.2 1.8.7 2.6l2.5-.4-.8-2c-.2-.4-.6-.8-1-1-1.8-.9-1.8-.8-2.5-2.7.6 0 1.1.1 1.6.3 1.4.6 2.6 1.5 3.3 3 .5 1.2 1.2 2.3 1.4 3.7l.3.5.3 4.5c0 1.4.2 3 0 4.4a17 17 0 0 1 -1 3.8c-.2.4-.2.8-.4 1-1.5 2.7-3.3 5.2-6.5 6-.6.3-1.2.9-2 1-1.2.3-2.4.8-3.7.7h-2.4c-.3 0-.4.7-.8.2-.1-.2-.7.1-1 .2h-1.2c-1.5.4-3.1.7-4.4 1.7a4 4 0 0 0 -1.5 3.2v5.8c0 .3.7.7 0 1 .6.5-.2.8 0 1.3v2.7c0 1.1-1.1 2.4-2.2 2.7l-3 .8c.3-.6.7-1 .7-1.4.1-1.4 1.4-1.3 2.2-1.8l.4.4c.5-.7-.3-.8-.5-1.2l.7-.8c-.4-.6-.8-1.3-1.3-1.8-.5-.6-1.2-1-1.8-1.4a4 4 0 0 0 -1.2-3.7c-.4.2-.4.5-.2 1l-.6-.1-1-.6c-.8-.5-1.2-1-1.4-1.8-.3-1.3-.3-1.3-1.5-1l-1-.3v1l-.3.9 2.1 1.5c.2 0 .2.3.3.5l.2.6c1 .1.8.9.8 1.5l-1 1.1c-.7.6-1.3.6-2 0-.2-.2-.5-.4-1-.5l.3.7c0 .3-.4.6-.3.9 0 .5-.5.9-.1 1.4.4.7-.2 1.5-.7 1.5-.9.1-1 .9-1.6 1.3-.2-1.8-.9-3.6.1-5.4h1.2c.5-.4 1-1.7.6-2-.2-.3-.7-.4-.9-.7-.4-.4-.6.1-1 .1l-.7-6.3 1 .8c.5.5.8-.4 1.3-.3.2-.8.2-1.6-.7-2.2l.5-.9-1-.5-.4.8.6.7-1 .9-.3-.3v-2.9l.3-1.7c0-.5-.1-1.1.3-1.6v-.5c0-2 .3-4.2 0-6.3-.5-2.8-.1-5.6-.3-8.4v-.8c.8-.4.9.7 1.6.6l.2-.6c.6-.8.3-1.9-.7-2.1h-1v-3.4c0-.6.2-1 .8-1l1.1-.7.8.5v-1.8c-.3-1-1-1.4-2-1 .3-.8 1-1 1.4-1.1.7 0 1.3-.5 2.1-.1.6.2 1.5.3 2-.5.2-.2.6.4.8-.1a4 4 0 0 0 3.5 0h.7c.5-.3 1 .3 1.6 0 .5-.2 1.1 0 1.7 0 .4.3.2 1.1 1.3 1zm3 7.5v-.2c-.3 0-.5.2-.7.3-.2 0-.7-.1-.8 0-.8.8-1.3.1-1.7-.3l-.6.8c0 .2-.2.4-.1.5.5.5-.1 1-.2 1.7l1 .9c.2.2.3.6.2.8-.4 1.4-.1 2.8-.2 4.2 0 .8.2 1.6.4 2.4 0 .2.2.4.4.5 1 .6 2 .4 3 .8.5-.5 1.1-.2 1.6-.4.7-.3 1.8-.2 2-1.4 0 .2.2.3.3.4l.2-.3c-.1-.4-.8-.8 0-1.2-.3-.9.4-1.6.3-2.4-.1-1-.4-1.9-.7-3h2.3l-1.1-1.6-1.7 1.2-3-1.8-.4-.1c-.8.3-.8-.6-1.2-.8l.8-1zm-7-4c.3-.3.5-.6.8-.6.7 0 .8 0 1.4-.4 0-.5-.5-.6-.9-.8-.3-.2-.5-.7-1-1.2-.1.7-.4 1.3-.3 1.6.4.8-.2.8-.5 1.1-.4-.3-1-.4-.4-1l-1-1.9c-.4-.7-1.8-.8-1.9-.1-.2.9-.7 1.8-.4 2.8l.8 2.2c.8-.2.5-.5.1-.9l.6-.4c.3.3.6.8 1 1 .7.1.6.7.9 1.1.4.7 0 .9-.4.9-.7 0-1.1.2-1.5.6l-1.1-.7c-.3 1.4-.7 2.7-.4 4 .8.7 1.9.5 2.9.8.7.2.8 0 .8.6l-.1.5c-.1.1-.3.4-.2.5l1.2 2.3 1.6-1.2c0-.7 0-1.3-.2-1.8-.2-.6-.7-1-1-1.5l-.8.6c-1-.2 0-.7-.2-1l-1-1.2 1.6-1.7c.4.4 1 .4 1.4-.2l1.1-1.6c-1 .2-.8-.8-1.3-1.1l-1.7-1.3zm23.5 7.8c-1 1.2-.8 2.7-.8 4l2.6.4.9-1.5c.1-.3.3-.8.2-1-.7-.6 0-1.1 0-1.7l.4-.7v-3c-.3.2-.8 0-.5.5.6 1-.4 1.7-.3 2.6l-.3.4-1.4.8zm-27.7-6c-.4-.2-.6-.4-1-.4-.5 0-1.1 0-1.6-.6-.2-.3-.7-.4-1.1-.5-.4 0-.6.3-.6.8v1c-.3.9 0 1.7.7 2s2.4-.3 2.5-1c0-.8.5-1 1.1-1.3zm1.6 26.5c-.6 0-1.2-.2-1.6.4-.3.6 0 1.2.3 1.7.1.2.3.6.6.7.6.3 1 .7 1.3 1.3h.4l-.3-1.8c0-.2 0-.5-.2-.6-.7-.4-.4-1-.5-1.7zm17.2-24.9h.6c.6 0 1.3.2 1.7-.5.3-.6-.4-1-.7-1.4-.4-.6-.8-.7-1.2-.2-.3.6-.7 1.2-.4 2.1zm-22.5 5.5c-.5 2-.1 2.5 1.6 2.1-.1-.3-.3-.5-.3-.8l.3-.9zm22.8-11.8c-.6-.9-1.4-.4-2.2-.6.6 1 .5 1.7.2 2.4l1.2.5c.2-.9-.3-1.9.8-2.3zm10.5 22.5v-2.9l-1.4 1c-.3.2-.4.8-.1 1zm-17.9-18.3c-.3 2.1-.4 1.4 1.6 2.8l.3-.2-.7-.7.5-.6c-.7-.4-1-1.1-1.7-1.3zm-1.9-2.4v-1.1l.4-1.3-1.7.6.4 1.8h1zm10 18.2c-.3.8.1 1.4.4 2l1-1.4c-.3-.6-.7-.7-1.4-.6z"/><path d="m164.2 196.6-1.9-1.9.4-1.2.8-1h1.2c.4 0 .6.1.9.4.5.5 1 1.2.8 1.8-.3.7-.6 1.7-1.8 1.6zm-1.5 1.3c-.6 1-1.3 1.4-2.4.7-.2-.2-.6 0-1 0-.9-1.3 0-2 .7-2.7 1.2.2 2 1 2.7 2zm-60-45.6v-.4c0-2 .4-2.4 2.4-2.5.3 0 .6 0 .9-.2l.8 1c-.1.8.3 2-.4 3.1l1.2.5c1.2.6 1.2.6 2.3-.5-.5-.9 0-1.7.2-2.5.2-.5.6-.4 1 0l.6-1 .4.3.6-.6h.2c.4.2.3 1 1 1 .8 0 .7.7.8 1.3h.9c.9-.4 1.4.2 2 .7.3.3-.5.6.1.9.4 0 .4.5.4.8 0 .4.3.7.3 1l-.1 1v.4c.2.9.3 1.7-.2 2.5v5.5c0 .4-.2 1 0 1.3.3.4 0 .6.1.9 0 .3.2.9.1 1-.6.2.4.5 0 .9-.3.1-.2.8-.2 1.2v1.2c.1 1.3.7 2.6.3 3.8-.5 1.5-.3 3-.3 4.5.1 2 .7 4 1.8 5.7.7 1.1 2 1.7 3.3 2.2 1 .4 2.2.6 3.3.3 1.5-.2 3-.3 4.3-1.5.6 0 .7-.6.9-1l1.4-4c.3-1 .6-2 .7-3v-8.3c0-.4-.3-.7-.3-1 0-.6-.3-1.3.3-1.8-.6-.4-.3-1-.3-1.6v-1.8c0-.3.2-.6.4-1 .2.5.3 1 .6 1.3.2.3.8-.2 1 .4.2.3.7.6 1.1.7.5.1.9 1 1.4.2l.6.6c-.7.8-.1 1.3.3 1.9l.2.6.3.6.7-1.6.8 1.4c.1.2.1.4.5.6.4.1 1 .4.4 1l.1.4 1.3 1.9c.4-.3 1-.6 1.6-.1-.1-.2-.1-.4-.3-.5-.2-.3-.1-.5 0-.8.3-.2.4-.2.7 0 .2.1.6-.2.8-.2l-1.4-1.4c-.5 0-1.6 0-1.9-1-.1-.8-.6-1-1-1.4l.3-1.2c.1-.2.4-.4.7-.5l.5.3.8-.8v-2c-.5.5-.8 1-1.3 1.2-.4.3-.7.5-1 1 0 .3-.3.2-.5 0-.2-.1-.5.1-.8.2l-.6-.6-.7.7-.9-.9c.1-.4.5-.8 0-1.1l.1-.3c.5-.5 1-1 1-1.7.2-.5.5-1.3 1.3-1.2 0-.7.2-1.3-.4-1.6l-.9.2-.3-.4-1 .9.7.5c-.5.6-.8 1.2-1.7 1.2-.4 0-.7.4-1.2.6-1-.5-1.2-1.7-1.7-2.5l1.7-1.6h1.4l-1.3-.7 1.4-1.3-.5-.6-2.7.3v-3.5l.5-2c.2-.9 1.1-.6 1.6-1 1.5.2 2.9-.4 4.3-.4h3.6c1.3 0 2.5 0 3.6.7.8-.3 1 .5 1 .8.4 1.3 1 2.5.8 4-.1 2.1-.1 4.3-.4 6.4 0 .8-.3 1.6-.3 2.5l-.3 2.4-.3 2.1v.8l.3.6c-.2 1.4.2 2.7.4 4 .3 1.7.2 3.4.3 5.1v5.3a21 21 0 0 1 -1.2 5.2c-.6 2.1-1.8 4-3.5 5.5l-.8.9c-1.4 1.8-3.5 2.4-5.6 2.9l-2.6.8-2.4 1-.5.2c-.6-.5-1.2-.8-1.7.2l-.6.1h-3.5l-.7-1-.9 1h-2.5c-.7 0-1.3-.2-2-.3-.6 0-1.2.1-1.9-.3-.3-.2-.9 0-1.2 0l-1-1.8-.4 1.4h-.3c-1.6-.3-2.9-1.1-4.2-1.8l-3.2-2-.7-.5-2-2c-1.5-1-2-2.7-2.4-4.3-.3-1.4-.8-2.9-.7-4.4 0-.8-.6-1.5-.2-2.4.3-.7.2-1.5.2-2.3 0-1.7-.5-3.3-.4-5 .2-1.7.3-3.4 0-5-.3-1.8-.2-3.4-.3-5 0-.5 0-1.2.2-1.4.4-.3-.5-.7.1-.8l-.1-2.3-.2-.8c0-1.5 0-3 .2-4.7l.5.9.5 3c.3-.2.7-.5 1-.4.4 0 .7.2 1.2.5l-.3-1c0-.4-.2-.9 0-1 .7-.8 0-1.3-.3-1.7l-2-2.2zm8.4 2.3-1.2 2c.6.7-.3 1.2-.4 1.8l.2.2.7-.6.7.5.9-1c.6-.7.7-.7 1.5-.2.8.4 1.3 1 1.6 1.9.2.6.7 1 1 1.5l1-.8-1.6-1.6.2-1.5-.6.6-.8-1.8 1.2-.5c-.2-.8 0-2-1.2-2.3l-2 1.2c.6 1.4.6 1.4-.1 2-.3-.4-.7-.8-1-1.4zm-3.8 3.6c.7 1-.3 1.2-.5 1.7.1.1.3.2.3.4.4 1 .4 1 1.4 1 .7.1 1.3 0 1.9-.3l.1-.2-.6-.6.3-.5c0-.3-.3-.5-.5-.7-.5.6-.6-.1-1-.2zm3.7 3.2c.4.8.4 1.8 1 2.6.5.9.4 1 1.3.6l1-.3-.4-.4a2 2 0 0 1 -.6-1.1c-.3-1.1-1.5-1-2.3-1.4zm-1.6 21.2-1-1-.5.1c.7.7-.7.7-.2 1.6 0 0 .5.3.7.7.4.7.9-.4 1.2.1l.5-.2c.6-.7.5-1.4 0-2zm-6-19.7.4 1.4c.1.4.6.5 1.2.2l.6.6c.2-.4.6-1 .4-1.2-.4-.4-.1-.7 0-1-2.3-.2-2.3-.3-2.6 0zm8.7 8.2 1.5 2v-2.8h-.6c-.5-.1-1 0-1.4.2-.6.1-.3 1-.3 1.4v1.2l.6-.3-.2-1zm-4.2-2.3 1.4-.9-.8-1.3h-1.7c.1 1 .3 1.4 1.1 2.2zm-1.5 8 1-.3 1 .8.1-1.8c0-.5-.3-.7-.7-.8-.5-.1-.8.2-1 .5l-.4 1.5zm10.5.4c.5-1.3 0-2.2-.6-3.1h-.3l-.3.2v.6c.2.5 0 .7-.2.7s-.3-.4-.5 0c0 .1 0 .3.2.4zm-9 14c1.5.4 1.7.4 2.8-.2-.4-.3-.7-.8-1-.8-.6 0-1-.3-1.5-.2l-.3.2zm17.6-.5-1-1.8c0 .2-.2.7-.4.7-.8 0-.2.6-.4.8-.5.7.2.6.5.8l.5.3zm-11.1-11.5c-.3-.5-.7-.8-.7-1.2-.1-1-.7-.4-1-.5-.5.6.8 1.2 0 1.8l1 .6.4-.4zm29.8 1c.8-1 .8-1-.5-2.1 0 .8-1.6.5-.8 1.7l.7-.3.6.6zm4.6-3.5c-.3-.5-.1-1-.2-1.5-.3-.8-.9-.6-1.3-1l-.5 1c.7.2 1.2.7 1 1.6.4-.3.6-.5 1-.1zm-9.8-2.7c-.4.6.3 1 .4 1.4.7-.1 1 1.3 1.7.6-.1-.5-.1-1-.4-1.2-.3-.3-.9-.3-1.3-.5-.2 0-.3-.2-.4-.3zm-3.4 6.3 1.6-.5c-.5-.8-1-1.2-1.9-1l-.3.2zm-31.7-2c.1.8 0 1.3.4 2.1l1.4-1.9-.2-.6-.6.8zm12.5-9.7.4-.7-1-1.4-.6.6c.3.5.4 1.2 1.2 1.5zm9.1 30-.6-1-1.1.4v1.4l1.7-.9zm23-14.7c.7-1-.6-1.3-.6-2-.7.4-.6 1-.5 1.6l1.2.4zm-35.5 11c0-.2.5-.3.5-.8-.9.1-1.3.6-1.6 1.3l1.4 1.1-.3-1.5z"/><path d="m115.2 150.7-2.2-1.4.4-.9c2 .7 2 .7 2.8 1.6zm-6.9-.9c-.5-.9-2 .1-2-1.4h3.8z"/><path d="m149.9 214c0 .4.2.6.3 1.1l.2-1.1c1.9-1.1 3.9-2 6-2.8l.4-.1 3.6-.4h.3c.6-.2 1.1-.6 1.6 0 .5-.6 1.2-.2 1.7-.3h3.6c.7 0 .8.2 1 1 0 .7.2 1.5.8 2l1-1.4.6.4c.3.1.1.3 0 .5-.2.4.8.3.4 1l-.1 1 .3.4c-.3.5-1 .7-1 1.6l1-.8.8.4.5-.7c1 .5 1.8 1 2.4 1.6.7.5 1.8.4 2.1 1.5l.7-1.2c-.5-.3-1.2-.5-1.1-1.3 0-.7-.8-1-1.4-1.5l1-.7-2.2-1.8h-1.6l-1-1 .3-.3c2.2 0 4.2.6 6.2 1.4 1.4.7 2.7 1.6 3.8 2.8l4.1 4.5c.9 1 1.6 2.2 2.3 3.4.7 1.3 1.5 2.5 1.8 4l.2.9c-.2 2 .5 4 .3 6 .7 2 .3 4.2.4 6.4 0 1-.3 2-.7 3-1.2 2.6-2.3 5-3 7.7-.1.4-.4.8-.6 1.1a15 15 0 0 1 -4.6 4.6c-1.6 1-2.9 2.2-4.6 2.9l-1.6.6c-1.3.4-1.3.4-2-.8l-.1.2-1-.9c0-.3.7-.9-.2-1.3-.3 1.1-.3 1.4-.2 1.7l.7 1.7c-1.8-.2-3.3.4-4.8 1a1 1 0 0 1 -.4 0c-2.7 0-5.5.6-8.3.3-1-.1-2-.3-2.9-.7l-4.5-2c-.9-.4-1.8-.9-2.4-1.6-1.6-1.6-3.3-3-5.3-4a8.1 8.1 0 0 1 -3.1-4.1c-.8-1.7-1.2-3.6-1.8-5.4l-.2-.2c0-.6-.2-1.3 0-1.8.5-.5-.4-1 .4-1.5l-1-.8c-.2-2-.5-3.8-.5-5.5 0-2 .3-3.8.4-5.7.1-1.2.3-2.5 1.3-3.5a7 7 0 0 0 1-1.9c.4-.6 1.3-.8 1-1.7l1.2-1.7a14 14 0 0 1 5.7-5.4l.8-.7zm20.4 34.6c.8-.6 2-.8 2.4-2 .6-1.6 1.3-3.2 1.3-5v-3.4-1.7-1.5-1.7c.1-.5-.3-.9-.2-1.4.2-.5 0-1-.2-1.5 0-.5-.2-1-.3-1.4l-.3-1.5c-.3-1.5-1-2.7-2.3-3.6-.4-.3-1-.4-1.3-.8-.9-1-2-1-3-1.2-1.3-.3-2.4.3-3.4.8l-3.6 2c-.6.4-1.2.8-1.6 1.4-1 1.5-2 3-2.5 4.8-.2.8-.1 1.6-.4 2.5l-1.3-.8-.2.2c.2.4-.5.8-.2 1.2.5.7-.4.8-.5 1.2v.7l1 .8c0-.7-.2-1-.2-1.3.7-.5 1.1-.4 1.2.3.1 1 .5 2 .4 3l.2 1.7-.3.3c-.2.1-.2.3-.3.5-.8-.5-.8-.5-1.3.4.5.8 1.3.4 2 .5 0-.3 0-.5.2-.9.2 1.9 1.2 4.4 2.2 5.7.7 1 1.6 1.6 2.5 2.4.4.3.8-.4 1 .2.7-.1 1.2.2 1.8.5h.4c.7-.4 1.5-.1 2.3-.1 1.2 0 2.4-.2 3.6-.7l1.2.2c0-.3-.1-.5-.3-.8zm-24.4-8.8c0 .4.2 1 0 1.2-.4.7 0 1.2.2 1.8.7-1 1.4 0 2.2 0l-.3-1.6-.5-1.5h-1.5zm4.5 4.6-1 .5.4 1.2.4.3 1.7-.5zm-2.6 3.4c-.6.3-1.3.3-1.5 1-.2.8.5 1 .8 1.4h.4c.1-.3.5-.7.2-1-.5-.6.7-.9 0-1.4zm-5.8-11.4c0 .6 0 1-.2 1.2-.7.7.1.8.3 1.1l1.2-1.1zm10-14-1.3-1-.8-.2c.6 1.6.6 1.6 1.2 2l1-.7zm-18.9-11.2.9 1.2.9-.8v.1c1.2.5 1.6 1 1.8 2.3l.4 1.3v1.4c0 .6.4 1.2.3 1.9 0 .5-.4.3-.6.5-.3.5 1 0 .4.6l-.1.8c0 1.4-.9 2-2 2.5-.8.4-1.7.5-2.7.7-.4.1-.8.5-1.2 1a10.1 10.1 0 0 0 -1.6 9.6c.1.3 0 .6 0 .8 0 .7 0 1.3-.3 2-.2.5 0 1-.3 1.7-.3.6-.2 1.5-.3 2.3-.2 1.2 0 2.4 0 3.6-.1 1.1-.4 2.2-.4 3.4 0 1.1.4 2.3.6 3.4s0 2.2 0 3.4-.3 2.4-.6 3.6c-.2.7-.4 1.4-1 1.8-.8.5-1.6.8-2.4.9h-.9l-.2-.6c-.5.5-1 0-1.4-.1l-.6.9c-.2.2-.5-.5-.7 0-.8 0-1.8.3-2.5 0-1-.3-2.1 0-3-.9-.3-.2-.6-.4-.8-.8-.6-1-1-2-1-3.3 0-.5-.4-1-.3-1.5l.3-2.4c0-.8-.1-1.6.3-2.4.2-.5.2-1.4 0-1.8-.4-.7-.3-1.3-.3-2 0-.4 0-1-.2-1.2-.5-.3.4-.5 0-1-.6-.5.2-1.3 0-2 .6-.2-.5-.7 0-1l.1-.8c.2-.2 0-.6 0-1v-1.1-1.2-1c0-.4 0-.9.2-1 .4-.3-.2-.6 0-.7.6-.2-.5-.7.1-1l-.1-.8c0-.3.3-.6-.1-.9-.1 0 0-.5 0-.8.2-1.4-.3-2.8-.7-4.1-.3-.7-.6-1.6-1.8-1.7-.7 0-1.4-.4-2-.6-.6-.3-1.3-.2-1.7-1-.4-.5-1.4-2-1.6-2.5-.2-.6-.5-1.3-.3-2 .2-.4-.6-.6-.2-1 .2-.1 0-.5.1-.8.2-.3 0-.7 0-1 .1-.4.4-.7.4-1-.1-1.9 1.2-2.3 2.5-2.8l1-.3c.4 0 .8 0 1-.4.4.6.7-.1 1 0h1.2c.5.3.8-.7 1.5-.2.3.3 1-.1 1.6-.1h8.8c.8-.2 1.4.3 2.2.3s1.6.2 2.3 0c1.4-.5 2.8-.2 4-.4zm-17.3 19.9c0-.7.3-1.5-.5-2-.4.5-1.2.9-.8 1.6zm1-15.6c-.2-.9-1-1.3-1.6-2v.5c-.3.8-.1 1.2.6 1.3zm3 33.2c-.7 0-1.3-.1-1.6.5l.5 1 1.2-.7v-.8zm-4.2-2.3c.3-1.7.1-2-1.3-1.5.5.5.4 1.4 1.3 1.5z"/><path d="m489.6 179c2.3-.1 5.4 1.2 8.5 2.4.8.4 1.5 1.1 2 1.9 2.3 3.1 4.2 6.4 4 10.5 0 .5 0 1 .2 1.4.6 1.8.4 3.6.2 5.4l-.8 6.2c0 .3 0 .8-.2 1.1a17.5 17.5 0 0 1 -6.3 7.3c-2.2 1.2-4.3 2.3-7 2-3.5 1-6.8-.5-10.2-1-.3-.1-.6-.1-.7-.3-2.7-2.2-6-3.9-6.7-7.7l-1.7-8.6v-.5c.2-2 .2-4.1.6-6.1.5-2.4 1.3-4.8 2.1-7 .7-2.1 2.5-3.4 4.3-4.3 3.3-1.8 6.8-2.7 11.7-2.7zm3 18.4v-3.8c0-2.4-1.4-3.8-4-4.2s-4.1.4-5 3c-.7 2.3-1 4.7-.8 7.2.2 2 .6 4 1.5 6 1 2 4.2 2.5 6 1 1.8-1.6 2.5-3.7 2.5-6.1zm-35.6-32.2c0 4-.4 7.9-1.7 11.7l-.1.2c-.3 3-2.6 4.8-4.7 6.5a17.5 17.5 0 0 1 -10.7 3.4c-2.8 0-5.4-.4-8-1.3a5 5 0 0 1 -2.5-1.8c-1.2-1.6-2.7-3-3.6-5-.2-.6-.8-1.2-.5-2 0-.2 0-.5-.2-.6-1.3-1.2-1-3-1.4-4.4a9 9 0 0 1 -.1-4.5c.2-.7.2-1.6.1-2.3-.3-3.7 1-7 2.5-10 .1-.4.3-.6.5-.9.9-1.8 3-2.2 4.3-3.6 1.4-1.4 3-1.8 5-1.8 1.7 0 3.3-.4 5-.4 1 0 2 .3 3 .4l3 .7c1.7.3 3.2 1 4.4 2.2l1.2 1.1c1.3.9 2 2 2.5 3.5l.6 1.8c1.1 2.2 1.7 4.6 1.5 7.1zm-11.8 3.1h-.2v-2.8c0-1-.2-2.1-.4-3-1.1-4.5-4.2-4.5-7.6-3.1-.3 0-.6.5-.7.8-.5 2-1 3.8-1.2 5.8-.1 1.9.3 3.8.3 5.7 0 1.2.4 2.2 1 3.3 1 2.2 4.5 3 6.5 1a6.7 6.7 0 0 0 2.2-4.8v-2.9zm-2.3 12-.5.3.3.6.5-.3-.3-.5zm-15.2.2.1-.3-.1-.1-.2.3zm5.2-19.6-.3.3.1.4h.3v-.7zm31.3 11.7h3c.3 0 .6-.5 1-1-1.2-.8-2.2-.2-3.5.2l.5-1.3 4.6-8.9 5.5-11c1-2 2.3-3.2 4.6-3 1.9 0 3.8-.2 5.5.8.5.9.3 1.7 0 2.6l-1.5 3.2c-3 5.8-6.3 11.6-9 17.5-2.3 4.8-4.5 9.5-7.2 14-1.5 4.7-4.2 8.9-6.4 13.3-1.1 2.3-2.1 4.8-3.5 7-.3.4-.5 1-.7 1.5-1.3 3.1-3.2 6-5 9-.3.7-1 1-2 1-1.2.1-2.4.4-3.7.4-2.9.2-4.4-2.1-3.1-4.7.8-1.7 1.9-3.3 2.7-5l4.5-9 1.4-2.4c.3-.6.8-1.2 1-1.9 1-3 2.7-5.7 4.2-8.5 2.4-4.5 4.7-9.2 7-13.8zm5.6 3.9-.3.4c0 .2.3.4.4.4.2 0 .3-.2.5-.3zm12-25.8c0-.3.2-.4.3-.7l-.1-.3-.6.4z"/><path d="m471.3 278.4-.3-.6s.2-.2 0-.2l-.1-1c0-.5.1-.9.4-1.2l.1-.1 1.5-.3h1.6c.6.1 1.3.3 1.9.7.3.3.5.5.5.9l.2.3c0 .2-.3.2-.3.5l.3-.3.8 1.3.5 1.3-.4.3-.2-.2h-.5c0-.3-.2-.1-.4 0h.5c0 .1.2.2 0 .4l.2.3.6-.3.2.3.1-.4.5 1.2.2.5.4.6h.6l.4-.5 1-2.3.1-.4c.4-.9.8-1.7 1-2.5.3-.5.6-.9 1-1.2l.6-.3h.7l.7-.2h1.3c.2-.1.4-.2.5 0h.4l.3.1c.4.2.5.5.6.8l.1.6v.5 5.2l-.1.7v.7c.2 1 0 2 .1 2.9v.9l-.2 1.9-.2.5c-.1.2-.3.2-.5.3-.3.2-.6.3-1 .3s-.7.1-1-.1l-1-.2a.6.6 0 0 1 -.4-.6v-.8-4.2-.5c-.2-.1-.2-.1-.3-.7-.4.1-.4.4-.6.7l-.7 1.7-.6 1.2-.4.7c-.2.7-.6 1.4-1 2-.1.4-.5.5-.8.6-.6 0-1-.1-1.4-.6l-.9-1.5-.6-1.4v-.2l.2.1c.2-.2 0-.3 0-.5-.4.2-.4.2-.6 0-.3-.5-.6-1-.7-1.6l-.4-.7c-.3.2-.3.5-.3.7-.2 1.3-.1 2.6-.1 3.9 0 .2-.2.4-.1.7l-.1.6-.2.4-.6.2-1.4.1h-1.3l-.4-.4.4-.2h-.6v-.4l-.1-.4v-.3c-.2-.1 0-.2 0-.3v-2c0-.4-.2-.9 0-1.4v-.6-.4-.3l-.1-.3v-.6c.1-.1.1-.3 0-.4v-.7-.2-.3c-.1 0 .2-.2 0-.3v-.7-1.7zm9.2 4.9.7.2c0-.1.1-.3 0-.4 0-.1 0-.4-.2-.5l-.5.3zm-4.5-3.3v.1c0 .2.2.3 0 .5 0 0 .2.3.3.2 0 0 .2-.1.2 0 .2-.2.3.1.4 0-.3-.3-.3-.3-.3-.7-.3.3-.4-.2-.6-.1zm6.8 2.7.2.5h.5c0-.3 0-.5-.3-.7zm-1.2 1.2.5.7c.2-.2-.2-.5.1-.7l-.2-.3zm-.7 1c0 .2-.2.3-.3.4v.3l.3.1c.3 0 .4-.4.1-.6v-.1zm-2.6 2.5v.4c.3.1.4-.3.6-.2-.1-.3-.4-.2-.6-.2zm7-11.5c.2.2.3.3.4.2l.1-.5c-.2 0-.3.2-.5.3zm-43.6-.3.1.4c.2.1.5 0 .6.2 0 .3-.2.2-.4.3.4.1.5 0 .6-.2.3-.3.6-.4 1-.4h.3c.1 0 .2-.1.2-.3 0-.1 0-.3-.2-.4l.3-.2.3.1-.1-.2c.2 0 .3 0 .4.2.2.2.2.6.3.8l.1 1.2v3.4l.1.8v.6c-.2.1 0 .2 0 .3v.7 6.5l-.3.6c0 .2-.3.2-.5.3a6 6 0 0 1 -2 0h-.6l-.5-.1-.4-.2.2-.2h-.6c-.2 0-.2-.3-.2-.5 0-.3-.3-.6 0-1v-.2-1.1c.2-.1 0-.2 0-.3v-.4-.3c-.1-.2 0-.3 0-.4l-.1-.5v-3.5-.4c.2 0-.1-.2 0-.3l.1-.3v-.4l.1-.3v-.4c.2-.2.2-.4 0-.6v-.5-2.3c0-.3 0-.4.4-.4zm3 10.4c-.3 0-.3 0-.5.3l.6.3v-.6z"/><path d="m442.2 275.8-.2-.8.1-.1c.2.2.6.1.7.5zm13.4 2.9.3-.3c-.3 0-.3 0-.5.3h.1l-.4.2-.3.1-.4.3-.2.7-.2.8.2 2.2v2.5c0 .2-.1.3-.3.4l-.2.2s-.3-.1 0-.3l-.2-.2h-.2l-.5.4c.2.1.4 0 .5.3h.2c.3-.2.5 0 .5.4v.7c.1 0 0 .2 0 .2.2.2 0 .3 0 .5v1.5c0 .2-.2.3-.3.3h-.4l-.2.2.1.1-1 .2c-.2 0-.5.1-.8 0-.1 0-.3.1-.4 0h-.5c-.3 0-.6-.3-.8-.4l-.1-.2-.1-.4v-.3-.3l-.2-1.5-.2-1.2c.1-.7 0-1.4.2-2v-1.4l.2-1.4c0-.7-.2-1.3-.6-1.9-.2-.3-.6-.5-1-.6-.4 0-.7-.3-.7-.8l-.1-.6c.2 0 .3 0 .2.2l.4.3.4.2-.2.3c.3.3.3.3.6.2l.6-.2c-.2-.2-.3-.4-.2-.6h-.8l-.2-.3c0-.2 0-.3-.2-.2h-.3l.3-.2v-.7l-.6.2c0-.5 0-1 .5-1.4.3-.2.6-.3 1-.3h1c.5.2 1 0 1.4 0 .6 0 1.2.3 1.8.2l.9-.1h2.3c.2.1.3.4.3.6l.1.5.1.5c.1.5 0 1-.2 1.4l-.2.3c0 .3-.2.3-.5.4zm-6-1c.1-.4.7-.2.6-.7l-.6-.3c-.2 0-.6 0-.4.5l.4.4zm-1-2.2-.3.1-.2.1v.2c.3 0 .3 0 .3.2v.3c.5 0 .4-.4.7-.5l-.4-.4zm5 .7c0-.3 0-.6-.3-.7 0 0-.3 0-.5.2l.3.1c0 .2-.2.2-.2.3.2.4.5.2.7.1zm-2.6 2.9.3-.4v-.2c.2 0-.1-.2 0-.3l-.2-.3-.3.1v.3.5zm.5-1.5.7-.1c.3 0 .4-.2.5-.6l-.4.1h-.5c0 .2 0 .5-.3.6zm-1.3 1.5h-.4-.3l-.1.2c0 .3.1.3.3.5 0-.1.3 0 .3-.3zm.2-2.9c.3-.2.6 0 1-.1-.3-.1-.4-.2-.4-.5l-.5.1v.5zm5.3-.7-.1.3-.2.1.3.4c.3-.4.3-.4.3-.7zm-1.4 1c-.2.2-.2.4-.1.6 0 .2.3.1.4.2l.3-.5c-.3 0-.5 0-.6-.3zm-1.4 4.1.3.2c.2.3.2.3.4 0-.3-.6-.3-.6-.7-.2zm-1.7-.2c-.4 0-.5 0-.6.4l.3.3.3-.1v-.1c0-.2 0 0-.1 0l-.2-.1zm-1.1 1.5c-.2-.1-.4-.3-.6 0 .1.1.1.4.4.3.2 0 .2-.1.2-.3zm1.9.4.4-.6v-.2c-.5.2-.5.4-.4.8zm-.7 5.7-.6-.2-.3.4 1-.2zm9.6-10c3 3 3.6 3 4.3 3 .2 0 .5-.2.8 0a1 1 0 0 1 1 0h.6l.5.2c.3.1.5.3.6.6l.2.9h-.3c-.1.1-.2 0-.2 0v.2h.2l.2-.1v.4s-.2 0-.1.1c.2.3-.1.5-.1.8l-.4.2c-.1 0-.3.1-.4 0l.1-.3-.5-.2c0 .2-.2.3-.4.5h.5v.2h-1.5c-.3.1-.5 0-.8.2h-1.2l-.5.4-.2.3v.9s.1.3.4.4l.7.2h1.7c.5.3 1 .1 1.5.2h.9c.1.1.3.2.3.4v.3l.1.1v1.3c0 .5-.2.9-.6 1-.6.4-1.2.4-1.9.4-.3-.3-.7 0-1-.1-.3-.2-.7-.2-1 0a4 4 0 0 1 -1.5 0l-1.4-.1h-.4c-.1.1-.3.1-.4 0h-.6l-1.2-.2-.2-.2-.2-.6-.1-.8v-.3c-.1-.6 0-1 0-1.6v-.7c-.2-.1 0-.4-.2-.5v-1.5c.2-.1.1-.3.1-.5v-5.3l.1-1.8.2-1c.1-.2.2-.4.4-.4h.5c.6 0 1.2-.3 1.8-.2h.9l1.6.1c.5.1 1 .1 1.6 0h1.3c.6 0 1.2 0 1.8.3.1 0 .2 0 .3.2.3.7.4 1.4.1 2 .1.3-.1.5-.2.7 0 .2-.2.2-.3.3l-.6.1c-.3 0-.6 0-1 .2l-.6.1h-1.4l-1 .1c-.5.1-.8.7-.7 1.3l-2.1-2.2c-2.3-2.6-2.3-2.4-2.3-2.3 0 .2.3.3.4.2l.5-.1-.5-.3.3-.3c-.3 0-.5 0 1.6 2.8zm-1.3 9.5c-.7-.2-.7-.2-1 .4l.5.1zm7.5-5.9.3.4c.1.1.3.1.4 0v-.5l-.2-.2zm-6.5 4.7c-.4 0-.5.3-.7.5.2 0 .3.2.4.1l.4-.2zm6.6-9.1c.5 0 .5 0 .6-.6-.2.2-.6 0-.7.3v.1zm-.6 10.6c-.3-.3-.3-.3-.7-.3l.2.5c.2 0 .4 0 .5-.2zm-5-12.4c-.3 0-.3 0-.7.6l.8-.2-.5-.3zm.8 10.8c0 .4 0 .5.4.5v-.5zm34.8-12.2c-.2.4-.2.4.2.7l.1-.4v-.2h1l1.6.7c.3.1.7.3 1 .6l.7.9c.3.6.7 1.3.6 2-.5.3-1 .4-1.6.5a4 4 0 0 1 -2.4-.2c-.3-.1-.7-.3-1-.6a.9.9 0 0 0 -.7-.3h-.5l-.2.4c0 .2-.2.3-.1.6.1.4.3.7.6.9.6.2 1.1.5 1.8.6-.3.2 0 .3 0 .4 0 .4-.2 0-.4.1l.3.2h.3c.2-.2.6-.1.7-.4 1 .3 1.9.6 2.7 1.2h-.1v.2h.5c.3.4.7.6.9 1l.2.8c.1.6.3 1.1.3 1.7l-.3 1c-.2 0-.1.1 0 .2l-.3.3v.3c0 .2-.1.4-.3.5-.5.6-1.2 1.1-1.9 1.5-.4.3-.9.4-1.3.5l-1 .4c-.5.1-1 .3-1.5 0a1 1 0 0 0 -.4 0c-.9.1-1.6-.1-2.4-.3-.1 0 0-.4-.3-.2h-.4l-.7-.5-1-.8-.5-.3a9 9 0 0 0 -.8-1l-.2-.4h.4v-.6h-.4l.6-.4.5-.1h.4c.1 0 .2-.2.4 0 0-.2.2-.1.4-.1h.8c.6 0 1.1.1 1.6.3.2 0 .4.3.5.4-.1.3-.2-.1-.4 0l-.4.2.3.4.4-.3h.5c0 .2.1.2.2.3h1.5l.2-.2.1.2h.1l.1-.4c0-.3-.3-.2-.4-.2v-1.1-.2l-.7-.3-1.5-.5-.3-.1c0-.2-.2-.2-.4-.2-.4 0-.8-.2-1.2-.4a6 6 0 0 1 -2.3-1.7l-.7-1.3a4.5 4.5 0 0 1 0-2.6l.4-1 .5-.5.9-1c.3-.3.7-.4 1-.5l1-.2h.2c.4 0 .6 0 .8-.2h.2l1-.2h.5zm-.7 15-1-.3c.4.3.7.5.9.9l.3-.3.3-.2c.1-.2.1 0 .3 0 .2-.1.4-.3.5-.6v-.2c-.2 0-.3-.1-.3-.2 0-.3-.4-.4-.6-.5l-.3.3.4.2c-.2.3-.1.7-.5.8zm-2.7-12.7c-.1-.2-.3-.2-.4-.1h-1.4l.5.5c.3 0 .7.4 1 .2 0-.4 0-.4.3-.6zm9.3 10-.4-.5-.5.2c-.4 0-.5.1-.4.5.1 0 0 .1 0 .2h.4c.2.1.2-.2.3-.2h.3l.3-.1zm-3.8 0c.2 0 .3 0 .5.2-.2 0-.2.1-.3.2h.5l.2.1.2-.1c-.2-.2.1-.3 0-.4l.2-.2c-.1 0-.2 0-.3-.2-.3.1-.3.1-.4-.1l-.6.4zm-.6-3.1.7-.1c0-.1.1-.3 0-.4 0 0 0-.2-.2 0l-.1-.1h-.4l-.2.2zm-4.2 3.7h-.6l-.3.4c.2 0 .2 0 .5.4l.4-.3c0-.2-.2-.3 0-.5zm5.6 1.2c-.3-.1-.4.1-.5.2 0 .1.1.2 0 .2-.1.2 0 .3.2.4.2 0 .3-.2.5-.3v-.1l-.3-.3h.1zm-1.8-.5c.4 0 .5-.4.7-.7l-.3-.2-.3.1v.3l-.3.3zm-1-4.2-.2.5h.3l.3.3v-.7h-.4zm.6-6.3-.2-.5c0-.2 0-.3-.3-.5 0 .3.1.6-.1 1 .1-.2.2-.2.3-.2zm3.5 7.3c-.3.1-.3.3-.2.5l.2.2c.3 0 .4-.3.2-.5zm.1 2.5h-.6l-.3.1v.1h.2s.2 0 .2.2zm-8.7-1-.4.6c.4 0 .5-.2.8-.5zm8-3.5.3.2.3-.3v-.3z"/><path d="m383.4 287c0-.5.4-.8.6-1.2h.6c0-.2.2-.3.4-.3l.7-.1h1s.2 0 0 .2v.3c.3-.2.5-.3.5-.6h1.2l.4.2.1.1.1.7c0 .6-.3 1.1-.6 1.6-.3.6-.7 1-1.1 1.4-.3.3-.6.4-1 .6s-1 .3-1.3.6c-.2.2-.5.2-.8.3l-1.2.1-.8.1h-.8l-1.6-.1-.9-.3-.5-.2c-.2 0-.3 0-.5-.2v-.3c.2-.1.2-.3.2-.4 0-.2 0-.3.1-.2h.8c0-.4-.2-.4-.3-.5h-.6l-.2.2c0 .1 0 .3-.2.4v.2c.2.1 0 .2 0 .3-.2-.3-.4-.3-.6-.2-.3 0-.5 0-.7-.4-.3 0-.4-.2-.5-.3a25 25 0 0 1 -.7-.8c-.4-.4-.7-.8-.8-1.4l-.2-.3c-.2-.2 0-.5-.3-.7-.2-.2-.3-.5-.3-.7l-.1-.4h.2c-.2-.4 0-.4.2-.5l-.2-.3c-.3.2-.1.4-.2.7v-.3l-.2-.3v-.7c-.1-.1 0-.4-.2-.5l.3-1.1c.1.1.2.4.5.2l.2-.3h-.3c0-.1-.2 0-.4 0 .2-.6.3-1.1.2-1.7l.7-.5-.4-.2 1.2-1.5.5-.7c.2-.2.3-.3.5-.3l1.7-1.1.8-.4.7-.1c.5 0 1 0 1.4-.2h1.8c.4 0 .8.2 1.2 0 .2.2.5.1.7.2l.7.1c.4 0 .8.3 1.1.5l1.2.8c.6.5 1 1.2 1.2 2 .3.6.2 1.1.2 1.8-.5.2-1 .3-1.6.3h-1.6l-.8-.1v-.2c-.3.2-.6 0-.7-.2-.3-.1-.5-.4-.6-.7l-.2-.1-.6-.6a1 1 0 0 0 -.7 0h-.6c-.5 0-1 0-1.5.3-.3 0-.5.3-.6.6l-.7 1.4v2.5l.1.6.1.7.4 1.3.3.3.8.5c.3.1.6 0 .9.2h1.3c.3-.1.5-.4.9-.1zm-6.7-.6h-.3c-.4 0-.5 0-.8.3l-.3.2.2.3c.5 0 .9-.3 1.2-.5zm-.1-7.8h.4l.1.1c.3-.2.5-.4.6-.8-.5 0-.8.4-1.1.7zm5.4 8.9c-.4 0-.4.1-.2.6.3 0 .3-.2.4-.3zm3.4-.7c.1-.1.2-.2.3-.1h.3l-.3-.3-.1-.3h-.3zm-9.8-7.8c.2 0 .3.2.5.3 0-.2.3-.3.3-.6-.3 0-.5.3-.8.3zm9-.1c0-.3.4-.4.2-.8l-.4.2.3.2-.3.2zm-6.3 5h.2l-.2-.2-.2.5.2.1.3.2c.1-.3-.3-.2-.3-.5zm-1.2 1.5c.5.1.6 0 .4-.4-.2 0-.3.3-.4.4zm-47.3-10.5c-.2.4-.2.4.1.7l.2-.4-.1-.3h1l1.7.7.9.7c.2.2.6.5.7.8.4.7.8 1.3.7 2.1l-1.7.5a4 4 0 0 1 -2.3-.2c-.4-.2-.7-.3-1-.6a.9.9 0 0 0 -.8-.4h-.4l-.2.4c0 .2-.2.4-.1.7.1.4.2.6.6.8l1.7.7c-.2.2 0 .3 0 .4 0 .3-.2 0-.3.1l.2.1.4.1c.2-.2.6-.2.7-.5 1 .4 1.8.7 2.6 1.2v.3h.5c.3.3.7.6.8 1l.3.8c0 .5.3 1 .2 1.7l-.2 1c-.2 0-.1 0-.1.2l-.3.2v.3c0 .2 0 .4-.2.5-.6.6-1.2 1.1-2 1.6l-1.3.5-1 .4c-.5 0-1 .2-1.5 0a1 1 0 0 0 -.4 0c-.8 0-1.6-.2-2.4-.4 0 0 0-.4-.2-.1l-.4-.1c-.3 0-.5-.2-.8-.4l-1-.9c-.2 0-.3-.1-.4-.3a9 9 0 0 0 -.8-1l-.2-.3h.4l-.1-.6h-.3l.5-.4.6-.2h2c.5 0 1 0 1.6.3.2 0 .3.2.5.4-.1.2-.2-.2-.4 0l-.5.1.3.5.4-.3c.2-.2.3-.2.5 0l.3.3h1.4l.3-.2v.2h.2l.1-.5c0-.2-.3-.1-.5-.2.2-.3 0-.7 0-1v-.3c-.2-.1-.4-.3-.7-.3l-1.4-.4-.3-.2-.4-.2-1.2-.3a6 6 0 0 1 -2.4-1.8c-.3-.4-.4-.8-.6-1.3a4.5 4.5 0 0 1 0-2.6c0-.3.2-.6.4-.9 0-.2.3-.4.5-.6l.8-.9c.3-.4.7-.5 1.1-.6.3 0 .7 0 1-.2h.2l.8-.1.1-.1 1-.1zm-.7 14.9-1-.2.8.8.3-.2.3-.3h.3c.3 0 .5-.2.6-.5l-.1-.3-.2-.1c-.1-.4-.5-.4-.6-.5l-.3.2.3.3c-.1.2 0 .6-.4.8zm-2.8-12.7c0-.1-.2-.2-.4-.1h-1.3l.4.6c.4 0 .7.4 1.1.2 0-.5 0-.5.2-.7zm9.4 10.1-.5-.6c-.2.2-.2.2-.5.2s-.4.2-.3.5v.3l.3-.1c.2.2.2-.1.3-.1h.4zm-3.8-.1.4.2-.3.2.6.1h.4c-.2-.3 0-.3 0-.4l.1-.2-.2-.2h-.1l-.4-.1zm-.6-3c.2 0 .4 0 .6-.2.2 0 .2-.2.1-.3 0-.1-.1-.3-.3-.1-.2-.1-.3-.1-.4 0l-.3.2.3.3zm-4.2 3.6h-.7v.1l-.3.4c.3 0 .3 0 .6.3l.4-.2c0-.2-.3-.4 0-.6zm5.6 1.3c-.3-.2-.4 0-.5.2v.2c-.2.2 0 .3.2.4l.4-.4.1-.1-.3-.2v-.1zm-1.8-.6c.4 0 .5-.4.6-.7l-.2-.1h-.3c-.2.1 0 .2 0 .3-.2 0-.2.2-.3.4zm-1-4.1-.3.4.3.1.4.2v-.6zm.5-6.3-.1-.5c0-.3-.1-.4-.3-.5 0 .2 0 .5-.2.9l.3-.2zm3.6 7.3c-.3 0-.3.3-.3.5l.3.1c.3 0 .3-.2.2-.4zm.1 2.5-.7-.1s-.2 0-.2.2h.2l.2.2c.2 0 .3-.2.5-.3zm-8.7-1-.4.6c.3 0 .5-.3.7-.5l-.3-.2zm8-3.6.2.2c.2 0 .3-.2.4-.3v-.3zm6.8-5.2c3 3 3.6 3 4.3 3 .3 0 .5-.2.8 0a1 1 0 0 1 1 0h.6l.5.2c.3.1.5.3.6.6l.2.9h-.3c-.1.1-.2 0-.2 0v.2h.2l.2-.1v.4s-.2 0-.1.1c.2.3 0 .5 0 .8l-.4.2h-.5l.1-.3-.4-.2-.5.5h.5v.2h-1.4c-.3.1-.5 0-.8.2h-1.4l-.5.4-.2.3v.9s.1.3.4.4l.7.2h1.7c.5.3 1 .1 1.5.2h1l.2.4v.3l.2.1v1.3c0 .5-.3.9-.7 1-.6.4-1.2.4-1.9.4-.3-.3-.7 0-1-.1-.3-.2-.7-.2-1 0a4 4 0 0 1 -1.5 0l-1.4-.1h-.4c0 .1-.3.1-.4 0h-.6l-1.2-.2-.2-.2-.2-.6-.1-.8v-.3c-.1-.6 0-1 0-1.6v-.7c-.1-.1 0-.4-.2-.5v-1.5c.2-.1.1-.3.1-.5v-5.3c0-.6 0-1.2.2-1.8 0-.3 0-.7.2-1 0-.2.1-.4.3-.4h.5c.6 0 1.2-.3 1.8-.2h.9l1.6.1c.6.1 1.1.1 1.6 0h1.3c.6 0 1.2 0 1.8.3.2 0 .2 0 .3.2.3.7.4 1.4.2 2 0 .3-.2.5-.3.7 0 .2-.2.2-.3.3l-.6.1c-.3 0-.6 0-1 .2l-.6.1h-1.4l-1 .1c-.5.1-.8.7-.7 1.3l-2-2.2c-2.3-2.6-2.4-2.4-2.3-2.3 0 .2.2.3.3.2l.5-.1-.4-.3.2-.3c-.2 0-.4 0 1.6 2.8zm-1.3 9.5c-.7-.2-.7-.2-1 .4l.5.1zm7.5-5.9.3.4c.1.1.3.1.4 0v-.5l-.2-.2zm-6.5 4.7c-.4 0-.5.3-.7.5.2 0 .3.2.4.1l.4-.2zm6.6-9.1c.5 0 .5 0 .6-.6-.2.2-.5 0-.7.3v.1zm-.6 10.6c-.3-.3-.3-.3-.7-.3l.2.5c.2 0 .4 0 .5-.2zm-5-12.4c-.3 0-.3 0-.6.6l.7-.2-.4-.3zm.8 10.8c0 .4 0 .5.4.5v-.5zm17.1 3.8c-.2 0-.2 0-.3.2l-1.7.1-1.8.1h-1.8c-.5.1-1 0-1.5-.2-.1 0-.3-.3-.3-.5-.1-.4-.3-.7-.3-1.1v-2.4l.1-1.1v-.2-.8-.8-.8-4.8-.8l.1-.7.1-.6c.1-.4.4-.5.7-.6.5 0 1-.2 1.6 0 .5 0 1.1 0 1.6.2.3.1.4.2.4.5l.1.5.1.5v1.3 6.7c0 .5.1.8.3 1.1s.6.4 1 .4l.8.2.9.1c.2 0 .3.1.3.3l.2.6c.1.5 0 1 0 1.6 0 .3 0 .6-.3.8l-.3.3zm-7-3.1c.3 0 .3.3.5.1h.2c.2.2.2 0 .2-.1v-.5l-.1-.3-.3-.2s-.2 0 0 .3v.4c.2.2 0 .2-.1.3h-.3zm.7 1.6.3.5h.3l.3-.5zm-1.2-10.3c.1.2.3.3.4.2l.3-.3-.2-.2c-.2 0-.3.2-.5.3zm46.5.5.3-.3c-.3 0-.3 0-.5.3h.1l-.4.2-.3.1-.4.3-.2.7c0 .3-.2.5-.1.8v4.7c0 .2 0 .3-.2.4l-.2.2s-.3-.1 0-.3l-.2-.2h-.2l-.4.4c.1.1.3 0 .4.3h.2c.3-.2.5 0 .6.4v2.4l-.2.5c0 .2 0 .3-.2.3h-.4l-.2.2.1.1-1 .2h-1.2-.5c-.3 0-.6-.3-.8-.4l-.1-.2-.1-.4v-.3-.3l-.2-1.5c-.1-.4-.2-.8-.1-1.2v-2c.2-.5.2-1 .2-1.4v-1.4c.1-.7-.1-1.3-.5-1.9-.2-.3-.6-.5-1-.6-.4 0-.7-.3-.7-.8l-.1-.6c.2 0 .3 0 .2.2l.4.3.4.2-.2.3c.3.3.3.3.6.2l.6-.2c-.2-.2-.3-.4-.2-.6h-.8l-.2-.3c0-.2 0-.3-.2-.2h-.3l.3-.2v-.7l-.6.2c0-.5 0-1 .5-1.4.3-.2.6-.3 1-.3h1c.5.2 1 0 1.4 0 .6 0 1.2.3 1.8.2l.9-.1h2.3c.2.1.3.4.3.6l.1.5.1.5c.1.5 0 1-.2 1.4l-.2.3c0 .3-.2.3-.5.4zm-6-1c.1-.4.7-.2.6-.7l-.6-.3c-.2 0-.6 0-.4.5l.4.4zm-1-2.2-.3.1-.2.1v.2c.3 0 .3 0 .3.2v.3c.5 0 .4-.4.7-.5l-.4-.4zm5 .7c0-.3 0-.6-.3-.7l-.5.2.3.1c0 .2-.1.2-.2.3.2.4.5.2.7.1zm-2.6 2.9.3-.4v-.2c.2 0-.1-.2 0-.3l-.2-.3-.3.1v.3.5zm.5-1.5.7-.1c.3 0 .4-.2.5-.6l-.4.1h-.5c0 .2 0 .5-.3.6zm-1.3 1.5h-.4-.3l-.1.2c0 .3.1.3.3.5 0-.1.3 0 .3-.3zm.2-2.9c.3-.2.6 0 1-.1-.3-.1-.4-.2-.4-.5l-.5.1v.5zm5.3-.7-.1.3-.2.1.3.4c.3-.4.3-.4.3-.7zm-1.4 1c-.2.2-.2.4-.1.6 0 .2.3.1.4.2l.3-.5c-.3 0-.5 0-.6-.3zm-1.4 4.1.3.2c.2.3.2.3.4 0-.3-.6-.3-.6-.7-.2zm-1.7-.2c-.4 0-.5 0-.6.4l.3.3.3-.1v-.1c0-.2 0 0-.1 0l-.2-.1zm-1.1 1.5c-.2-.1-.4-.3-.6 0 .1.1.1.4.4.3.2 0 .2-.2.2-.3zm1.9.4.4-.6v-.2c-.5.2-.5.4-.4.8zm-.6 5.7-.6-.2-.4.4zm-30.4-10c2.9 3 3.5 3 4.2 3 .3 0 .6-.2.8 0h.1a1 1 0 0 1 1 0h.5l.6.2c.3.1.5.3.6.6l.1.9h-.3c0 .1-.1 0-.2 0v.2h.3l.2-.1v.4s-.2 0-.1.1c.1.3-.1.5-.1.8l-.4.2c-.1 0-.3.1-.4 0v-.3l-.4-.2-.4.5h.4v.2h-1.4c-.2.1-.5 0-.7.2h-1.6l-.5.4-.1.3v.9s0 .3.3.4l.8.2h1.7c.4.3 1 .1 1.5.2h.9l.3.4v.3l.1.1v1.3c0 .5-.2.9-.6 1-.6.4-1.3.4-2 .4-.2-.3-.6 0-1-.1-.3-.2-.6-.2-1 0a4 4 0 0 1 -1.5 0l-1.3-.1h-.5-1l-1.1-.2c-.1 0-.2 0-.2-.2l-.2-.6c0-.3 0-.5-.2-.8v-.3-1.6-.7l-.1-.5v-1.5c.2-.1 0-.3 0-.5v-5.3l.2-1.8c0-.3 0-.7.2-1 0-.2.2-.4.4-.4h.5c.6 0 1.2-.3 1.8-.2h.8l1.7.1c.5.1 1 .1 1.6 0h1.2c.7 0 1.3 0 1.9.3.1 0 .2 0 .2.2.3.7.4 1.4.2 2 0 .3-.2.5-.3.7 0 .2-.1.2-.3.3l-.5.1c-.3 0-.7 0-1 .2l-.6.1h-1.3l-1 .1c-.6.1-.8.7-.7 1.3 0 .1 0 .2-2.1-2.2-2.3-2.6-2.3-2.4-2.3-2.3 0 .2.2.3.3.2l.5-.1-.4-.3.3-.3c-.3 0-.5 0 1.6 2.8zm-1.4 9.5c-.6-.2-.7-.2-.9.4l.5.1zm7.5-5.9.3.4c.2.1.4.1.4 0v-.5l-.1-.2zm-6.5 4.7c-.4 0-.5.3-.7.5.2 0 .4.2.5.1l.4-.2zm6.7-9.1c.4 0 .4 0 .6-.6-.3.2-.6 0-.8.3l.1.1v.2zm-.7 10.6c-.2-.3-.2-.3-.6-.3l.1.5c.2 0 .4 0 .5-.2zm-5-12.4c-.3 0-.3 0-.6.6l.7-.2-.4-.3zm.8 10.8c0 .4.1.5.4.5v-.5zm58.7-10.9.2.6.3-.1c.1-.2.2-.1.4 0 .5 0 .9.3 1.2.6l.4.3.4.3c.2.2.5.4.6.7l.8 1.3.4.9c0 .6.3 1.2.2 1.8l.1.5c0 .3.1.6 0 .8-.1.3 0 .6-.2.8 0 .7-.3 1.3-.5 2l-.7 1.5-.6 1-.7.5-1.4 1a2 2 0 0 1 -1 .3c-.6 0-1.1.2-1.7.3-.5 0-1 .3-1.5 0h-1l-.8.1c-.1-.2-.2.1-.4 0h-.9-.1l-2.5-.2v-.4c-.4 0-.4.1-.2.4-.5 0-.7-.2-.8-.5v-.4c-.2-.6-.2-1.2-.2-1.7l.1-1.6c.2-.7.2-1.4 0-2v-6.7c0-.6 0-1.3.2-1.9 0-.2.2-.3.3-.4l.8-.2h3.7l3.7.1c.4 0 .8.2 1.1.3zm-5.4 6.4v3.8l.2.7c0 .2.3.4.5.4.3 0 .7.3 1 0l.8-.1.8-.3c.3-.2.5-.2.7-.5l.6-1c.3-.2.5-.6.4-1v-.6l.1-.6c-.2 0 .1-.2 0-.3v-.3l-.2-.4v-.4c-.2-.4-.4-.8-.8-1.1l-1-.9h-.3c-.5-.2-1.2-.3-1.6-.3-.2 0-.4 0-.5.2l-.5 1c-.1.2 0 .5-.2.7v.7s0 .1 0 0l-.4.3.2.2zm-3.7 5.9.3-.2v-.2c-.2 0-.4.2-.5.3-.3.2-.3.2 0 .4l.1.2c.2-.2.2-.2 0-.5zm3.4-10.4c.5-.2.5-.3.2-.8-.3 0-.2.3-.3.4v.4zm7.8-.2c-.1-.1-.3-.2-.2-.4l-.3-.2-.3.4c.1 0 .3.1.1.3.3 0 .5.1.7-.1zm-.8 5 .4-.2c0-.2.2-.3.3-.5l-.2-.1h-.2c0 .3-.2.5-.3.7zm-.3-4.2c-.3-.2-.6-.2-.8 0v.2c.3.2.5-.1.8-.2zm-4-1.4c0 .1-.3 0-.3.2l-.1.4.3.1.2-.5-.2-.2zm6.6 5.1c.3.4.5.4.7 0-.2-.3-.4 0-.7 0zm-11-5.5.3-.1h.2l.2-.3v-.3h-.1zm-12.8 2c3 3 3.6 3 4.3 3 .2 0 .5-.2.8 0a1 1 0 0 1 1 0h.6l.5.2c.3.1.5.3.6.6l.2.9h-.3c-.1.1-.2 0-.2 0v.2h.2l.2-.1v.4s-.2 0-.1.1c.2.3 0 .5-.1.8l-.4.2s-.3.1-.4 0l.1-.3-.4-.2-.5.5h.5v.2h-1.4c-.3.1-.5 0-.8.2h-1.4l-.5.4-.2.3v.9s.1.3.4.4l.7.2h1.7c.5.3 1 .1 1.5.2h1l.2.4v.3l.2.1v1.3c0 .5-.3.9-.7 1-.6.4-1.2.4-1.9.4-.3-.3-.7 0-1-.1-.3-.2-.7-.2-1 0a4 4 0 0 1 -1.5 0l-1.4-.1h-.4c0 .1-.3.1-.4 0h-.6l-1.2-.2-.2-.2-.2-.6-.1-.8v-.3c-.1-.6 0-1 0-1.6v-.7c-.2-.1 0-.4-.2-.5v-1.5c.2-.1.1-.3.1-.5v-5.3c0-.6 0-1.2.2-1.8l.1-1c.1-.2.2-.4.4-.4h.5c.6 0 1.2-.3 1.8-.2h.9l1.6.1c.6.1 1.1.1 1.6 0h1.3c.6 0 1.2 0 1.8.3.2 0 .2 0 .3.2.3.7.4 1.4.2 2 0 .3-.2.5-.3.7 0 .2-.2.2-.3.3l-.6.1c-.3 0-.6 0-1 .2l-.6.1h-1.3l-1 .1c-.5.1-.8.7-.7 1.3l-2-2.2c-2.4-2.6-2.4-2.4-2.4-2.3 0 .2.3.3.4.2l.5-.1-.4-.3.2-.3c-.2 0-.4 0 1.6 2.8zm-1.3 9.5c-.7-.2-.7-.2-1 .4l.5.1zm7.5-5.9.3.4c.1.1.3.1.4 0v-.5l-.2-.2zm-6.5 4.7c-.4 0-.5.3-.7.5.2 0 .3.2.4.1l.4-.2zm6.6-9.1c.5 0 .5 0 .6-.6-.2.2-.5 0-.7.3v.1zm-.6 10.6c-.3-.3-.3-.3-.7-.3l.2.5c.2 0 .4 0 .5-.2zm-5-12.4c-.3 0-.3 0-.7.6l.8-.2-.5-.3zm.8 10.8c0 .4 0 .5.4.5v-.5z"/><path d="m242.9 148h10.5c2.1 0 4.3-.5 6.4-.5l13.2.3a2011.6 2011.6 0 0 1 19 .8c2 .3 3.4 1.6 3.4 3.8 0 1.6 0 3.2-.2 4.8l-.7 6c-.2 1.3-.3 2.7-.7 4-.6 2.2-2.2 3.5-4.7 3.6l-11.7.5c-6.6.4-13.2.3-19.7-.5-3.4-.4-4.4.4-5.6 3.7l-1.4 4.3c-.3.9-.5 1.8-.5 2.7.1 3 1.3 4.2 4.2 4.5h1.6c3.9-1 7.7-.2 11.6 0 4.5.2 8.8 1 12.8 3.3 2.7 1.5 5.6 2.6 8.2 4.3 4.8 3 8 7.5 10.6 12.4 2.4 4.5 4 9.4 3.4 14.7-.2 2.8.2 5.7.2 8.5 0 1.6-.2 3.3-.8 4.7-1.6 4.1-3.4 8.2-5.4 12.1a19.6 19.6 0 0 1 -7.8 8 107.3 107.3 0 0 1 -19.3 9c-1.5.3-3.1.2-4.7.2h-12l-3.3-.3c-4.7.1-9.4-.6-13.9-1.9-6.3-1.8-12.6-3.9-17-9.5-2.5-3.3-5.4-6.3-7.9-9.7-3-4.1-4.4-8.9-4.1-14 .3-6.7 2.1-8.5 8.8-7.7 5.2.6 10.4 1 15.7 1 1.3 0 2.6.3 4 .7 1.6.4 2.7 1.5 3.2 3.1l.6 2c2.2 7.5 8.7 10.8 16 10 5.7-.6 6.4-1.2 9.5-6.1 2.1-3.4 2-7.2 2.3-11-1.5-2.3-1.8-5.2-4.4-7a35 35 0 0 0 -19.5-6.8c-6 0-12-.7-18-1.1-2.5-.1-4.9 0-7.3-.2-3-.3-3.8-1.5-3.6-4.5.5-6.1 2.3-11.9 3.3-17.8.1-.6.4-1 .4-1.6-.3-5 1.4-9.5 2.5-14.2.5-2.1.5-4.3.8-6.4l1.8-8.7c.6-2.2 2-3.3 4.4-3.3l13.3-.2zm14.4 7c.8.3 1.2-.1 1.4-.9 0 0-.6-.5-1-.5-1 .1-.7.8-.4 1.5l-.6 1.3h.3zm17.2 71.6c-.3-.1-.6-.4-1-.4-.2 0-.5.3-.8.5.2.2.6.7.7.6.4-.1.7-.5 1-.8.3 0 .5-.2.7-.4l.3-1c-.2 0-.5-.2-.6-.1-.2.2-.3.6-.4.9zm-33 14.8.3 2 .5-.1-.8-1.8c-.2-1.9-.3-3.7-1.1-5.4l-.7-.6c-1.9.4-4 .6-5 2.9 2.2 1.3 4 3.3 6.8 3zm-5.2-16.2c-2.8-.4-2.8-.4-3.7 1.5 2 .7 2 .7 3.7-1.5zm49.2-5.8c-1.8 2.2-1.8 2.2 0 4zm-6.7 11.7c-.7 1.2 0 1.9 1 2.1.4.1 1-.3 2.2-.6zm-28.2-69-.3-.5c-.7-.5-1.4-.7-2 0-.2.2 0 1 .1 1h1.8zm-13.7 89-1-.1v2l.6.1zm49.7-24.7c.9.1 1.3.3 1.7.2.3 0 .5-.4.8-.7-.4-.3-.8-.8-1.1-.8-.4 0-.7.6-1.4 1.3zm-19.6-69.8 1-.3-.8-1.6-.7.1zm15.7 58.8-.6-.4-.2.3.3.6zm-64 27-.2-.4-1.3.7c0 .2.2.3.3.5zm14.4-74.3c-.3-.1-.6-.3-.7-.2l-.5.6.4.4zm-12 7c-.3 0-.6.1-.6.3l.2.7.8-.5-.4-.6zm44 21.3-1.1-.8-.6.3c0 .2.1.6.3.6.3.1.7 0 1.4-.1zm10 3.5-.5-.4c-.1.3-.3.5-.2.7l.5.3.3-.6zm-43.9-6v-.4h-1.6v.5h1.6zm38 50-.2-.1-.2.3.3.1.1-.2z"/><path d="m310.9 212.5c-2.9-2.3-2.4-5.8-2.3-9.1.2-4.6 0-9.2.9-13.7 1-5.2 2.8-10.3 4.6-15.4 1.6-4.3 3.6-8.5 6.7-11.9 3.5-3.6 7.3-6.8 10.9-10.2 5.7-2.2 10.8-5.8 17.2-6.5a87.1 87.1 0 0 1 34 2.6c3.9 1.1 7.6 2.7 10.4 5.9 1.2 1.3 2.9 2.3 4.3 3.6.9.6 1.8 1.3 2.4 2.2a71.7 71.7 0 0 1 8.9 16.2c2 5.8 2.9 12 4 18 .4 3 .6 6 .7 8.9a12 12 0 0 1 -1 5c-.8 1.8-1.2 3.6-.5 5.4 1 2.9.4 5.6-.5 8.3l-5.2 14.4a34 34 0 0 1 -10.6 14.8 54.5 54.5 0 0 1 -22.6 10.2 59.5 59.5 0 0 1 -36.3-3.2 46.3 46.3 0 0 1 -25.3-33c-.5-2.4-1.3-4.7-1.8-7a11 11 0 0 1 -.3-3.2c0-.6.6-1.2 1.4-2.3zm51.3-37.7c-2 0-3.3-.2-4.7 0-1.3.2-2.7.4-3.8 1.1-3 2-5.8 4.5-6.7 8.2-.9 3.4-1.8 6.8-2 10.3-.4 6.8-.2 13.7-.3 20.5-.1 4.7 1.3 8.8 3.6 12.7 2 3.5 5 6.1 9.3 6 2.5 0 4.9-.5 7.3-.6 3.3-.2 5.8-2 7.8-4.4.6-.7 1.2-1.5 1.5-2.3 1.5-3.7 2.5-7.4 2.8-11.3.1-1.5-.3-3-.1-4.4.5-5.5.6-11-.2-16.5 0-.7-.2-1.4 0-2 1-3.3-.2-6.4-1-9.4a8.7 8.7 0 0 0 -2.4-3.7c-3.3-3.1-7-5-11.1-4.2zm16.6-21.2c-1.4 1.6-2.2 3.2-3.4 4-2.9 1.8-5.3 3.7-6.5 7-.4 1-2 1.5-2.8 2.3-1.2 1.1-1 3 .4 3.8l7.5 4.4c1-1 1.9-2.4 3.1-3 1.5-.9 3.3-1 5-1.4 0-1.2 0-2.2.3-3 .6-2.6 3-3.5 5.2-2.2 1.4.8 2.7 1.5 3.4 3.2.1.4 1 1 1.5.8.5 0 1-.8 1.2-1.3v-1.8c-3.2-.1-4.4-2.3-5.1-4.8-.1-.4 0-1-.3-1.2-.5-.5-1.3-1.3-1.9-1.2-2.5.5-3.5-1.1-4.7-2.8-.7-1-1.7-1.6-3-2.8zm21.2 46.4-4-.7c-.3 2.2-.7 4 1.9 5.1l2-4.4zm-59.1 44.6c2 1.4 3.2 1.6 3.8.6.5-.9 0-2.4-1.1-3-1-.5-1.5 0-2.7 2.4zm55.7-83.8c.1 2.1 1.4 2.4 2.7 2.4.3 0 .7-.8 1.3-1.6zm-67.3 34.1c.4-1.2.6-2.2-.7-2.6-.4-.2-1.1.2-1.2.6-.6 1.4.4 1.7 1.9 2zm68.6 43.4c.9.9 1.7 1.9 2.7.5.3-.3.2-1.5 0-1.7-1.2-1-2-.1-2.7 1.2zm9.3-7.7c-1.4 0-2.5 0-2.6 1.5 0 .2.5.8.8.8 1.4.2 1.6-1 1.8-2.3zm-21.6-54.3c.7-.7 1.3-1 1.4-1.5.2-1-.7-2.1-1.4-1.8-.5.2-1.1.9-1.1 1.3 0 .6.6 1.2 1 2zm14.4-1.9c-.6-.5-.9-1-1.3-1.1-.8-.3-1.8.4-1.7 1.2 0 .4.7 1.2.9 1.1.6-.2 1.2-.6 2.1-1.2zm-20.6 4.9c-.9 2-.9 2 1 2.8.3-1.2.4-2.3-1-2.8zm-42.8 65.5.6-.1c0-.5 0-1-.2-1.4 0-.3-.5-.4-1.3-.8zm54.7-26.3c1.3 1.4 1.9 1.9 2.6 1 .1-.2 0-.8 0-.8zm-4.1-17.7-1.4-1.4c-.2 0-.6.4-1 .6.4.4.7 1 1.1 1.3.2.1.6-.2 1.3-.5zm-14.6-52.6c-.4 1.3-.3 2.1 1.3 2.7.5-1.4 0-2.1-1.3-2.7zm-31 19.4.8-.1-.4-2c-.2.2-.7.3-.7.3l.4 1.8zm36.3 38.5 1.3 1.8c1-1.5.2-1.9-1.3-1.8zm15.2-25.7c-.6-.3-.9-.7-1.1-.7-.3 0-.7.4-.8.7 0 .3.3.6.5.9zm.8 52 .1-.8-1.8-.4s0 .4-.2.7l1.9.4zm-40 24.8c.2-.2.4-.5.5-.9l-.5-.3-.8 1zm33.2-7.8-.9.8.2.6c.3 0 .8 0 1-.3zm-19 7.7c-.4-.2-.7-.4-1-.4l-.3.6.8.5zm-1.2-102.6c-.3.5-.6.8-.5 1 0 .3.4.5.7.7.2-.3.5-.6.5-.8 0-.3-.4-.5-.7-.9zm-38.7 26.6.8-.3a2 2 0 0 0 -.4-.9l-.6.2zm69.8 26-.1-.5c-.2-.1-.5 0-.8 0 0 .2 0 .5.2.5zm-6.6-13.6-.2.6 1.6.5.2-1h-1.6zm-11.7 1.4.7-.4a2 2 0 0 0 -.5-.8l-.6.3c0 .3.3.6.4 1zm-49 40.8-.2.6c.2.1.4.3.5.2.2 0 .3-.3.4-.5l-.6-.3zm29.6 3-.4-.5-.2.2.3.6zm13.1 0v-.4h-.6v.3zm30.7-32.3.7.7c.1.1.4 0 .6-.1l-.8-1zm-61.1-51.4-.7-.2v.5h.6v-.3z"/><path d="m382.7 162c-.1 2-1.7 3.7-3.5 3.6-1.6 0-3.5-2-3.5-3.7 0-2 1.6-3.5 3.7-3.3 1.8.2 3.3 1.7 3.3 3.3zm-12.8 8.8-1-4.2 3-2c3.5 1.4 4.5 2.7 3.9 4.7-.5 1.5-2.6 2.1-5.9 1.5z"/></g></g></svg>