<svg xmlns="http://www.w3.org/2000/svg" viewBox="0 382.6 612 26.8"><g fill="#FFF"><path d="M314.4 395.4c.4 0 .7-.1 1-.2s.6-.3.8-.5c.2-.2.4-.5.5-.7.1-.3.2-.6.2-1 0-.3 0-.6-.1-.9s-.2-.5-.4-.7l-.6-.6-.9-.6-.6-.3c-.2-.1-.3-.2-.4-.3-.1-.1-.2-.2-.2-.3 0-.1-.1-.2-.1-.3 0-.2.1-.4.2-.5s.3-.2.6-.2h.4c.1 0 .2.1.3.1.1.1.2.1.3.2l.3.3 1-1c-.3-.4-.6-.7-1-.9-.3-.2-.8-.3-1.3-.3-.3 0-.7.1-1 .2s-.5.3-.7.5-.4.4-.5.7c-.1.3-.2.6-.2.9s0 .6.1.9.2.5.4.7l.6.6c.2.2.5.3.8.5.5.3.8.5 1 .7s.3.4.3.7c0 .3-.1.5-.2.7-.2.2-.4.2-.7.2-.3 0-.5-.1-.8-.2-.3-.2-.5-.4-.8-.7l-1 1.1c.3.4.6.7 1 .9.7.2 1.2.3 1.7.3M321 393.6l.4 1.7h1.5l-2.1-8.3h-1.4l-2.1 8.3h1.5l.4-1.7h1.8m-1.3-2.4c0-.2.1-.3.1-.5s.1-.4.1-.6.1-.3.1-.5 0-.3.1-.4c0 .1 0 .2.1.4s.1.3.1.5.1.4.1.6.1.4.1.5l.2 1h-1.2l.2-1M325.9 395.3v-6.9h1.7V387h-4.9v1.4h1.7v6.9h1.5zM328.4 387h1.5v8.3h-1.5V387zM333.1 395.4c.4 0 .7-.1 1-.2s.6-.3.8-.5c.2-.2.4-.5.5-.7.1-.3.2-.6.2-1 0-.3 0-.6-.1-.9s-.2-.5-.4-.7l-.6-.6-.9-.6-.6-.3c-.2-.1-.3-.2-.4-.3s-.2-.2-.2-.3c0-.1-.1-.2-.1-.3 0-.2.1-.4.2-.5s.3-.2.6-.2h.4c.1 0 .2.1.3.1.1.1.2.1.3.2l.3.3 1-1c-.3-.4-.6-.7-1-.9-.3-.2-.8-.3-1.3-.3-.3 0-.7.1-1 .2s-.5.3-.7.5-.4.4-.5.7c-.1.3-.2.6-.2.9s0 .6.1.9.2.5.4.7l.6.6c.2.2.5.3.8.5.5.3.8.5 1 .7s.3.4.3.7c0 .3-.1.5-.2.7-.2.2-.4.2-.7.2-.3 0-.5-.1-.8-.2-.3-.2-.5-.4-.8-.7l-1 1.1c.3.4.6.7 1 .9.7.2 1.2.3 1.7.3M337.9 391.7h1.9v-1.4h-1.9v-1.8h2.9V387h-4.4v8.3h1.5v-3.6zM342.1 395.3l.4-1.7h1.9l.4 1.7h1.5l-2.1-8.3h-1.4l-2.1 8.3h1.4m.9-4.1c0-.2.1-.3.1-.5s.1-.4.1-.6.1-.3.1-.5 0-.3.1-.4c0 .1 0 .2.1.4s.1.3.1.5.1.4.1.6.1.4.1.5l.2 1h-1.2l.2-1M351.6 393.3l-1.3-.5c-.1.2-.2.4-.2.6s-.2.3-.2.4c-.1.1-.2.2-.3.2-.1 0-.2.1-.3.1-.4 0-.7-.2-.9-.7-.2-.5-.3-1.2-.3-2.1s.1-1.6.3-2.1c.2-.5.5-.7.9-.7.3 0 .5.1.6.2.1.2.3.4.4.8l1.4-.4c-.1-.3-.2-.6-.3-.8-.1-.3-.3-.5-.5-.7s-.4-.3-.7-.4c-.3-.1-.6-.2-.9-.2-.5 0-.9.1-1.2.3-.3.2-.6.5-.8.9s-.4.8-.5 1.4c-.1.5-.2 1.1-.2 1.7s.1 1.1.2 1.7c.1.5.3 1 .5 1.4s.5.7.8.9c.3.2.7.3 1.2.3.6 0 1.1-.2 1.5-.5.3-.6.6-1.1.8-1.8M357 387h-4.9v1.4h1.7v6.9h1.5v-6.9h1.7V387zM357.8 387h1.5v8.3h-1.5V387zM365.2 388.1c-.2-.4-.5-.7-.8-.9-.3-.2-.8-.3-1.2-.3s-.9.1-1.2.3c-.4.2-.6.5-.9.9s-.4.8-.5 1.4c-.1.5-.2 1.1-.2 1.7s.1 1.1.2 1.7c.1.5.3 1 .5 1.4s.5.7.9.9c.3.2.8.3 1.2.3.5 0 .9-.1 1.2-.3.3-.2.6-.5.9-.9.2-.4.4-.8.5-1.4.1-.5.2-1.1.2-1.7s-.1-1.1-.2-1.7-.4-1-.6-1.4m-1.1 5.1c-.2.5-.5.7-.9.7s-.8-.2-1-.7-.3-1.2-.3-2.1.1-1.6.3-2.1c.2-.5.5-.7 1-.7.4 0 .8.2 1 .7s.3 1.2.3 2.1c-.1.9-.2 1.6-.4 2.1M368.2 391.8v-.4-.5-.5-.4c.1.2.2.5.3.8l.3.9 1.5 3.7h1.4V387h-1.3V392.3c0-.1-.1-.2-.1-.4-.1-.1-.1-.3-.2-.5s-.1-.3-.2-.5c-.1-.1-.1-.3-.2-.4l-1.5-3.6h-1.5v8.3h1.3l.2-3.4M315.2 403.8h1.2c0 .6-.1 1-.2 1.3-.2.3-.5.4-.9.4s-.8-.2-1-.7-.3-1.2-.3-2.1.1-1.6.3-2.1c.2-.5.5-.7 1-.7.3 0 .5.1.7.2.2.2.3.4.4.8l1.4-.4c-.2-.7-.5-1.2-.9-1.6-.4-.3-1-.5-1.6-.5-.5 0-.9.1-1.2.3-.4.2-.6.5-.9.9-.2.4-.4.8-.5 1.4-.1.5-.2 1.1-.2 1.7s.1 1.1.2 1.7c.1.5.3 1 .5 1.4s.5.7.9.9c.3.2.8.3 1.2.3.9 0 1.5-.3 2-.8.4-.5.7-1.3.7-2.3v-1.4h-2.6l-.2 1.3M322.5 403.6c0 .7-.1 1.2-.2 1.5s-.4.4-.7.4c-.3 0-.6-.1-.7-.4-.2-.3-.2-.8-.2-1.5v-5H319v5c0 .5 0 1 .1 1.4s.2.8.4 1.1c.2.3.5.5.8.7s.7.2 1.1.2c.5 0 .8-.1 1.2-.2.3-.2.6-.4.8-.7.2-.3.3-.7.4-1.1s.1-.9.1-1.4v-5h-1.5l.1 5M326.8 398.5l-2.1 8.3h1.5l.4-1.7h1.9l.4 1.7h1.5l-2.1-8.3h-1.5m.1 5.2l.2-1c0-.2.1-.3.1-.5s.1-.4.1-.6.1-.3.1-.5 0-.3.1-.4c0 .1 0 .2.1.4 0 .2.1.3.1.5s.1.4.1.6.1.4.1.5l.2 1h-1.2M335.9 402.6c.3-.4.4-.8.4-1.4 0-.9-.2-1.5-.7-1.9s-1.1-.6-1.9-.6h-2.2v8.3h1.5v-3.1h.5l1.3 3.1h1.6l-1.4-3.4c.3-.4.6-.7.9-1m-2.3-.3h-.7V400h.6c.4 0 .8.1.9.3.2.2.3.5.3.9.1.7-.3 1.1-1.1 1.1M339.2 398.5l-2.1 8.3h1.5l.4-1.7h1.9l.4 1.7h1.5l-2.1-8.3h-1.5m.1 5.2l.2-1c0-.2.1-.3.1-.5s.1-.4.1-.6.1-.3.1-.5 0-.3.1-.4c0 .1 0 .2.1.4 0 .2.1.3.1.5s.1.4.1.6.1.4.1.5l.2 1h-1.2M347.4 402v1.9c0-.1-.1-.2-.1-.4-.1-.1-.1-.3-.2-.5s-.1-.3-.2-.5c-.1-.1-.1-.3-.2-.4l-1.5-3.6h-1.5v8.3h1.3v-3.5-.4-.5-.5-.4c.1.2.2.5.3.8l.3.9 1.5 3.7h1.4v-8.3h-1.3l.2 3.4M349.7 400h1.7v6.9h1.5V400h1.7v-1.4h-4.9v1.4zM357.2 403.1h1.9v-1.4h-1.9V400h2.8v-1.4h-4.3v8.3h4.4v-1.4h-2.9v-2.4zM362.8 403.1h1.9v-1.4h-1.9V400h2.8v-1.4h-4.3v8.3h4.4v-1.4h-2.9v-2.4zM371.1 399.5c-.3-.3-.6-.6-1-.7-.4-.2-.8-.2-1.3-.2h-1.9v8.3h1.8c.5 0 .9-.1 1.3-.2.4-.2.7-.4 1-.7.3-.3.5-.8.6-1.3s.2-1.1.2-1.9c0-.7-.1-1.3-.2-1.9 0-.6-.2-1-.5-1.4m-.8 4.3c0 .3-.1.6-.3.8-.1.2-.3.4-.5.6-.2.1-.5.2-.8.2h-.4V400h.4c.3 0 .6.1.8.2.2.1.4.3.5.6.1.2.2.5.3.9 0 .3.1.7.1 1.1 0 .3 0 .6-.1 1M243.8 388.9c-.5.5-1.2.9-2.2 1v2.2h2.7v14.8h3.6V387h-3.1c-.2.7-.5 1.4-1 1.9M261.5 389.6c-.5-.9-1.1-1.6-1.9-2.2s-1.8-.8-2.9-.8c-1.2 0-2.1.3-2.9.8-.8.5-1.5 1.3-2 2.2-.5.9-.9 2-1.1 3.3-.2 1.2-.3 2.6-.3 4s.1 2.7.3 4c.2 1.2.6 2.3 1.1 3.2.5.9 1.1 1.6 1.9 2.2.8.5 1.8.8 2.9.8 1.2 0 2.1-.3 2.9-.8s1.5-1.3 2-2.2c.5-.9.9-2 1.1-3.3.2-1.2.3-2.6.3-4s-.1-2.7-.3-4c-.3-1.2-.6-2.2-1.1-3.2m-2.8 12.4c-.4 1.1-1.1 1.7-2.1 1.7s-1.7-.6-2.1-1.7c-.4-1.1-.7-2.8-.7-5.1 0-2.2.2-3.9.6-5 .4-1.1 1.1-1.7 2.1-1.7s1.7.6 2.1 1.7.6 2.8.6 5.1c.1 2.2-.1 3.9-.5 5M275.7 389.6c-.5-.9-1.1-1.6-1.9-2.2s-1.8-.8-2.9-.8c-1.2 0-2.1.3-2.9.8s-1.5 1.3-2 2.2c-.5.9-.9 2-1.1 3.3-.2 1.2-.3 2.6-.3 4s.1 2.7.3 4c.2 1.2.6 2.3 1.1 3.2.5.9 1.1 1.6 1.9 2.2.8.5 1.8.8 2.9.8s2.1-.3 2.9-.8 1.5-1.3 2-2.2.9-2 1.1-3.3c.2-1.2.3-2.6.3-4s-.1-2.7-.3-4c-.2-1.2-.6-2.2-1.1-3.2m-2.8 12.4c-.4 1.1-1.1 1.7-2.1 1.7s-1.7-.6-2.1-1.7-.7-2.8-.7-5.1c0-2.2.2-3.9.6-5s1.1-1.7 2.1-1.7 1.7.6 2.1 1.7.6 2.8.6 5.1c.2 2.2 0 3.9-.5 5M296.9 394.8c-1.5 0-2.6.6-3.4 1.7s-1.1 2.6-1.1 4.5.4 3.4 1.1 4.5c.8 1.1 1.9 1.6 3.3 1.6 1.5 0 2.6-.6 3.4-1.7s1.2-2.6 1.2-4.5-.4-3.4-1.1-4.5c-.8-1-1.9-1.6-3.4-1.6m1.3 8.8c-.2.7-.6 1-1.3 1s-1.1-.3-1.3-.9c-.2-.6-.3-1.5-.3-2.7s.1-2.1.3-2.7c.2-.6.6-.9 1.3-.9s1.1.3 1.3.9c.2.6.3 1.5.3 2.7 0 1.1-.1 2-.3 2.6M293.6 387l-10.2 19.8h2.9l10.2-19.8h-2.9zM286.4 397.3c.8-1.1 1.2-2.6 1.2-4.5s-.4-3.4-1.1-4.5-1.9-1.7-3.4-1.7-2.6.6-3.4 1.7-1.1 2.6-1.1 4.5.4 3.4 1.1 4.5c.8 1.1 1.9 1.6 3.3 1.6 1.5.1 2.6-.4 3.4-1.6m-2.1-1.8c-.2.7-.6 1-1.3 1-.6 0-1.1-.3-1.3-.9-.2-.6-.3-1.5-.3-2.7s.1-2.1.3-2.7c.2-.6.6-.9 1.3-.9s1.1.3 1.3.9c.2.6.3 1.5.3 2.7.1 1.1 0 1.9-.3 2.6M0 390.8h4v16.1h3.5v-16.1h4v-3.3H0v3.3zM21.7 395.1h-4.4v-7.6h-3.5v19.4h3.5v-8.4h4.4v8.4h3.5v-19.4h-3.5v7.6zM32.1 398.1h4.4v-3.3h-4.4v-4.1h6.5v-3.3h-10v19.4h10.2v-3.3h-6.7v-5.4zM56.8 396.8c.6-.9.9-2 .9-3.3 0-2-.6-3.5-1.7-4.5s-2.6-1.5-4.5-1.5h-5.2v19.4h3.5v-7.4h1.1l3 7.4h3.8l-3.4-8.1c1.1-.5 1.9-1.1 2.5-2m-5.2-.5h-1.7v-5.4h1.5c1 0 1.8.2 2.2.7s.6 1.1.6 2c.1 1.8-.8 2.7-2.6 2.7M63.9 398.1h4.4v-3.3h-4.4v-4.1h6.5v-3.3h-10v19.4h10.2v-3.3h-6.7v-5.4zM73.3 387.4h3.5v19.4h-3.5v-19.4zM95 389.7c-.6-.8-1.4-1.4-2.3-1.7-.9-.4-2-.6-3.1-.6h-4.4v19.4h4.3c1.1 0 2.2-.2 3.1-.6s1.7-1 2.4-1.7c.7-.8 1.2-1.8 1.5-3 .4-1.2.5-2.7.5-4.4 0-1.7-.2-3.2-.5-4.4-.4-1.2-.9-2.2-1.5-3m-1.8 9.9c-.1.8-.3 1.4-.6 2-.3.6-.7 1-1.2 1.3s-1.1.5-1.9.5h-.9v-12.6h.9c.8 0 1.4.2 1.9.5s.9.8 1.2 1.3c.3.6.5 1.2.6 2s.2 1.6.2 2.5c0 1-.1 1.8-.2 2.5M99.7 387.4h3.5v19.4h-3.5v-19.4zM106.8 406.9h3.5v-8.4h4.6v-3.4h-4.6v-4.3h6.8v-3.4h-10.3v19.5zM119.4 406.9h3.5v-8.4h4.6v-3.4h-4.6v-4.3h6.8v-3.4h-10.3v19.5zM135.5 398.1h4.4v-3.3h-4.4v-4.1h6.5v-3.3h-10v19.4h10.2v-3.3h-6.7v-5.4zM155.3 396.8c.6-.9.9-2 .9-3.3 0-2-.6-3.5-1.7-4.5s-2.6-1.5-4.5-1.5h-5.2v19.4h3.5v-7.4h1.1l3 7.4h3.8l-3.4-8.1c1-.5 1.8-1.1 2.5-2m-5.3-.5h-1.7v-5.4h1.5c1 0 1.8.2 2.2.7s.6 1.1.6 2c.1 1.8-.8 2.7-2.6 2.7M162.3 398.1h4.4v-3.3h-4.4v-4.1h6.5v-3.3h-10v19.4H169v-3.3h-6.7v-5.4zM179.9 395.5v4.5l-.3-.9c-.1-.3-.3-.7-.4-1.1-.1-.4-.3-.7-.4-1.1-.1-.4-.3-.7-.4-1l-3.4-8.5h-3.5v19.4h3.2v-8.2-1-1.2-1.2-1c.2.6.4 1.2.7 1.9.3.7.5 1.4.8 2l3.6 8.7h3.3v-19.4h-3.2v8.1M194.3 402.3c-.2.4-.4.6-.6.8-.2.2-.4.4-.6.5s-.5.1-.8.1c-.9 0-1.6-.6-2.1-1.7-.5-1.2-.7-2.8-.7-4.8s.2-3.7.7-4.8c.4-1.1 1.1-1.7 2.1-1.7.6 0 1.1.2 1.4.6.3.4.6 1 .9 1.9l3.2-1.1c-.2-.7-.4-1.4-.7-2s-.6-1.1-1.1-1.6c-.4-.4-1-.8-1.6-1s-1.3-.4-2.2-.4c-1.1 0-2 .3-2.8.8s-1.5 1.2-2 2.1-.9 2-1.2 3.2-.4 2.5-.4 3.9.1 2.7.4 3.9c.2 1.2.6 2.3 1.2 3.2.5.9 1.2 1.6 2 2.1s1.7.8 2.8.8c1.5 0 2.7-.4 3.6-1.3.9-.9 1.6-2.1 2-3.7l-3-1.3c-.2.7-.4 1.1-.5 1.5M203.7 398.1h4.4v-3.3h-4.4v-4.1h6.5v-3.3h-10v19.4h10.2v-3.3h-6.7v-5.4zM226.1 389.9c-.3 0-.6.3-.6.6s.3.6.6.6.6-.3.6-.6-.3-.6-.6-.6M226.1 382.6c-.3 0-.6.3-.6.6s.3.6.6.6.6-.3.6-.6-.3-.6-.6-.6M226.1 386.3c-.3 0-.6.3-.6.6s.3.6.6.6.6-.3.6-.6c0-.4-.3-.6-.6-.6M226.1 397.2c-.3 0-.6.3-.6.6s.3.6.6.6.6-.3.6-.6-.3-.6-.6-.6M226.1 393.6c-.3 0-.6.3-.6.6s.3.6.6.6.6-.3.6-.6-.3-.6-.6-.6M226.1 404.5c-.3 0-.6.3-.6.6s.3.6.6.6.6-.3.6-.6-.3-.6-.6-.6M226.1 400.9c-.3 0-.6.3-.6.6s.3.6.6.6.6-.3.6-.6-.3-.6-.6-.6M226.1 408.2c-.3 0-.6.3-.6.6s.3.6.6.6.6-.3.6-.6-.3-.6-.6-.6M389.5 382.6c-.3 0-.6.3-.6.6s.3.6.6.6.6-.3.6-.6-.3-.6-.6-.6M389.5 400.9c-.3 0-.6.3-.6.6s.3.6.6.6.6-.3.6-.6c0-.4-.3-.6-.6-.6M389.5 397.2c-.3 0-.6.3-.6.6s.3.6.6.6.6-.3.6-.6-.3-.6-.6-.6M389.5 393.6c-.3 0-.6.3-.6.6s.3.6.6.6.6-.3.6-.6-.3-.6-.6-.6M389.5 386.3c-.3 0-.6.3-.6.6s.3.6.6.6.6-.3.6-.6c0-.4-.3-.6-.6-.6M389.5 389.9c-.3 0-.6.3-.6.6s.3.6.6.6.6-.3.6-.6-.3-.6-.6-.6M389.5 404.5c-.3 0-.6.3-.6.6s.3.6.6.6.6-.3.6-.6-.3-.6-.6-.6M389.5 408.2c-.3 0-.6.3-.6.6s.3.6.6.6.6-.3.6-.6-.3-.6-.6-.6M493.7 408.2c-.3 0-.6.3-.6.6s.3.6.6.6.6-.3.6-.6-.3-.6-.6-.6M493.7 389.9c-.3 0-.6.3-.6.6s.3.6.6.6.6-.3.6-.6-.3-.6-.6-.6M493.7 382.6c-.3 0-.6.3-.6.6s.3.6.6.6.6-.3.6-.6-.3-.6-.6-.6M493.7 386.3c-.3 0-.6.3-.6.6s.3.6.6.6.6-.3.6-.6c0-.4-.3-.6-.6-.6M493.7 400.9c-.3 0-.6.3-.6.6s.3.6.6.6.6-.3.6-.6-.3-.6-.6-.6M493.7 393.6c-.3 0-.6.3-.6.6s.3.6.6.6.6-.3.6-.6-.3-.6-.6-.6M493.7 397.2c-.3 0-.6.3-.6.6s.3.6.6.6.6-.3.6-.6-.3-.6-.6-.6M493.7 404.5c-.3 0-.6.3-.6.6s.3.6.6.6.6-.3.6-.6-.3-.6-.6-.6M408.1 394.2c.2.4.5.7.9.9.3.2.8.3 1.2.3.9 0 1.5-.3 2-.8.4-.5.7-1.3.7-2.3v-1.4h-2.6v1.4h1.2c0 .6-.1 1-.2 1.3-.2.3-.5.4-.9.4s-.8-.2-1-.7-.3-1.2-.3-2.1.1-1.6.3-2.1c.2-.5.5-.7 1-.7.3 0 .5.1.7.2s.3.4.4.8l1.4-.4c-.2-.7-.5-1.2-.9-1.6-.4-.3-1-.5-1.6-.5-.5 0-.9.1-1.2.3-.4.2-.6.5-.9.9s-.4.8-.5 1.4c-.1.5-.2 1.1-.2 1.7s.1 1.1.2 1.7c0 .4.1.9.3 1.3M418.5 393.9h-2.9v-2.3h1.9v-1.4h-1.9v-1.8h2.8V387h-4.3v8.3h4.4v-1.4zM421.6 387l-2.1 8.3h1.5l.4-1.7h1.9l.4 1.7h1.5L423 387h-1.4m.1 5.2l.2-1c0-.2.1-.3.1-.5s.1-.4.1-.6.1-.3.1-.5 0-.3.1-.4c0 .1 0 .2.1.4s.1.3.1.5.1.4.1.6.1.4.1.5l.2 1h-1.2M431.1 395.3l-1.4-3.4c.4-.2.7-.5 1-.8.3-.4.4-.8.4-1.4 0-.9-.2-1.5-.7-1.9s-1.1-.6-1.9-.6h-2.2v8.3h1.5v-3.1h.5l1.3 3.1h1.5m-2.6-4.7h-.7v-2.3h.6c.4 0 .8.1.9.3.2.2.3.5.3.9 0 .7-.4 1.1-1.1 1.1M436.9 395.4c.3 0 .6-.1.9-.2s.5-.3.8-.5l.4.6h1.6l-1.2-1.8c.3-.6.5-1.2.6-1.9l-1.1-.5c0 .2-.1.4-.1.6-.1.2-.1.4-.2.6l-1.6-2.4c-.1-.2-.2-.4-.3-.5s-.1-.3-.1-.5.1-.3.2-.4.3-.2.5-.2c.3 0 .5 0 .7.1s.5.2.7.4l.7-1.2c-.3-.2-.6-.4-1-.5-.3-.1-.7-.2-1.1-.2-.3 0-.6 0-.9.1s-.5.2-.7.4c-.2.2-.3.4-.4.6s-.2.5-.2.8.1.6.2.8c.1.2.2.5.4.8l.3.4c-.5.3-.8.7-1 1.1s-.3.8-.3 1.3c0 .7.2 1.2.6 1.6.3.4.8.6 1.6.6m-.7-2.9c.1-.2.3-.4.5-.6l1.2 1.7c-.3.3-.6.4-.9.4s-.5-.1-.7-.2c-.2-.2-.2-.4-.2-.7-.1-.2 0-.4.1-.6M447.3 387h-1.4l-2.1 8.3h1.5l.4-1.7h1.9l.4 1.7h1.5l-2.2-8.3m-1.3 5.2l.2-1c0-.2.1-.3.1-.5s.1-.4.1-.6.1-.3.1-.5 0-.3.1-.4c0 .1 0 .2.1.4s.1.3.1.5.1.4.1.6.1.4.1.5l.2 1H446M455.3 393c.1-.5.2-1.1.2-1.9 0-.7-.1-1.3-.2-1.9-.1-.5-.3-.9-.6-1.3-.3-.3-.6-.6-1-.7s-.8-.2-1.3-.2h-1.9v8.3h1.8c.5 0 .9-.1 1.3-.2.4-.2.7-.4 1-.7.3-.4.6-.9.7-1.4m-1.3-.8c0 .3-.1.6-.3.8-.1.2-.3.4-.5.6-.2.1-.5.2-.8.2h-.4v-5.4h.4c.3 0 .6.1.8.2.2.1.4.3.5.6.1.2.2.5.3.9 0 .3.1.7.1 1.1-.1.3-.1.7-.1 1M460 387l-.8 4c0 .1-.1.3-.1.5s-.1.4-.1.6-.1.4-.1.6-.1.3-.1.4c0-.1 0-.2-.1-.4 0-.2-.1-.4-.1-.6s-.1-.4-.1-.6-.1-.4-.1-.5l-.8-4h-1.5l2 8.3h1.4l2-8.3H460M462.7 387h1.5v8.3h-1.5V387zM466.1 394.2c.2.4.5.7.8.9.3.2.7.3 1.2.3.6 0 1.1-.2 1.5-.5.4-.4.7-.9.9-1.6l-1.3-.5c-.1.2-.2.4-.2.6-.1.1-.2.3-.2.4-.1.1-.2.2-.3.2-.1 0-.2.1-.3.1-.4 0-.7-.2-.9-.7-.2-.5-.3-1.2-.3-2.1s.1-1.6.3-2.1c.2-.5.5-.7.9-.7.3 0 .5.1.6.2.1.2.3.4.4.8l1.4-.4c-.1-.3-.2-.6-.3-.8-.1-.3-.3-.5-.5-.7s-.4-.3-.7-.4c-.3-.1-.6-.2-.9-.2-.5 0-.9.1-1.2.3-.3.2-.6.5-.8.9s-.4.8-.5 1.4c-.1.5-.2 1.1-.2 1.7s.1 1.1.2 1.7.2.8.4 1.2M476 393.9h-2.9v-2.3h1.9v-1.4h-1.9v-1.8h2.8V387h-4.3v8.3h4.4v-1.4zM411 400.2c-.1.2-.1.4-.2.5-.1.2-.1.4-.2.5-.1.2-.1.3-.1.5 0 .1-.1.3-.1.4 0-.1 0-.2-.1-.4 0-.1-.1-.3-.1-.5-.1-.2-.1-.4-.2-.5s-.1-.4-.2-.6l-.6-1.7h-1.6l2.1 5.2v3.1h1.5v-3.1l2.2-5.1h-1.6l-.8 1.7M418.2 399.7c-.2-.4-.5-.7-.8-.9-.3-.2-.8-.3-1.2-.3-.5 0-.9.1-1.2.3-.4.2-.6.5-.9.9s-.4.8-.5 1.4c-.1.5-.2 1.1-.2 1.7s0 1.1.1 1.7c.1.5.3 1 .5 1.4s.5.7.8.9c.3.2.8.3 1.2.3.5 0 .9-.1 1.2-.3.3-.2.6-.5.9-.9.2-.4.4-.8.5-1.4.1-.5.2-1.1.2-1.7s0-1.1-.1-1.7c-.1-.5-.3-1-.5-1.4m-1.2 5.1c-.2.5-.5.7-.9.7s-.8-.3-1-.7c-.2-.5-.3-1.2-.3-2.1s.1-1.6.3-2.1c.2-.5.5-.7 1-.7.4 0 .8.3.9.7.2.5.3 1.2.3 2.1 0 .9-.1 1.6-.3 2.1M423.3 403.6c0 .7-.1 1.2-.2 1.5s-.4.4-.7.4c-.3 0-.6-.1-.7-.4-.2-.3-.2-.8-.2-1.5v-5H420v5c0 .5 0 1 .1 1.4s.2.8.4 1.1c.2.3.4.5.8.7.3.2.7.2 1.1.2.5 0 .8-.1 1.2-.2.3-.2.6-.4.8-.7.2-.3.3-.7.4-1.1s.1-.9.1-1.4v-5h-1.5l-.1 5M430.9 400c.3 0 .5.1.6.3.1.2.3.4.4.8l1.4-.4c-.1-.3-.2-.6-.3-.8-.1-.3-.3-.5-.5-.7s-.4-.3-.7-.4c-.3-.1-.6-.2-.9-.2-.5 0-.9.1-1.2.3-.3.2-.6.5-.9.9-.2.4-.4.8-.5 1.4-.1.5-.2 1.1-.2 1.7s0 1.1.1 1.7c.1.5.3 1 .5 1.4s.5.7.8.9c.3.2.7.3 1.2.3.6 0 1.1-.2 1.5-.5.4-.4.7-.9.9-1.6l-1.3-.6c-.1.2-.2.4-.2.6-.1.1-.2.3-.2.4-.1.1-.2.2-.3.2-.1 0-.2.1-.3.1-.4 0-.7-.2-.9-.7-.2-.5-.3-1.2-.3-2.1s.1-1.6.3-2.1c.3-.6.6-.9 1-.9M435.9 398.7l-2.2 8.3h1.5l.4-1.7h1.9l.4 1.7h1.5l-2.1-8.3h-1.4m.1 5.2l.2-1c0-.2.1-.3.1-.5s.1-.4.1-.6.1-.3.1-.5.1-.3.1-.4c0 .1 0 .2.1.4 0 .2.1.3.1.5s.1.4.1.6.1.4.1.5l.2 1H436M443.8 402.2v1.9c0-.1-.1-.2-.1-.4-.1-.1-.1-.3-.2-.5s-.1-.3-.2-.5c-.1-.1-.1-.3-.2-.4l-1.4-3.6h-1.5l-.1 8.3h1.3v-3.5-.4-.5-.5-.4c.1.2.2.5.3.8l.3.9 1.5 3.7h1.4l.1-8.3h-1.3l.1 3.4M448.5 400.2h1.7v6.9h1.5v-6.9h1.7v-1.4h-4.9v1.4zM458.7 402.9c.3-.4.4-.8.4-1.4 0-.9-.2-1.5-.7-1.9s-1.1-.7-1.9-.7h-2.2l-.1 8.3h1.5v-3.1h.5l1.3 3.2h1.6l-1.4-3.5c.4-.3.7-.6 1-.9m-2.2-.3h-.7v-2.3h.6c.4 0 .8.1.9.3.2.2.3.5.3.9 0 .7-.4 1.1-1.1 1.1M463.4 403.9c0 .7-.1 1.2-.2 1.5s-.4.4-.7.4c-.3 0-.6-.1-.7-.4-.2-.3-.2-.8-.2-1.5v-5h-1.5v5c0 .5 0 1 .1 1.4s.2.8.4 1.1c.2.3.4.5.8.7.3.2.7.2 1.1.2.5 0 .8-.1 1.2-.2.3-.2.6-.4.8-.7.2-.3.3-.7.4-1.1s.1-.9.1-1.4v-5h-1.5l-.1 5M470.1 403.4l-.6-.6-.9-.6-.6-.3c-.1-.1-.3-.2-.4-.3-.1-.1-.2-.2-.2-.3 0-.1-.1-.2-.1-.3 0-.2.1-.4.2-.5s.3-.2.6-.2h.4c.1 0 .2.1.3.1.1.1.2.1.3.2l.3.3 1-1c-.3-.4-.6-.7-1-.9-.3-.2-.8-.3-1.3-.3-.3 0-.7.1-1 .2s-.5.3-.7.5-.4.4-.5.7c-.1.3-.2.6-.2.9s0 .6.1.9.2.5.4.7l.6.6c.2.2.5.3.8.5.5.3.8.5 1 .7s.3.4.3.7c0 .3-.1.5-.2.7-.2.2-.4.2-.7.2-.3 0-.5-.1-.8-.2-.3-.2-.5-.4-.8-.7l-1 1.1c.3.4.6.7 1 .9.4.3.9.4 1.4.4.4 0 .7-.1 1-.2s.6-.3.8-.5c.2-.2.4-.5.5-.7.1-.3.2-.6.2-1 0-.3 0-.6-.1-.9.2-.4 0-.6-.1-.8M471.1 400.4h1.7v6.9h1.5l.1-6.9h1.7V399h-4.9l-.1 1.4zM572.3 390.1c-.1.4-.2.7-.3 1.1-.1.3-.2.6-.2.8 0-.2-.1-.5-.2-.8-.1-.3-.2-.7-.3-1.1l-1-3.1h-1.5v8.3h1.3v-2.7-1.4-1.1c.1.3.2.7.3 1.1s.3.9.4 1.4l1 2.9 1-2.9c.2-.5.3-.9.4-1.4.1-.4.2-.8.3-1.1v5.2h1.3V387h-1.5l-1 3.1M580.9 393.9H578v-2.3h1.9v-1.4H578v-1.8h2.8V387h-4.3v8.3h4.4v-1.4zM586.9 391.2c.1-.4.2-.8.3-1.1v5.2h1.3V387H587l-1 3.1c-.1.4-.2.7-.3 1.1-.1.3-.2.6-.2.8 0-.2-.1-.5-.2-.8-.1-.3-.2-.7-.3-1.1l-1-3.1h-1.5v8.3h1.3v-2.7-1.4-1.1c.1.3.2.7.3 1.1s.3.9.4 1.4l1 2.9 1-2.9c.1-.5.3-1 .4-1.4M594.6 394.7c.5-.4.7-1.1.7-1.9 0-.5-.1-.9-.4-1.2-.2-.3-.5-.5-.9-.7.3-.1.6-.4.8-.7.2-.3.3-.6.3-1 0-.7-.2-1.2-.7-1.6-.4-.4-1-.6-1.8-.6h-2.2v8.3h2.2c.8 0 1.5-.2 2-.6m-2.8-6.3h.8c.4 0 .6.1.8.2.1.2.2.4.2.7 0 .2-.1.4-.2.6-.1.2-.4.3-.7.3h-.8l-.1-1.8m0 3.1h.7c.4 0 .7.1.9.3s.3.5.3 1c0 .3-.1.6-.3.8s-.5.3-.9.3h-.8l.1-2.4M601.1 393.9h-2.9v-2.3h1.9v-1.4h-1.9v-1.8h2.8V387h-4.3v8.3h4.4v-1.4zM604.2 392.1h.5l1.3 3.1h1.6l-1.4-3.4c.4-.2.7-.5 1-.8.3-.4.4-.8.4-1.4 0-.9-.2-1.5-.7-1.9s-1.1-.6-1.9-.6h-2.2v8.3h1.5l-.1-3.3m0-3.6h.6c.4 0 .8.1.9.3.2.2.3.5.3.9 0 .8-.4 1.1-1.1 1.1h-.7v-2.3M573.1 399.5c-.3-.3-.6-.6-1-.7s-.8-.2-1.3-.2h-1.9v8.3h1.8c.5 0 .9-.1 1.3-.2.4-.2.7-.4 1-.7.3-.3.5-.8.6-1.3s.2-1.1.2-1.9c0-.7-.1-1.3-.2-1.9 0-.6-.2-1-.5-1.4m-.7 4.3c0 .3-.1.6-.3.8-.1.2-.3.4-.5.6-.2.1-.5.2-.8.2h-.4V400h.4c.3 0 .6.1.8.2s.4.3.5.6c.1.2.2.5.3.9 0 .3.1.7.1 1.1-.1.3-.1.6-.1 1M574.9 398.6h1.5v8.3h-1.5v-8.3zM580.3 402.6c0 .1-.1.3-.1.5s-.1.4-.1.6-.1.4-.1.6-.1.3-.1.4c0-.1 0-.2-.1-.4 0-.2-.1-.4-.1-.6s-.1-.4-.1-.6-.1-.4-.1-.5l-.8-4h-1.5l2 8.3h1.4l2-8.3h-1.5l-.8 4M583.4 398.6h1.5v8.3h-1.5v-8.3zM590.3 399.5c-.3-.3-.6-.6-1-.7-.4-.2-.8-.2-1.3-.2h-1.9v8.3h1.8c.5 0 .9-.1 1.3-.2.4-.2.7-.4 1-.7.3-.3.5-.8.6-1.3s.2-1.1.2-1.9c0-.7-.1-1.3-.2-1.9 0-.6-.2-1-.5-1.4m-.7 4.3c0 .3-.1.6-.3.8-.1.2-.3.4-.5.6-.2.1-.5.2-.8.2h-.4V400h.4c.3 0 .6.1.8.2s.4.3.5.6c.1.2.2.5.3.9 0 .3.1.7.1 1.1-.1.3-.1.6-.1 1M593.5 403.1h1.9v-1.4h-1.9V400h2.8v-1.4H592v8.3h4.4v-1.4h-2.9v-2.4zM600.9 402v1.9c0-.1-.1-.2-.1-.4s-.1-.3-.2-.5-.1-.3-.2-.5c-.1-.1-.1-.3-.2-.4l-1.5-3.6h-1.5v8.3h1.3v-3.5-.4-.5-.5-.4c.1.2.2.5.3.8l.3.9 1.5 3.7h1.4v-8.3h-1.3l.2 3.4M607.6 399.5c-.3-.3-.6-.6-1-.7-.4-.2-.8-.2-1.3-.2h-1.9v8.3h1.8c.5 0 .9-.1 1.3-.2.4-.2.7-.4 1-.7.3-.3.5-.8.6-1.3s.2-1.1.2-1.9c0-.7-.1-1.3-.2-1.9 0-.6-.2-1-.5-1.4m-.8 4.3c0 .3-.1.6-.3.8-.1.2-.3.4-.5.6-.2.1-.5.2-.8.2h-.4V400h.4c.3 0 .6.1.8.2s.4.3.5.6c.1.2.2.5.3.9 0 .3.1.7.1 1.1 0 .3 0 .6-.1 1M612 399l-.3-.6-.8.5.1-.9h-.7l.1.9-.8-.5-.3.6.9.4-.9.4.3.6.8-.5-.1.9h.7l-.1-.9.8.5.3-.6-.9-.4.9-.4zM513.9 388.9c-.5.5-1.2.9-2.2.9v2.2h2.7v14.8h3.6V387h-3.1c-.2.7-.5 1.4-1 1.9M531.6 389.6c-.5-.9-1.1-1.6-1.9-2.2-.8-.5-1.8-.8-2.9-.8-1.2 0-2.1.3-2.9.8s-1.5 1.3-2 2.2c-.5.9-.9 2-1.1 3.3-.2 1.2-.3 2.6-.3 4s.1 2.7.3 4c.2 1.2.6 2.3 1.1 3.2.5.9 1.1 1.6 1.9 2.2.8.5 1.8.8 2.9.8s2.1-.3 2.9-.8 1.5-1.3 2-2.2.9-2 1.1-3.3c.2-1.2.3-2.6.3-4s-.1-2.8-.3-4c-.2-1.2-.6-2.2-1.1-3.2m-2.8 12.4c-.4 1.1-1.1 1.7-2.1 1.7s-1.7-.6-2.1-1.7c-.4-1.1-.7-2.8-.7-5.1s.2-3.9.6-5c.4-1.1 1.1-1.7 2.1-1.7s1.7.6 2.1 1.7c.4 1.1.6 2.8.6 5.1.2 2.2 0 3.9-.5 5M542.4 397.3c.8-1.1 1.2-2.6 1.2-4.5s-.4-3.4-1.1-4.5c-.7-1.1-1.9-1.7-3.4-1.7s-2.6.6-3.4 1.7c-.8 1.1-1.1 2.6-1.1 4.5s.4 3.4 1.1 4.5c.8 1.1 1.9 1.6 3.3 1.6 1.4.1 2.6-.4 3.4-1.6m-2.1-1.8c-.2.7-.6 1-1.3 1-.6 0-1.1-.3-1.3-.9s-.3-1.5-.3-2.7.1-2.1.3-2.7.6-.9 1.3-.9c.6 0 1.1.3 1.3.9s.3 1.5.3 2.7c0 1.1-.1 1.9-.3 2.6M549.6 387l-10.2 19.8h2.9l10.2-19.8h-2.9zM552.9 394.8c-1.5 0-2.6.6-3.4 1.7-.8 1.1-1.1 2.6-1.1 4.5s.4 3.4 1.1 4.5c.8 1.1 1.9 1.6 3.3 1.6 1.5 0 2.6-.6 3.4-1.7.8-1.1 1.2-2.6 1.2-4.5s-.4-3.4-1.1-4.5c-.8-1-1.9-1.6-3.4-1.6m1.2 8.8c-.2.7-.6 1-1.3 1-.6 0-1.1-.3-1.3-.9s-.3-1.5-.3-2.7.1-2.1.3-2.7.6-.9 1.3-.9c.6 0 1.1.3 1.3.9s.3 1.5.3 2.7c.1 1.1 0 2-.3 2.6"/></g></svg>