<svg height="550" viewBox="0 0 1796 550" width="1796" xmlns="http://www.w3.org/2000/svg"><g fill="#7ec7d2" fill-rule="evenodd" transform="translate(-3)"><g fill-rule="nonzero"><path d="m1471.47336 430.668953c-.95033 1.611337-2.28454 2.565508-3.67677 3.44116-1.76076 1.107794-3.58465 2.116586-5.31981 3.260225-1.71299 1.128277-3.06427 2.604767-3.89005 4.758905 1.65839 1.196554 3.31507 2.411884 4.99564 3.594783 2.00133 1.408212 4.0436 2.761803 6.03128 4.190499 1.15507.831272 2.16853 1.78715 2.2999 3.367762.1109 1.329694-.45042 2.345314-1.24208 3.337037-1.5219 1.908341-2.99773 3.852528-4.47014 5.800128-.32929.435266-.52209.972947-.84455 1.415041-1.04417 1.432109-2.05763 1.508921-3.34578.271401-.79166-.761289-1.45365-1.727408-2.36816-2.280451-2.7162-1.640354-5.52455-3.130499-8.309-4.65649-.82066-.450628-1.50142-.223607-2.08834.512078-1.79318 2.25314-3.21612 4.613816-2.8527 7.68628.12796 1.083897.07677 2.200225.00853 3.296071-.20815 3.345571-2.52853 5.200998-5.57744 4.081256-3.05574-1.123157-6.19678-1.817875-9.39071-2.374332-.97593-.170692-1.8819-.742512-2.89707-1.162416.89574-3.111723 1.92285-5.791594 5.29422-6.484605-.08189-.305539-.07507-.474525-.14843-.524026-1.95185-1.333108-2.34256-3.145861-1.71128-5.32219.36853-1.273365.65004-2.572335 1.03222-4.105153-5.63203.450628-11.01668.88248-16.56341 1.32628-.40265-2.323124-.75583-4.412399-1.12777-6.499967-.22521-1.261417-.45896-2.522834-.72341-3.777424-.57157-2.720837-.04095-5.323897 3.80985-5.771111 3.32531-.385765 6.68816-.464283 10.03735-.633269 1.32739-.06657 2.65991-.010241 4.21081-.010241-.23545-.819324-.34806-1.40992-.57157-1.954429-1.7164-4.187085-3.45839-8.363929-5.18502-12.545893-.25593-.619614-.52721-1.239228-.71488-1.881031-.45214-1.54306-.11602-2.27533 1.4127-2.836908 1.14313-.419904 2.35109-.658873 3.51469-1.030983 1.80341-.578647 3.58976-1.203381 5.38464-1.804219.6364-.213365 1.26598-.464283 1.91944-.612785 2.39033-.544509 4.02312.344798 4.99052 2.620128.8036 1.891273 1.02881 3.900322 1.15507 5.907665.12114 1.935653.87697 3.495781 2.14123 4.933012.71147.809082 1.40076.981481 2.22654.438679 1.42294-.937101 2.9073-1.829823 4.16133-2.964927 1.72151-1.558422 3.23659-3.340451 4.87109-4.996168.59886-.607665 1.25403-1.172657 1.9399-1.677906.87526-.643511 1.39223-.57182 1.97233.366988.4453.716909.81383 1.522577 1.02199 2.338487.46407 1.821288 1.50142 3.034911 3.06597 4.122222 1.98085 1.374074 3.66654 3.181707 5.52113 4.840837zm-31.99734 31.318648c.79848.764702 1.60038.525732 2.47734.218486-.81725-1.208502-1.0271-1.225572-2.47734-.218486zm9.41801-12.972625c-.39754.423317-.71318.669114-.8855.991723-.05289.100708.33953.611079.42654.585475.34635-.100709.73194-.281643.93839-.55475.08531-.114364-.24228-.539389-.47943-1.022448z"/><path d="m32.3946919 51.557649c4.8642654-1.6266989 7.0293839-6.5853141 11.5131754-9.2310467.5425592 1.1129146 1.1363033 2.0995169 1.5167772 3.1629307.4743128 1.3211594 1.1601896 2.3180032 2.3579147 3.1663446 1.7709953 1.2545894 3.313365 2.8317875 4.9683413 4.28438-1.4587678 2.188277-3.5334597 3.0571015-5.3709953 4.2365862-1.1397156.7322705-2.3596208 1.3843156-3.3543128 2.2838647-.9093839.8227376-1.5628436 1.9305314-2.5012322 3.1339131 2.9175355 2.073913 5.5979147 3.9788406 8.28 5.8837681.2763981.1962963.5664455.3772303.8428436.5752335 3.1273934 2.2394847 3.2263507 3.9208051.6534597 6.8635427-1.2727962 1.4560064-2.3306161 3.111723-3.3952607 4.7367149-1.1994312 1.8298229-2.0985782 2.0653785-3.5624644.4489211-2.4312796-2.683285-5.8845498-3.6476972-8.8054976-5.4962963-.7029384-.4455072-1.407583-.225314-1.9808531.5325604-1.4161138 1.8673752-2.5490048 3.789372-2.3408531 6.2746538.0989573 1.1811916.0938389 2.391401-.0494787 3.5657649-.2678673 2.1831562-2.1122275 3.5162641-4.1562085 3.0246699-3.038673-.7322705-6.0619905-1.5242834-9.0784834-2.3419002-.6261612-.1689855-1.1909005-.5649919-1.905782-.9149114.6927014-2.5501449 1.4280569-4.8476651 4.8267298-5.3648631-3.3236018-2.6201289-1.6191469-5.4997102-1.1891943-8.5738809-4.6527014.3669888-9.1689099.7237359-13.98881513 1.1043801-.34293839-1.8673752-.65516588-3.5811272-.97080569-5.2931723-.2149763-1.1675363-.3992417-2.3401933-.65345971-3.4991949-.60227488-2.7532689.46407583-4.5148148 3.22805687-4.9005797 2.17706161-.3038325 4.38824646-.3925926 6.58919436-.4864734 1.7744075-.0751047 3.5556398-.0153623 5.7685308-.0153623-1.1653081-2.8898229-2.1872986-5.4604509-3.24-8.0191305-.7421801-1.8059259-1.5747868-3.5760064-2.2794313-5.3955877-.7268247-1.8793237-.3429384-2.6184219 1.578199-3.2295008 2.6633176-.8483414 5.3317536-1.6847343 8.0104266-2.4886957 2.9465403-.8841868 4.267109-.2150725 5.1799052 2.7481482.3685308 1.1999677.508436 2.480161.6534597 3.7347504.2490995 2.1746215.8803791 4.1188083 2.8561137 5.4894686zm-5.1167772 28.3776167c-.0136493-.2048309-.0255924-.4113688-.0392417-.6161997-.561327-.1228985-1.1601896-.7749436-1.8153555.7134944.7541233-.0409662 1.3052133-.0699839 1.8545972-.0972947z"/><path d="m1300.17479 196.463575c1.27109-4.98934 2.00815-5.926441 5.82312-7.585572-.86673-1.688148-2.8254-2.947858-2.2726-5.221481.45042-1.852013.79678-3.72963 1.28474-6.04934-6.24455.495008-12.26218.972947-18.62958 1.478196-.34635-1.553301-.70293-2.934202-.95886-4.33388-.44531-2.437488-.77118-4.897166-1.25573-7.32612-.76607-3.838872.72341-6.163703 4.66976-6.622866 3.24-.37723 6.51924-.455749 9.78313-.59401 1.90237-.080225 3.80986-.015362 6.12853-.015362-.43507-1.316039-.68588-2.261675-1.05612-3.15781-1.98426-4.798164-4.02824-9.570725-5.98862-14.377423-1.14825-2.813012-.59545-3.866184 2.25554-4.738422 3.34067-1.020741 6.67792-2.046603 10.01346-3.082706 4.33707-1.346763 5.9818-.517198 7.3365 3.825218.3327 1.065121.48113 2.191691.67052 3.297778.24739 1.440644.30711 2.929082.69782 4.327053 1.25061 4.460193 3.39696 5.257327 7.01573 2.353848 2.6309-2.109758 4.91716-4.649662 7.38256-6.972786 1.13119-1.06512 2.31867-2.070499 3.87811-3.458228.81384 1.435523 1.64644 2.490402 2.04227 3.69037.73194 2.222416 1.84948 3.913978 3.88322 5.274396 2.20948 1.47649 4.03678 3.524799 6.41517 5.673817-1.89384 1.449179-3.41062 2.729372-5.04682 3.830338-1.86996 1.25971-3.98901 2.183156-5.73441 3.582834-1.62768 1.30409-2.9073 3.041739-4.63735 4.910821 2.77593 2.003929 5.1236 3.714268 7.49005 5.399002 1.83924 1.309211 3.76208 2.510886 5.54332 3.895201 3.25876 2.531369 3.34919 4.888631.73194 8.005475-1.87507 2.232657-3.5437 4.646248-5.19867 7.053012-1.56285 2.273623-2.6565 2.591111-4.52304.534267-3.23658-3.569179-7.83981-4.835717-11.69573-7.341482-.9145-.594009-1.93138-.460869-2.68891.551337-1.78123 2.379452-3.43792 4.76744-3.08474 7.995233.14673 1.341643.08872 2.715717.00853 4.067601-.25081 4.222931-2.85953 5.98277-6.86218 4.828889-2.91071-.8381-5.88455-1.447472-8.81403-2.225829-1.50313-.399421-2.96531-.942223-4.60663-1.471369zm14.87602-8.065218c-.79678-1.15388-1.55944-1.650595-2.42105 0z"/><path d="m479.456682 143.048792c-.436777.974654-.638104 1.826409-1.131184 2.446023-1.086825 1.360418-1.380285 2.848856-1.388816 4.547246-.00853 1.773495-.319052 3.545282-.501611 5.361449-2.291374.360161-4.007772-.696425-5.816303-1.365539-1.44-.53256-2.871469-1.124863-4.35583-1.488438-.876966-.215072-1.851184-.039259-2.956777-.039259-.090426.778357-.23545 1.428695-.230332 2.08074.018768 2.830081.075071 5.660162.127962 8.490242.051185 2.775459-1.114123 4.455073-4.120379 4.228052-2.192417-.165572-4.383128-.373817-6.61308.02731-1.460474.262867-2.36474-.783478-1.980853-2.201932.919621-3.412142-.412891-6.610918-.752417-9.896747-.044361-.435266-.856493-1.051466-1.381991-1.129984-2.110521-.315781-4.074313.136554-5.783886 1.527697-.928152.754461-1.871659 1.531111-2.919242 2.085862-1.943317 1.027568-3.726256.563285-4.548625-1.34335-1.385403-3.205604-2.547299-6.508502-3.840569-9.862608 2.252133-1.457714 4.4309-1.688149 6.880948.162157-.027299-3.936167 3.30654-4.033462 5.720758-5.492882-2.893649-3.323382-5.676398-6.518744-8.575166-9.848953 2.219716-2.347021 4.258578-4.639421 6.450995-6.77649 1.479242-1.440644 3.17346-1.365539 4.76019.30554 1.941611 2.044895 3.659716 4.301449 5.461422 6.47607.542559.653752 1.04417 1.341643 1.716398 2.212174.503317-.607665.979336-1.061707 1.312038-1.602802 1.794881-2.920547 3.533459-5.87694 5.34199-8.79066.520379-.836393 1.206256-1.57037 1.846067-2.38628.865023.416489 1.525308.634976 2.071279 1.01562 2.038863 1.416747 4.043602 2.882995 6.055166 4.340708 2.4091 1.744477 2.692322 3.185121.94692 5.632851-.685877.960998-1.559432 1.822995-2.468816 2.582576-1.535545 1.280193-2.431279 2.831788-2.569478 4.955201 3.687014 3.21926 8.757725 1.665959 13.243222 3.748406zm-37.909194 6.841353c-.109194.052915-.218388.105829-.327583.157037.056304.269694.030711.611079.189384.79372.204739.237262.556209.346505.84455.512077.083602-.107536.165497-.215072.249099-.322609-.319052-.380644-.636398-.759581-.95545-1.140225z"/></g><path d="m864.917725 20.3704348c-2.243602 2.0841546-4.82673 3.2670531-8.447204 1.9697906 1.132891 4.9500806-2.989194 6.2592915-5.40853 9.0944928 4.888151 3.2141385 9.619336 6.3258615 14.524549 9.5519485-2.023507 3.8747182-3.803033 7.532657-5.821422 11.0540418-1.264265 2.2087601-3.381611 2.7242512-6.041516 1.2887279-2.859526-1.5447665-5.497251-3.5060226-8.198104-5.3375523-1.451943-.9848954-2.832228-2.0790339-4.674882-3.4428664-1.141422 4.0078583-2.18218 7.6367794-3.204171 11.2708213-.588625 2.096103-1.035639 4.24-1.748815 6.291723-.725118 2.0858615-1.632796 2.4306602-3.760379 1.691562-3.338957-1.1590016-6.681327-2.3094686-9.984455-3.5674718-3.280948-1.2477617-4.309763-3.5777134-3.016493-6.8550081.545972-1.3826087 1.250616-2.7481481 2.120759-3.9498228 1.637914-2.2582609 2.071279-4.6752657 1.443412-7.6077617-5.761706-2.7191305-11.607014 1.1026731-17.894218.2082447.25763-2.9922383.827488-5.8837681.660284-8.7326248-.163791-2.7857004-1.08-5.5270209-1.678862-8.3485668 3.482275-1.3194525 6.596019-.6930113 9.631279-.1877617 2.929479.4881804 5.643981.3277295 8.785024-1.2665378-.981043-3.2380354-1.970616-6.4351047-2.912417-9.6441224-.535735-1.8229951-1.209668-3.6442834-1.436588-5.51165859-.368531-3.02637682.624455-4.29120773 3.478863-5.07127215 3.00455-.82103059 6.015924-1.61816425 9.020474-2.43748792 2.134407-.58376811 2.601896-.06827697 3.303128 2.18486313 1.245497 3.99932367 2.743507 7.92012883 4.198862 11.85117553.503318 1.3587117 1.590142 1.6813204 2.990901 1.4116264 2.654787-.5103704 4.802843-1.7461836 6.456114-3.9276329 1.144834-1.510628 2.303317-3.07587757 3.73308-4.28950076 1.873365-1.58914654 3.980474-1.50550724 5.464834.31919485 2.907299 3.57259261 5.574029 7.34148151 8.319242 11.04380031.131374.1792271.059716.5052496.097251.9456361z"/><path d="m526.219336 486.198604c-2.253838-3.371175-.06654-5.861578 1.390522-8.927214-4.981991-1.029275-9.680758-2.000515-14.609858-3.021256.290047-3.311433.491374-6.40438.847962-9.478551.409479-3.51285 2.01327-4.741835 5.543318-4.127343 2.806635.489888 5.565497 1.252883 8.34654 1.889566.921327.211658 1.846066.406248 3.32872.730563-.153554-2.473333-.204739-4.707697-.450426-6.919871-.269574-2.425539-.769479-4.825475-1.076588-7.247601-.344644-2.707182.295166-3.417262 2.980664-3.582834 2.842464-.174106 5.683222-.495008 8.525687-.513784 3.344076-.020483 4.422369 1.083897 4.502559 4.349243.034123 1.346763-.283223 2.698647-.288341 4.048825-.006825 1.467955.073365 2.949565.27981 4.402157.250806 1.766667 1.583318 2.273624 3.028436 1.746184 2.02692-.739098 3.956588-1.761546 5.882844-2.748148 2.020095-1.034396 3.987298-2.169501 6.350332-3.465057.827488 2.794236 1.242085 5.16686 2.231658 7.266377 1.025403 2.176329 2.607015 4.088084 4.070901 6.307086-4.113555 3.659645-10.405877 2.372624-13.980285 7.105926 1.653271 2.108051 3.291185 4.234879 4.97346 6.327568.936683 1.165829 2.02692 2.215588 2.903886 3.422383 1.760759 2.423833 1.515072 4.142706-.825782 5.945218-2.470521 1.90322-4.997346 3.73475-7.735734 5.772818-3.316777-3.48554-6.701801-7.039356-10.076588-10.584638-3.338957 1.54306-5.014407 3.697198-5.797535 6.86525-1.596967 6.460708-3.260474 6.996682-9.011943 3.451401-2.393745-1.47649-4.905214-2.761804-7.522465-4.222931 1.156777-3.031498 2.972133-4.555781 6.188246-4.791337z"/><path d="m1792.189 399.113043c1.9638 3.847408 3.77062 7.317585 5.5092 10.821901.87697 1.766666.26616 3.238035-1.34446 4.168309-1.27791.737391-2.70085 1.223865-4.06919 1.795684-1.24891.520612-2.61555.839807-3.75014 1.541353-2.05934 1.273365-2.28626 2.567214-.6074 4.274138 1.60891 1.636941 3.52323 2.971756 5.29934 4.441417 1.42123 1.177778 2.84076 2.35897 4.86938 4.045411-5.41876 1.971498-6.9236 6.699678-9.95374 10.186924-4.72948-1.899806-5.73611-8.264927-11.66502-9.155942-1.43488 2.932496-2.89706 5.957166-4.39337 8.96306-.48114.966119-.83602 2.219002-1.63791 2.746441-1.01005.665701-2.68038 1.327987-3.61195.930274-3.19905-1.36554-6.20019-3.195362-9.26104-4.839131 1.47242-3.639162 2.86806-6.967665 4.16645-10.335426 1.23014-3.190242 1.10047-3.581127-2.1856-4.668438-1.3308-.440387-2.85782-.348213-4.29611-.370403-.8036-.013655-1.60891.291884-2.41934.35504-4.2381.332851-5.71052-1.329694-5.05535-5.58847.24739-1.604509.39412-3.226087.56474-4.840837.15526-1.466248.28151-2.93591.43678-4.576264 2.84587-.198003 4.94957.580354 6.61308 3.15781 2.07298-2.700355 4.93933-2.357263 8.32947-2.067086-1.04928-4.75037-2.02521-9.164476-3.07962-13.940451 3.24683-1.167536 6.35887-2.422125 9.55962-3.386537 2.03545-.612786 3.68531.336264 4.47356 2.546731.72341 2.03124 1.07488 4.199034 1.53384 6.319034.39924 1.848599.72 3.715974 1.18237 6.144927 5.03488-2.949565 9.74218-5.709662 14.79241-8.669469z"/><path d="m1015.95185 549.078035c-2.31185-2.637198-4.63223-5.281223-7.31431-8.340032 1.93819-2.010757 3.85763-4.100032 5.88796-6.07153 1.23867-1.203381 2.67526-1.106087 3.89175.093881 1.26427 1.246055 2.44322 2.58087 3.61024 3.920805 1.04076 1.194847 2.01497 2.451144 3.23829 3.948116 2.56095-3.989082 4.87621-7.592399 7.46616-11.629275 2.89195 2.015878 5.47678 3.606731 7.80228 5.513366 1.73346 1.421867 1.45877 3.125378-.40777 5.535555-1.33763 1.727408-3.72455 2.799356-3.45669 5.725024 3.01138 3.033205 7.59924 1.594268 11.09517 3.162931-.90597 3.896908-1.72322 7.414879-2.62237 11.287891-3.72114-.908084-7.32967-1.788857-11.61213-2.833495 0 3.698905.06142 6.583607-.01536 9.463189-.09213 3.465056-.45384 3.813268-3.98218 3.939581-2.23848.078518-4.48038.015362-6.79223.015362-.36341-3.874718-.68758-7.317584-1.00493-10.705829-2.16853-1.566957-4.0999-1.155588-6.00056.049501-.95545.605958-1.81877 1.375781-2.81688 1.892979-2.23336 1.159001-3.68189.720322-4.67488-1.541353-1.09706-2.500644-1.98768-5.091755-3.24341-8.358808 2.03204-.315781 3.75355-.582061 5.86408-.909791 1.32227-1.080483 3.10009-2.533076 5.08777-4.158068z"/><path d="m159.437156 436.243768c2.204361-3.403607 4.168152-6.438518 6.350332-9.807987 2.392038 1.660837 4.543507 3.029791 6.548247 4.586506 1.728341 1.341642 1.056113 2.871046-.054598 4.275845-1.225023 1.546473-2.479052 3.072464-3.75526 4.649662 2.960189 3.125378 6.846824 1.822995 9.781422 3.258518-.721707 3.156103-1.399053 6.119324-2.149763 9.400033-3.098389-.742512-6.162654-1.474783-9.86673-2.362384 0 3.24145-.044361 5.791595.013649 8.340033.047772 2.050016-.818957 3.028083-2.912417 2.96322-2.001327-.061449-4.00436-.013655-5.918673-.013655-.421422-3.436039-.77801-6.356586-1.126066-9.193495-2.36474-1.283607-4.074313-.297004-5.831659.870532-3.567583 2.370918-4.388247 2.072206-5.872607-1.804219-.629573-1.643768-1.371753-3.244863-2.081516-4.905701 1.252322-2.015877 3.052322-1.21533 4.442843-1.013913 1.527014-1.322866 2.895356-2.509178 4.536683-3.931046-1.881896-2.207054-3.867868-4.535298-6.019337-7.056426 1.08-1.140225 2.069574-2.234363 3.112038-3.27388 3.286066-3.279002 3.91564-3.26364 7.068626.312367 1.165308 1.322866 2.199241 2.761803 3.734786 4.70599z"/><path d="m1716.87905 39.7457327c-2.59507 3.6289211-4.52986 6.33781-7.15734 10.0145249 4.52985 1.2102094 8.12815 2.1729147 12.03014 3.2158455-.66029 3.5640579-1.30692 7.058132-2.12929 11.5046698-2.59166-.7134943-5.10483-1.3791948-7.60265-2.096103-4.07091-1.1658293-5.23109-.3123672-4.79773 3.6494042.09896.9046699.53062 1.7752013.60398 2.6781642.42313 5.2436715-.78995 6.6040902-6.02957 6.7201611-1.59868.0358454-3.20247-.1416748-5.19185-.2423833-.62616-3.992496-1.24209-7.9184219-2.0201-12.8838647-4.1272 1.8178744-7.36379 3.2414492-10.80341 4.7554911-4.12379-2.3060547-3.45327-7.0786151-5.29933-10.0998712 3.61023-1.7615459 6.95943-3.3967794 10.9399-5.3392592-1.64474-2.0858615-2.73839-3.4582287-3.81498-4.8442512-1.09706-1.4150403-2.17706-2.8454429-3.20246-4.1853785 7.09592-9.4768438 7.10787-9.4887922 14.35735-.9132045.58521.6913044.82919 1.6710789 1.58161 3.2499839 3.27753-4.8988728 5.6508-8.4458615 8.3909-12.5424798 3.44815 2.5006441 6.49877 4.7145249 10.14483 7.3585507z"/></g></svg>